<svg width="682" height="487" viewBox="0 0 682 487" fill="none" xmlns="http://www.w3.org/2000/svg">
<g filter="url(#filter0_d_1_2945)">
<path d="M138.581 70.1047C185.838 63.9293 234.496 68.1828 281.351 59.7074C330.359 50.8381 374.991 28.5153 422.231 13.6913C469.471 -1.13283 524.027 -7.79658 567.854 13.9276C594.686 27.2393 614.429 49.7826 629.919 73.6335C660.449 120.669 676.997 173.992 677.964 228.459C678.401 255.461 674.918 282.652 665.712 308.361C634.942 394.281 541.81 453.751 443.602 472.088C335.75 492.237 218.481 467.677 131.387 407.01C57.228 355.26 -16.1087 262.991 9.04282 178.946C25.723 123.052 67.7296 79.3678 138.581 70.1047Z" fill="#6752E5"/>
</g>
<path opacity="0.2" d="M509.289 300.2L455.485 336.039C454.341 336.801 452.907 337.122 451.499 336.933C450.091 336.744 448.825 336.06 447.977 335.031L425.661 307.888C425.24 307.382 424.942 306.802 424.785 306.186C424.524 305.26 424.574 304.285 424.929 303.385C425.284 302.485 425.929 301.7 426.781 301.13L480.602 265.29C481.238 264.869 481.969 264.579 482.743 264.44C483.517 264.301 484.316 264.317 485.082 264.487C486.291 264.764 487.359 265.403 488.11 266.299L510.426 293.458C510.844 293.967 511.146 294.546 511.314 295.161C511.483 295.776 511.516 296.415 511.41 297.041C511.304 297.667 511.063 298.269 510.699 298.811C510.335 299.353 509.856 299.825 509.289 300.2Z" fill="white"/>
<path opacity="0.2" d="M519.298 71.0804L459.194 148.162L447.642 119.318C407.75 128.854 368.478 140.377 330.006 153.834C285.654 169.729 242.947 189.484 230.678 209.901C202.551 256.799 268.624 277.531 268.624 277.531C256.053 278.435 243.412 278.161 230.905 276.711C197.947 272.82 157.026 258.453 168.875 209.901C178.239 171.541 239.201 139.277 299.096 116.293H299.183C307.935 112.953 316.686 109.818 325.193 106.841L325.438 106.746C357.479 95.7194 390.158 86.2536 423.331 78.39L417.572 53.1528L519.298 71.0804Z" fill="white"/>
<path d="M230.681 209.901C202.554 256.799 268.627 277.531 268.627 277.531C256.056 278.435 243.416 278.161 230.908 276.711C225.956 271.523 221.328 266.09 217.046 260.438C179.118 210.783 260.471 171.651 260.471 171.651C267.244 149.391 299.099 130.975 299.099 130.975V116.293H299.187L325.196 106.841L325.441 106.746L331.164 149.785L330.009 153.802C285.657 169.729 242.95 189.484 230.681 209.901Z" fill="url(#paint0_linear_1_2945)"/>
<path d="M415.124 371.847C413.522 374.299 412.531 377.035 412.219 379.866C412.273 382.699 413.293 385.449 415.142 387.743C418.94 392.814 424.763 396.374 431.402 397.683C432.27 397.923 433.205 397.884 434.045 397.573C434.62 397.255 435.068 396.781 435.322 396.218C436.915 393.304 436.268 389.838 435.217 386.766C434.167 383.694 432.732 380.575 432.89 377.314C433.152 371.217 442.831 359.449 431.559 356.582C422.16 354.125 418.117 366.412 415.124 371.847Z" fill="#B2857F"/>
<path d="M408.508 379.803C408.508 379.803 405.183 382.26 405.813 384.97C406.443 387.679 418.397 406.568 435.427 404.41C452.458 402.251 424.488 387.081 424.488 387.081L408.508 379.803Z" fill="#7694F0"/>
<path d="M413.655 372.824C414.353 372.847 415.018 373.095 415.529 373.523C416.04 373.951 416.363 374.53 416.438 375.155C416.883 376.955 417.829 378.622 419.189 380.001C420.549 381.379 422.277 382.422 424.21 383.032C428.655 384.119 432.716 380.779 434.711 381.724C436.707 382.67 442.308 395.824 440.837 399.573C439.367 403.323 432.471 403.228 426.345 400.66C420.219 398.092 409.052 387.837 408.195 383.788C407.337 379.74 411.223 373.911 413.655 372.824Z" fill="white"/>
<path d="M342.908 393.634C341.257 396.43 340.301 399.515 340.107 402.677C340.348 405.796 341.629 408.777 343.783 411.231C348.278 416.714 354.948 420.427 362.406 421.597C363.381 421.828 364.415 421.745 365.329 421.36C365.945 420.967 366.42 420.419 366.694 419.785C368.304 416.477 367.377 412.649 366.064 409.246C364.751 405.843 363.001 402.488 362.931 398.896C362.931 392.122 373.03 378.59 360.358 375.896C349.769 373.643 345.918 387.475 342.908 393.634Z" fill="#B2857F"/>
<path d="M335.959 402.882C335.959 402.882 332.459 405.764 333.246 408.742C334.034 411.719 348.351 432.215 367.184 429.064C386.017 425.913 354.127 410.396 354.127 410.396L335.959 402.882Z" fill="#7694F0"/>
<path d="M341.295 394.816C342.077 394.808 342.837 395.056 343.432 395.514C344.027 395.972 344.418 396.608 344.533 397.305C345.118 399.281 346.257 401.088 347.842 402.552C349.427 404.017 351.403 405.091 353.582 405.67C358.587 406.678 362.946 402.819 365.151 403.764C367.356 404.709 374.357 419.124 372.887 423.33C371.417 427.536 363.768 427.757 356.82 425.173C349.871 422.589 336.901 411.656 335.816 407.198C334.731 402.74 338.652 396.139 341.295 394.816Z" fill="white"/>
<path d="M380.662 229.341C381.138 229.415 381.607 229.526 382.062 229.671C393.124 233.452 406.444 250.308 413.97 258.311C423.754 268.446 431.897 279.775 438.159 291.961C450.866 317.497 452.038 349.225 434.186 372.131L420.463 369.547C419.265 369.428 418.136 368.983 417.225 368.271C416.757 367.653 416.434 366.956 416.274 366.222C416.115 365.488 416.123 364.733 416.298 364.002C417.023 355.179 416.57 346.309 414.95 337.583C414.045 331.602 412.008 325.805 408.929 320.443C404.623 313.464 397.832 308.061 391.216 302.768C370.213 286.022 351.38 268.709 340.966 245.031C350.365 240.872 370.528 227.734 380.662 229.341Z" fill="#473F47"/>
<path d="M348.871 242.195C349.324 242.358 349.753 242.569 350.149 242.825C359.933 248.812 368.527 268.031 373.778 277.357C380.655 289.274 385.639 302.001 388.585 315.166C394.308 342.656 387.255 373.753 363.959 392.358L351.269 386.955C350.139 386.587 349.158 385.923 348.451 385.048C348.157 384.346 348.024 383.597 348.06 382.847C348.096 382.097 348.301 381.362 348.661 380.685C351.654 372.256 353.511 363.535 354.192 354.707C354.863 348.702 354.383 342.638 352.774 336.78C350.411 329.108 345.196 322.428 340.137 315.875C324.122 295.206 310.225 274.396 306.234 249.19C316.438 247.11 339.455 238.572 348.871 242.195Z" fill="#473F47"/>
<path d="M405.882 182.19C405.891 182.258 405.891 182.327 405.882 182.395C406.04 185.026 407.002 187.342 406.25 190.02C405.444 192.997 402.364 195.691 399.003 195.25C396.203 194.887 394.295 192.619 392.142 190.965C389.889 189.341 387.39 188.015 384.721 187.026C381.221 185.561 377.615 184.191 374.009 182.931C371.699 182.111 367.288 181.607 366.308 179.481C365.328 177.354 365.643 173.998 365.363 171.746L361.005 136.001L401.559 165.932C403.222 169.206 404.518 172.62 405.427 176.125C405.814 178.127 405.967 180.16 405.882 182.19Z" fill="white"/>
<path d="M375.778 186.129C376.023 188.24 376.566 190.335 376.846 192.43C378.316 204.072 376.723 216.407 381.974 227.45C383.164 229.908 384.705 232.523 384.005 235.138C383.149 237.354 381.426 239.214 379.156 240.368C368.445 247.111 355.44 250.119 342.768 252.971C333.229 255.145 319.804 259.099 310.283 255.287C306.222 253.711 304.472 250.056 302.809 246.465C297.558 235.028 294.793 222.425 292.308 210.231C291.993 208.656 291.66 207.081 291.362 205.427C289.297 194.431 287.681 183.34 286.514 172.155C285.709 164.026 285.341 155.204 290.487 148.525C297.313 139.608 311.771 132.771 323.025 129.621C326.665 128.566 330.456 127.998 334.279 127.935C339.726 128.164 345.089 129.23 350.137 131.086C356.14 133.055 361.479 134.693 364.892 139.482C368.676 145.046 371.574 151.059 373.503 157.347C375.319 163.235 376.22 169.321 376.181 175.432C376.181 178.425 375.726 181.45 375.743 184.427C375.688 184.994 375.7 185.564 375.778 186.129Z" fill="white"/>
<path opacity="0.1" d="M330.968 257.335C327.327 258.705 318.296 256.452 315.373 256.279C313.623 256.185 311.872 255.555 310.122 255.365C301.371 254.278 297.643 232.696 296.12 227.009C292.024 211.807 286.668 196.179 284.533 180.741C283.728 174.77 283.15 168.674 284.638 162.829C286.126 156.985 289.889 151.345 295.927 148.651C306.429 144.019 313.518 174.881 315.81 181.182C318.681 189.059 321.569 196.936 324.422 204.812C325.682 208.341 326.085 212.264 328.237 215.493C331.51 220.393 334.276 219.463 339.754 218.644C351.254 216.848 362 212.453 373.325 209.995C373.79 209.839 374.286 209.769 374.783 209.791C375.28 209.812 375.766 209.925 376.213 210.121C376.823 210.573 377.238 211.203 377.385 211.901C378.052 213.891 378.417 215.952 378.47 218.03C378.537 218.624 378.44 219.225 378.19 219.778C377.795 220.344 377.247 220.81 376.598 221.133C368.944 225.69 360.538 229.13 351.691 231.326C344.69 233.09 338.056 236.052 333.331 241.313C329.078 246.039 334.608 251.018 332.298 256.137C332.177 256.407 331.997 256.653 331.769 256.858C331.54 257.064 331.268 257.226 330.968 257.335Z" fill="#020202"/>
<path d="M322.991 233.531L390.097 213.161L439.315 238.43L370.826 263.699L322.991 233.531Z" fill="#7694F0"/>
<path d="M322.991 233.531L390.097 213.161L439.315 238.43L370.826 263.699L322.991 233.531Z" fill="url(#paint1_linear_1_2945)"/>
<path d="M325.753 230.27L392.859 209.901L442.076 235.169L373.588 260.438L325.753 230.27Z" fill="#7694F0"/>
<path d="M376.881 256.956L432.4 234.886L405.305 221.495L350.102 240.305L376.881 256.956Z" fill="url(#paint2_linear_1_2945)"/>
<path d="M373.592 260.438H439.77L496.741 228.506L442.08 235.169L373.592 260.438Z" fill="#7694F0"/>
<path d="M351.009 114.072C350.326 116.293 349.591 118.514 348.803 120.72C347.053 125.761 343.552 130.361 337.461 131.574C336.115 131.807 334.752 131.955 333.383 132.015C333.121 132.015 332.823 132.015 332.473 132.015C332.454 132.024 332.433 132.028 332.412 132.028C332.391 132.028 332.37 132.024 332.351 132.015H332.193C331.51 131.986 330.825 132.05 330.163 132.204C329.978 132.213 329.797 132.262 329.638 132.346C327.887 133.071 328.027 135.623 328.15 137.072C328.581 138.703 328.371 140.417 327.555 141.924C327.555 141.924 327.555 142.019 327.45 142.082C326.965 142.558 326.379 142.943 325.727 143.213C325.075 143.484 324.369 143.635 323.652 143.657C320.634 143.877 317.636 143.054 315.268 141.357C313.912 140.224 312.823 138.858 312.065 137.34C311.828 136.908 311.629 136.461 311.47 136.001C311.271 135.221 311.195 134.421 311.242 133.622C311.274 132.397 311.403 131.176 311.627 129.967C312.273 127.582 312.781 125.169 313.15 122.736C313.173 121.504 313.267 120.274 313.43 119.05C313.654 118.268 313.818 117.473 313.92 116.671C313.92 114.355 312.607 112.118 312.59 109.771C312.567 107.45 312.807 105.133 313.308 102.855C314.241 98.3384 316.427 94.1065 319.661 90.5519C325.665 84.2505 336.306 81.0997 344.673 84.6915C348.853 86.4869 352.097 89.6721 353.721 93.5766C356.522 100.209 353.021 107.597 351.009 114.072Z" fill="#B2857F"/>
<path d="M342.296 227.797C343.766 227.639 345.254 227.497 346.724 227.387C347.601 227.276 348.494 227.324 349.35 227.529C349.771 227.628 350.155 227.826 350.462 228.103C350.77 228.38 350.99 228.725 351.1 229.104C351.091 229.392 351.157 229.678 351.293 229.939C351.517 230.173 351.828 230.324 352.168 230.365C357.419 231.593 362.844 233.515 365.977 237.406C366.35 237.775 366.611 238.224 366.734 238.71C366.856 239.196 366.837 239.702 366.678 240.179C365.96 241.502 363.86 241.313 362.284 240.919C362.51 241.21 362.631 241.557 362.631 241.912C362.631 242.267 362.51 242.613 362.284 242.904C362.048 243.19 361.739 243.42 361.382 243.574C361.025 243.727 360.632 243.8 360.237 243.787C359.716 243.7 359.182 243.7 358.661 243.787C358.304 243.936 357.974 244.132 357.681 244.369C356.944 244.808 356.115 245.106 355.246 245.247C354.376 245.388 353.484 245.368 352.623 245.189C350.873 244.952 349.122 244.417 347.372 244.291C344.659 244.102 342.226 244.905 339.706 243.913C336.927 242.674 333.987 241.754 330.954 241.171C329.99 241.032 329.1 240.618 328.417 239.99C328.122 239.456 327.969 238.869 327.969 238.273C327.969 237.677 328.122 237.089 328.417 236.556C328.87 234.623 329.687 232.774 330.832 231.089C332.32 229.199 334.805 228.868 337.238 228.49C339.023 228.222 340.616 228.017 342.296 227.797Z" fill="#B2857F"/>
<path d="M290.454 148.509C277.589 167.681 264.882 189.894 261.224 212.232C260.262 218.108 259.736 225.04 262.799 230.554C267.805 239.533 284.835 241.282 294.637 242.18C306.374 243.251 318.193 243.393 329.958 242.605C330.215 242.649 330.48 242.635 330.73 242.564C330.98 242.494 331.207 242.369 331.39 242.201C331.574 242.032 331.708 241.826 331.782 241.6C331.856 241.373 331.866 241.134 331.813 240.904L332.303 230.711C332.384 230.235 332.311 229.748 332.093 229.309C331.786 228.988 331.4 228.736 330.965 228.575C330.53 228.413 330.059 228.347 329.59 228.38C322.735 227.885 315.999 226.478 309.602 224.205C303.528 222.031 291.662 216.328 292.519 209.144C292.992 205.112 297.91 200.196 300.343 197.014C306.189 189.374 312.49 181.97 318.931 174.723C318.931 174.723 319.561 133.496 290.454 148.509Z" fill="white"/>
<path d="M348.999 104.809C349.87 104.627 350.688 104.283 351.4 103.797C352.112 103.311 352.701 102.695 353.13 101.989C353.847 103.801 357.243 103.249 358.101 101.469C358.958 99.6889 358.101 97.6724 357.331 95.8923C358.135 95.7219 358.879 95.3739 359.496 94.8797C360.113 94.3855 360.583 93.7607 360.865 93.0618C361.146 92.3628 361.23 91.6118 361.108 90.8765C360.986 90.1412 360.662 89.4449 360.166 88.8505C359.588 88.2676 358.783 87.7635 358.626 86.9758C358.588 86.3755 358.69 85.7747 358.923 85.2114C359.032 84.2866 358.868 83.3522 358.447 82.5029C358.026 81.6536 357.363 80.9195 356.525 80.3751C354.805 79.3068 352.883 78.5276 350.854 78.075C351.399 77.2777 351.602 76.3289 351.425 75.4065C351.248 74.4842 350.702 73.6518 349.892 73.0654C348.232 71.9248 346.22 71.2754 344.133 71.2065C341.105 70.9072 337.762 71.0332 335.382 72.7818C333.757 71.8739 331.841 71.48 329.939 71.6627C328.037 71.8453 326.256 72.594 324.88 73.7901C324.392 74.4002 323.708 74.8618 322.92 75.1134C322.357 75.15 321.793 75.0635 321.275 74.8613C319.068 74.0118 316.626 73.7866 314.274 74.2154C313.098 74.4677 312.07 75.1077 311.393 76.0089C310.715 76.9101 310.438 78.0071 310.616 79.0833C309.747 79.1772 308.93 79.5084 308.276 80.0322C307.622 80.556 307.162 81.2473 306.958 82.0134C306.918 82.494 306.75 82.9587 306.467 83.3682C305.96 83.9039 305.067 83.8723 304.315 83.9354C302.879 84.0479 301.543 84.6438 300.575 85.6039C299.606 86.564 299.075 87.8178 299.088 89.1147C299.101 90.4117 299.658 91.6565 300.646 92.6004C301.634 93.5443 302.982 94.1179 304.42 94.2067C304.254 94.8396 304.236 95.4965 304.365 96.1362C304.495 96.776 304.769 97.3847 305.172 97.9245C306.1 99.2636 307.343 99.3581 308.568 100.193C309.285 100.697 309.005 100.744 308.97 101.768C308.935 102.711 308.988 103.654 309.128 104.588C309.367 106.388 309.867 108.152 310.616 109.834C311.141 111.047 311.806 112.213 312.278 113.442C312.929 115.324 313.363 117.261 313.574 119.223L316.532 111.693C316.565 111.59 316.565 111.481 316.532 111.378C316.472 111.238 316.361 111.121 316.217 111.047C314.927 110.143 314.019 108.869 313.643 107.436C313.268 106.004 313.447 104.499 314.151 103.17C314.348 102.754 314.661 102.39 315.059 102.114C315.458 101.838 315.929 101.659 316.427 101.595C317.617 101.595 318.527 102.525 319.104 103.454C319.719 104.444 320.184 105.504 320.487 106.605C321.288 104.881 322.393 103.285 323.76 101.879C324.338 101.296 325.038 100.303 325.966 100.603C326.893 100.902 327.331 102.414 327.716 102.966C329.095 102.483 330.351 101.754 331.409 100.823C331.287 101.916 331.516 103.018 332.068 103.998C332.62 104.978 333.472 105.795 334.524 106.353C336.73 107.282 339.933 105.959 339.933 103.753C339.933 104.746 344.711 103.076 345.061 102.887C345.43 103.524 346.002 104.047 346.704 104.389C347.406 104.732 348.205 104.878 348.999 104.809Z" fill="#473F47"/>
<path d="M325.913 132.094C327.322 132.26 328.746 132.313 330.166 132.251C329.981 132.26 329.8 132.309 329.641 132.393C327.89 133.118 328.03 135.67 328.153 137.119C328.584 138.75 328.374 140.465 327.558 141.971C327.013 141.975 326.47 141.906 325.948 141.766C325.412 141.596 324.919 141.334 324.495 140.995C322.907 139.818 321.746 138.243 321.16 136.469C320.574 134.695 320.589 132.804 321.204 131.038C322.72 131.563 324.301 131.918 325.913 132.094Z" fill="#96625E"/>
<path d="M395.277 161.317C395.277 161.317 427.324 182.6 422.896 203.851C418.783 223.622 415.09 239.344 415.09 239.344L400.09 231.467C400.09 231.467 410.119 201.677 389.186 188.728C368.252 175.778 395.277 161.317 395.277 161.317Z" fill="white"/>
<path d="M397.429 231.168L395.994 237.863C395.741 238.712 395.705 239.6 395.889 240.463C395.986 240.893 396.24 241.282 396.611 241.568C396.982 241.853 397.449 242.019 397.937 242.038C398.987 242.038 399.879 240.998 400.93 241.187C401.305 241.288 401.659 241.442 401.98 241.644C404.22 242.747 406.933 241.644 409.296 240.652C409.673 240.461 410.111 240.389 410.539 240.447C411.046 240.573 411.361 241.03 411.799 241.313C412.236 241.55 412.743 241.662 413.253 241.634C413.762 241.606 414.25 241.439 414.652 241.156C415.445 240.563 416.049 239.791 416.402 238.919C417.344 237.056 417.753 235.01 417.591 232.968C417.429 230.926 416.701 228.953 415.474 227.23C414.131 225.735 412.367 224.593 410.366 223.922C408.364 223.252 406.199 223.077 404.098 223.417C399.547 224.063 398.252 227.277 397.429 231.168Z" fill="#B2857F"/>
<path d="M370.822 263.699H437L493.972 231.767L439.311 238.43L370.822 263.699Z" fill="#7694F0"/>
<path d="M373.588 260.438L370.822 263.699H437L439.766 260.438H373.588Z" fill="url(#paint3_linear_1_2945)"/>
<path d="M496.74 228.506L493.974 231.767L437.003 263.699L439.768 260.438L496.74 228.506Z" fill="#7694F0"/>
<path d="M496.74 228.506L493.974 231.767L437.003 263.699L439.768 260.438L496.74 228.506Z" fill="url(#paint4_linear_1_2945)"/>
<path d="M442.742 236.587L488.004 230.9L440.799 256.957L389.288 257.76L442.742 236.587Z" fill="white"/>
<path d="M365.629 233.058L391.254 224.504L378.897 216.375L352.607 224.504L365.629 233.058Z" fill="url(#paint5_linear_1_2945)"/>
<path d="M310.795 321.231L209.121 363.009C206.958 363.897 204.491 363.975 202.263 363.228C200.036 362.481 198.228 360.969 197.237 359.024L171.228 307.73C170.73 306.778 170.462 305.742 170.44 304.69C170.372 303.091 170.836 301.51 171.771 300.149C172.706 298.788 174.071 297.709 175.691 297.049L277.365 255.271C278.57 254.783 279.879 254.539 281.201 254.555C282.522 254.571 283.823 254.848 285.013 255.365C286.885 256.179 288.384 257.555 289.249 259.257L315.223 310.566C315.71 311.528 315.982 312.567 316.024 313.623C316.065 314.68 315.875 315.734 315.463 316.724C315.052 317.714 314.428 318.622 313.627 319.395C312.826 320.169 311.864 320.793 310.795 321.231Z" fill="#8575EA"/>
<path opacity="0.2" d="M533.183 219.605L467.513 207.931C466.822 207.809 466.164 207.565 465.578 207.214C464.992 206.862 464.488 206.41 464.097 205.883C463.705 205.356 463.432 204.765 463.295 204.144C463.157 203.522 463.157 202.882 463.295 202.26L470.558 169.178C470.685 168.557 470.954 167.967 471.346 167.445C471.931 166.644 472.768 166.019 473.75 165.648C474.732 165.278 475.815 165.179 476.859 165.365L542.53 177.039C543.307 177.17 544.041 177.458 544.678 177.881C545.314 178.304 545.836 178.851 546.205 179.48C546.797 180.467 546.995 181.607 546.765 182.71L539.484 215.792C539.35 216.416 539.08 217.009 538.691 217.539C538.301 218.068 537.799 218.523 537.214 218.877C536.628 219.231 535.971 219.478 535.279 219.603C534.587 219.728 533.875 219.728 533.183 219.605Z" fill="white"/>
<defs>
<filter id="filter0_d_1_2945" x="0" y="-0.000488281" width="682" height="487" filterUnits="userSpaceOnUse" color-interpolation-filters="sRGB">
<feFlood flood-opacity="0" result="BackgroundImageFix"/>
<feColorMatrix in="SourceAlpha" type="matrix" values="0 0 0 0 0 0 0 0 0 0 0 0 0 0 0 0 0 0 127 0" result="hardAlpha"/>
<feOffset dy="4"/>
<feGaussianBlur stdDeviation="2"/>
<feComposite in2="hardAlpha" operator="out"/>
<feColorMatrix type="matrix" values="0 0 0 0 0 0 0 0 0 0 0 0 0 0 0 0 0 0 0.25 0"/>
<feBlend mode="normal" in2="BackgroundImageFix" result="effect1_dropShadow_1_2945"/>
<feBlend mode="normal" in="SourceGraphic" in2="effect1_dropShadow_1_2945" result="shape"/>
</filter>
<linearGradient id="paint0_linear_1_2945" x1="35815.1" y1="37415.3" x2="-6399.78" y2="16495.4" gradientUnits="userSpaceOnUse">
<stop offset="0.01"/>
<stop offset="0.08" stop-opacity="0.69"/>
<stop offset="0.21" stop-opacity="0.32"/>
<stop offset="1" stop-opacity="0"/>
</linearGradient>
<linearGradient id="paint1_linear_1_2945" x1="25785" y1="6892.18" x2="25231.5" y2="13472.5" gradientUnits="userSpaceOnUse">
<stop offset="0.01"/>
<stop offset="0.08" stop-opacity="0.69"/>
<stop offset="0.21" stop-opacity="0.32"/>
<stop offset="1" stop-opacity="0"/>
</linearGradient>
<linearGradient id="paint2_linear_1_2945" x1="17052.5" y1="5046.7" x2="19679.1" y2="9960.47" gradientUnits="userSpaceOnUse">
<stop offset="0.01"/>
<stop offset="0.08" stop-opacity="0.69"/>
<stop offset="0.21" stop-opacity="0.32"/>
<stop offset="1" stop-opacity="0"/>
</linearGradient>
<linearGradient id="paint3_linear_1_2945" x1="14127.1" y1="861.37" x2="14220.9" y2="-333.152" gradientUnits="userSpaceOnUse">
<stop offset="0.01"/>
<stop offset="0.08" stop-opacity="0.69"/>
<stop offset="0.21" stop-opacity="0.32"/>
<stop offset="1" stop-opacity="0"/>
</linearGradient>
<linearGradient id="paint4_linear_1_2945" x1="15636.5" y1="5251.31" x2="17168" y2="8754.75" gradientUnits="userSpaceOnUse">
<stop offset="0.01"/>
<stop offset="0.08" stop-opacity="0.69"/>
<stop offset="0.21" stop-opacity="0.32"/>
<stop offset="1" stop-opacity="0"/>
</linearGradient>
<linearGradient id="paint5_linear_1_2945" x1="8302.89" y1="2485.76" x2="8503.12" y2="3154.18" gradientUnits="userSpaceOnUse">
<stop offset="0.01"/>
<stop offset="0.08" stop-opacity="0.69"/>
<stop offset="0.21" stop-opacity="0.32"/>
<stop offset="1" stop-opacity="0"/>
</linearGradient>
</defs>
</svg>
