<svg width="927" height="717" viewBox="0 0 927 717" fill="none" xmlns="http://www.w3.org/2000/svg">
<g filter="url(#filter0_d_1_621)">
<path d="M166.987 650.095C178.995 653.319 191.168 655.892 203.454 657.802C272.262 668.657 342.753 662.362 411.887 670.72C485.091 679.512 556.179 704.75 629.98 686.568C689.129 671.968 741.713 634.681 780.187 588.06C834.127 522.93 863.593 440.758 886.059 359.129C911.238 267.785 924.858 158.041 860.174 88.8409C808.513 33.4807 724.51 24.7424 648.864 27.6733C608.871 29.2472 568.877 33.1007 528.884 31.7981C488.89 30.4956 457.959 17.3611 421.112 10.0883C362.397 -1.58079 287.402 37.7141 246.703 76.7376C197.864 123.305 170.732 188.164 125.528 238.096C95.1397 271.584 56.3942 298.83 35.8276 339.101C25.7912 360.571 19.2686 383.514 16.5091 407.053C9.12899 456.281 8.69487 508.927 31.5949 553.107C57.9679 604.016 110.714 634.79 166.987 650.095Z" fill="url(#paint0_linear_1_621)"/>
</g>
<path fill-rule="evenodd" clip-rule="evenodd" d="M651.774 101.53C651.773 101.53 651.773 101.53 652.009 100.998C652.245 100.466 652.246 100.466 652.247 100.467L652.253 100.47L652.277 100.48L652.371 100.522C652.453 100.559 652.576 100.615 652.738 100.688C653.062 100.835 653.542 101.055 654.168 101.346C655.42 101.927 657.255 102.793 659.592 103.932C664.267 106.209 670.949 109.58 678.986 113.955C695.057 122.702 716.551 135.466 738.23 151.528C759.908 167.588 781.788 186.959 798.621 208.924C815.453 230.889 827.262 255.48 828.736 281.972C830.221 308.683 811.153 327.408 781.029 341.178C750.887 354.957 709.46 363.888 665.742 370.937C643.877 374.463 621.424 377.521 599.507 380.477L595.951 380.957C575.276 383.745 555.137 386.46 536.471 389.417C516.736 392.542 498.661 395.935 483.355 399.961C468.04 403.99 455.542 408.643 446.932 414.27C429.481 425.674 397.55 438.526 359.612 450.153C321.658 461.784 277.635 472.206 235.964 478.734C194.305 485.26 154.95 487.901 126.349 483.943C112.055 481.965 100.381 478.331 92.4508 472.653C84.4849 466.951 80.3022 459.187 81.0443 449.073C83.9612 409.32 103.403 382.581 122.105 365.792C131.453 357.398 140.619 351.489 147.449 347.677C150.865 345.771 153.697 344.388 155.678 343.481C156.669 343.028 157.446 342.694 157.978 342.472C158.244 342.361 158.448 342.278 158.586 342.223C158.655 342.196 158.708 342.175 158.744 342.161L158.785 342.145L158.796 342.141L158.799 342.14C158.799 342.139 158.8 342.139 159.007 342.683C159.215 343.227 159.214 343.227 159.214 343.227L159.212 343.227L159.203 343.231L159.167 343.245C159.134 343.258 159.084 343.278 159.017 343.304C158.884 343.357 158.686 343.437 158.426 343.546C157.906 343.763 157.14 344.092 156.162 344.54C154.206 345.435 151.402 346.803 148.016 348.693C141.244 352.473 132.153 358.334 122.882 366.658C104.343 383.301 85.0944 409.778 82.2049 449.158C81.4954 458.827 85.4576 466.216 93.1282 471.707C100.834 477.224 112.289 480.823 126.509 482.791C154.939 486.725 194.16 484.105 235.784 477.584C277.397 471.066 321.366 460.657 359.271 449.04C397.193 437.418 428.99 424.605 446.296 413.296C455.064 407.565 467.707 402.875 483.059 398.836C498.42 394.795 516.539 391.395 536.289 388.267C554.969 385.309 575.12 382.592 595.789 379.805L599.352 379.324C621.27 376.367 643.709 373.312 665.557 369.789C709.268 362.74 750.558 353.828 780.545 340.12C810.548 326.404 829.018 307.998 827.574 282.036C826.117 255.854 814.442 231.482 797.698 209.632C780.954 187.783 759.164 168.486 737.538 152.463C715.914 136.442 694.469 123.707 678.429 114.977C670.41 110.612 663.743 107.249 659.082 104.978C656.752 103.842 654.923 102.979 653.678 102.401C653.055 102.112 652.578 101.894 652.257 101.748C652.097 101.675 651.975 101.62 651.894 101.584L651.803 101.543L651.774 101.53Z" fill="white"/>
<path opacity="0.3" d="M206.118 441.192L310.036 163.849C311.736 159.335 314.77 155.447 318.736 152.703C322.701 149.958 327.409 148.488 332.231 148.489H769.827C776.107 148.503 782.125 151.008 786.561 155.455C790.996 159.901 793.487 165.926 793.487 172.207C793.48 174.618 793.114 177.014 792.402 179.317L691.848 494.11C690.209 499.202 686.889 503.586 682.433 506.544C677.976 509.502 672.648 510.859 667.32 510.393L226.25 472.943C219.983 472.431 214.175 469.451 210.105 464.657C206.034 459.863 204.034 453.648 204.544 447.38C204.798 445.258 205.327 443.178 206.118 441.192Z" fill="#7694F0"/>
<path d="M780.68 151.583L679.963 466.539C678.296 471.624 674.962 475.998 670.501 478.953C666.04 481.908 660.713 483.271 655.381 482.821L523.299 471.641L214.583 445.263C211.479 445.023 208.454 444.172 205.68 442.758C202.907 441.345 200.441 439.396 198.423 437.025C196.406 434.654 194.877 431.908 193.925 428.944C192.973 425.98 192.617 422.856 192.877 419.754C193.096 417.526 193.607 415.336 194.396 413.241L219.087 348.111L263.747 228.707L298.369 136.44C300.068 131.927 303.103 128.038 307.068 125.294C311.033 122.55 315.741 121.08 320.563 121.08H758.16C761.267 121.08 764.343 121.692 767.214 122.882C770.084 124.071 772.693 125.814 774.89 128.011C777.087 130.209 778.829 132.817 780.018 135.688C781.207 138.559 781.819 141.637 781.819 144.744C781.787 147.068 781.403 149.374 780.68 151.583V151.583Z" fill="#E6ECFC"/>
<path opacity="0.18" d="M347.152 425.617L379.44 336.987H513.801L478.746 428.06L347.152 425.617Z" fill="#7694F0"/>
<path d="M780.676 151.581L679.959 466.537C678.292 471.623 674.959 475.997 670.498 478.952C666.036 481.906 660.709 483.269 655.377 482.82L523.295 471.639L645.121 140.889L646.044 138.338L781.382 139.75C781.36 140.147 781.36 140.546 781.382 140.944C781.962 144.497 781.721 148.136 780.676 151.581V151.581Z" fill="#8AA4F2"/>
<path opacity="0.18" d="M352.962 176.549L319.697 286.889C319.207 288.666 318.142 290.231 316.67 291.34C315.198 292.45 313.4 293.041 311.557 293.022L223.213 290.471L267.928 171.067L345.528 166.508C346.759 166.456 347.985 166.706 349.097 167.238C350.209 167.769 351.175 168.565 351.908 169.556C352.642 170.546 353.121 171.702 353.305 172.921C353.489 174.14 353.371 175.386 352.962 176.549Z" fill="#7694F0"/>
<path d="M150.485 259.752L184.889 162.329C185.417 160.765 186.392 159.391 187.695 158.377C188.998 157.364 190.57 156.756 192.215 156.63L337.212 148.055C338.446 148.016 339.672 148.277 340.783 148.815C341.895 149.353 342.86 150.152 343.596 151.144C344.331 152.136 344.816 153.291 345.009 154.511C345.201 155.731 345.096 156.979 344.701 158.15L311.436 268.544C310.939 270.322 309.875 271.889 308.406 273.006C306.936 274.123 305.142 274.729 303.296 274.732L157.105 270.335C155.885 270.265 154.699 269.903 153.648 269.28C152.596 268.657 151.709 267.791 151.061 266.754C150.413 265.718 150.022 264.541 149.922 263.323C149.822 262.105 150.015 260.88 150.485 259.752V259.752Z" fill="#E6ECFC"/>
<path d="M781.599 139.751V140.999V142.356L645.122 140.945L298.366 137.417V134.812L646.044 138.339L781.382 139.751H781.599Z" fill="#7694F0"/>
<path d="M197.966 249.549H179.407L189.175 224.312H207.679L197.966 249.549Z" fill="#7694F0"/>
<path d="M220.828 249.548H202.27L222.131 198.204H240.689L220.828 249.548Z" fill="#7694F0"/>
<path d="M243.727 249.547H225.168L237.27 218.285H255.774L243.727 249.547Z" fill="#7694F0"/>
<path d="M266.569 249.547H248.01L274.166 181.921H292.725L266.569 249.547Z" fill="#7694F0"/>
<path d="M220.828 249.548H202.27L222.131 198.204H240.689L220.828 249.548Z" fill="url(#paint1_linear_1_621)"/>
<path d="M266.569 249.547H248.01L274.166 181.921H292.725L266.569 249.547Z" fill="url(#paint2_linear_1_621)"/>
<path d="M289.475 249.548H270.917L304.344 163.034H322.903L289.475 249.548Z" fill="#7694F0"/>
<path d="M717.936 219.589C720.105 211.552 719.031 202.984 714.946 195.731C710.86 188.478 704.09 183.12 696.093 180.811C688.096 178.502 679.512 179.426 672.19 183.385C664.869 187.345 659.394 194.021 656.946 201.978C654.499 209.935 655.273 218.535 659.103 225.926C662.933 233.317 669.513 238.908 677.424 241.495C685.336 244.081 693.946 243.457 701.402 239.756C708.858 236.054 714.561 229.572 717.285 221.706L717.611 220.675L717.936 219.589Z" fill="white"/>
<path d="M648.533 421.11C650.166 413.23 648.763 405.024 644.604 398.135C640.445 391.246 633.838 386.183 626.105 383.96C618.373 381.736 610.086 382.517 602.904 386.145C595.722 389.773 590.176 395.981 587.376 403.525C587.376 403.85 587.376 404.23 587.376 404.556C587.376 404.882 587.376 405.261 586.996 405.587C584.847 413.316 585.693 421.571 589.364 428.704C593.035 435.837 599.262 441.321 606.8 444.063C614.338 446.805 622.632 446.601 630.027 443.493C637.421 440.385 643.371 434.601 646.688 427.297C647.014 426.266 647.285 425.235 647.61 424.203C647.936 423.172 648.153 422.141 648.533 421.11Z" fill="white"/>
<path d="M680.982 309.575C680.982 301.126 677.626 293.022 671.652 287.047C665.679 281.073 657.577 277.716 649.128 277.716C640.68 277.716 632.578 281.073 626.604 287.047C620.631 293.022 617.275 301.126 617.275 309.575V311.801C617.275 320.25 620.631 328.354 626.604 334.328C632.578 340.303 640.68 343.66 649.128 343.66C657.577 343.66 665.679 340.303 671.652 334.328C677.626 328.354 680.982 320.25 680.982 311.801V309.575Z" fill="white"/>
<path d="M686.26 210.851L693.749 186.808C691.634 186.157 689.447 185.774 687.237 185.668C681.711 185.46 676.269 187.074 671.749 190.261C667.229 193.448 663.882 198.032 662.22 203.307C661.57 205.422 661.187 207.61 661.081 209.82C661.012 212.025 661.213 214.231 661.678 216.387C662.636 220.698 664.735 224.672 667.756 227.894C670.733 231.17 674.531 233.592 678.757 234.909C682.983 236.226 687.484 236.389 691.795 235.384C693.92 234.886 695.978 234.139 697.927 233.158C699.887 232.122 701.709 230.846 703.354 229.359C706.558 226.393 708.949 222.656 710.3 218.504L686.26 210.851Z" fill="#7694F0"/>
<path d="M649.578 310.608V285.424C645.174 285.458 640.854 286.636 637.042 288.844C635.051 289.917 633.224 291.269 631.616 292.86C628.476 295.977 626.217 299.869 625.067 304.141C623.918 308.414 623.919 312.915 625.071 317.186C626.222 321.458 628.484 325.349 631.625 328.464C634.767 331.579 638.677 333.808 642.957 334.923C647.217 336.116 651.722 336.116 655.981 334.923C658.104 334.374 660.147 333.553 662.059 332.481L649.578 310.608Z" fill="#7694F0"/>
<path d="M617.394 414.38L625.209 390.445C620.999 389.102 616.515 388.859 612.185 389.74C606.759 390.892 601.865 393.805 598.263 398.025C594.662 402.245 592.555 407.537 592.27 413.078C592.151 415.263 592.334 417.455 592.812 419.591C593.257 421.741 593.987 423.822 594.983 425.778C596.447 428.714 598.476 431.332 600.953 433.484C603.429 435.635 606.306 437.277 609.417 438.316L617.232 414.326L617.394 414.38Z" fill="#7694F0"/>
<path d="M297.985 318.422C297.715 319.447 297.126 320.36 296.303 321.028C295.126 321.69 293.801 322.045 292.45 322.059C291.018 322.161 289.635 322.628 288.434 323.416C288.272 323.735 288.188 324.089 288.188 324.447C288.188 324.805 288.272 325.159 288.434 325.478L290.008 334.271C290.225 334.96 290.225 335.698 290.008 336.387C289.79 336.749 289.499 337.062 289.153 337.305C288.807 337.548 288.415 337.716 288 337.798C284.853 339.047 280.946 340.132 278.45 337.798C277.252 336.469 276.444 334.835 276.116 333.077C272.855 323.22 271.206 312.902 271.232 302.52C271.147 299.381 271.743 296.261 272.979 293.375C274.216 290.489 276.064 287.906 278.395 285.803C282.891 282.647 288.436 281.363 293.861 282.221C295.07 282.364 296.225 282.8 297.227 283.49C298.229 284.181 299.048 285.105 299.613 286.183C300.319 287.757 299.613 289.277 299.613 290.959C299.584 293.429 299.747 295.897 300.102 298.341C300.333 299.477 300.623 300.6 300.97 301.706C301.39 302.639 301.682 303.625 301.838 304.637C301.751 306.545 301.212 308.405 300.264 310.064C299.401 312.04 298.729 314.093 298.257 316.197C298.239 316.946 298.149 317.691 297.985 318.422V318.422Z" fill="#FDB9A9"/>
<path d="M305.048 383.553C305.048 383.553 315.901 395.167 325.018 395.167C334.134 395.167 374.345 357.175 374.345 357.175C376.505 356.149 378.436 354.698 380.021 352.907C381.607 351.116 382.814 349.023 383.57 346.754C383.95 345.18 383.841 343.552 384.113 341.978C384.819 338.801 386.249 335.829 388.291 333.294C388.634 332.948 388.895 332.53 389.055 332.069C389.214 331.609 389.269 331.119 389.214 330.635C388.888 329.441 387.477 329.061 386.283 328.844C382.519 327.741 378.479 328.07 374.942 329.766C372.44 331.813 370.7 334.642 370.004 337.799C368.926 336.243 367.417 335.036 365.663 334.325C365.133 334.633 364.729 335.116 364.52 335.692C364.312 336.268 364.313 336.898 364.523 337.473C364.927 338.622 365.398 339.745 365.934 340.838C366.298 342.895 366.062 345.012 365.254 346.938C364.445 348.863 363.099 350.514 361.376 351.693C359.274 353.321 357.041 354.774 354.701 356.035L330.064 370.418C327.568 371.883 324.638 373.403 321.925 372.046C320.676 371.395 319.808 370.147 318.452 369.55C317.399 369.32 316.304 369.37 315.276 369.693C314.248 370.017 313.322 370.604 312.591 371.395C309.308 374.917 306.745 379.047 305.048 383.553V383.553Z" fill="#FDB9A9"/>
<path d="M206.869 544.315C206.475 547.594 205.374 550.749 203.64 553.56C201.907 556.372 199.583 558.773 196.83 560.597C186.737 565.319 173.768 566.513 162.914 568.847C156.348 570.313 149.782 571.778 143.325 573.515C137.898 574.98 132.092 574.817 128.402 579.594C126.177 582.416 124.712 586.432 121.239 587.246C119.994 587.441 118.719 587.268 117.572 586.747C116.424 586.226 115.454 585.381 114.781 584.315C113.469 582.127 112.723 579.646 112.61 577.097C112.448 576.145 112.448 575.172 112.61 574.22C112.898 573.21 113.418 572.28 114.13 571.507C117.854 568.113 122.369 565.706 127.262 564.505C131.471 563.026 135.554 561.211 139.472 559.078C142.684 557.496 146.024 556.189 149.457 555.17L169.264 547.951C173.93 546.269 180.931 545.618 182.721 540.299C183.393 537.692 183.74 535.012 183.752 532.32C184.134 526.985 185.771 521.815 188.528 517.232C188.863 516.463 189.408 515.805 190.101 515.332C190.918 514.892 191.833 514.667 192.76 514.681C195.29 514.381 197.855 514.678 200.249 515.549C201.805 516.303 203.196 517.358 204.342 518.653C205.487 519.948 206.365 521.457 206.924 523.094C207.968 526.388 208.373 529.851 208.118 533.297C208.02 536.999 207.602 540.685 206.869 544.315V544.315Z" fill="#FDB9A9"/>
<path d="M117.704 569.39C117.378 570.801 116.293 571.941 115.913 573.352C115.696 574.5 115.696 575.678 115.913 576.826L116.944 582.253C116.968 582.824 117.112 583.383 117.366 583.894C117.62 584.405 117.979 584.857 118.419 585.22C118.859 585.583 119.371 585.85 119.921 586.003C120.47 586.156 121.046 586.191 121.611 586.107C121.837 586.123 122.057 586.19 122.255 586.303C122.452 586.416 122.621 586.571 122.75 586.758C122.858 587.056 122.858 587.383 122.75 587.681L121.231 594.574C120.607 597.461 119.603 600.254 118.246 602.878C117.82 602.991 117.371 602.991 116.944 602.878C113.471 602.878 112.114 594.085 110.866 590.775C109.835 587.421 109.557 583.881 110.052 580.408C110.052 578.509 110.378 576.663 110.649 574.981C110.668 573.125 111.017 571.287 111.68 569.553C111.898 569.127 112.234 568.773 112.648 568.532C113.061 568.292 113.536 568.175 114.014 568.196C115.099 568.251 118.084 567.816 117.704 569.39Z" fill="#7694F0"/>
<path d="M264.819 545.346C266.713 548.105 267.968 551.251 268.494 554.556C269.019 557.86 268.802 561.241 267.858 564.451C263.245 574.546 254.129 583.936 247.454 592.728C243.33 598.156 239.314 603.583 235.461 609.011C232.314 613.624 227.81 617.26 228.081 623.285C228.081 626.867 229.709 630.883 227.593 633.76C226.765 634.713 225.678 635.406 224.464 635.753C223.25 636.1 221.962 636.086 220.755 635.714C218.351 634.902 216.188 633.503 214.461 631.643C213.746 631.005 213.141 630.253 212.67 629.418C212.229 628.448 212.024 627.388 212.073 626.324C212.674 621.324 214.542 616.56 217.499 612.484C219.645 608.572 221.46 604.487 222.926 600.272C224.335 596.958 226.042 593.779 228.027 590.774L238.392 572.429C240.888 568.142 245.826 563.094 243.818 557.884C242.643 555.464 241.166 553.203 239.423 551.154C236.27 546.845 234.153 541.868 233.236 536.608C233.074 535.784 233.074 534.936 233.236 534.111C233.563 533.248 234.105 532.482 234.81 531.886C236.575 530.021 238.748 528.59 241.159 527.707C242.824 527.259 244.562 527.153 246.269 527.395C247.976 527.638 249.616 528.224 251.09 529.118C254.035 530.917 256.598 533.277 258.633 536.065C260.955 538.977 263.024 542.082 264.819 545.346V545.346Z" fill="#FDB9A9"/>
<path d="M213.263 622.254C213.914 623.556 213.86 625.13 214.511 626.433C215.116 627.428 215.931 628.28 216.898 628.929L221.077 632.349C221.564 632.773 222.113 633.121 222.705 633.38C223.481 633.507 224.276 633.476 225.04 633.29C225.805 633.103 226.524 632.765 227.155 632.294C227.275 632.148 227.432 632.038 227.61 631.976C227.789 631.913 227.981 631.901 228.165 631.94C228.35 631.979 228.521 632.068 228.658 632.198C228.796 632.327 228.895 632.492 228.945 632.674L232.256 638.97C233.678 641.543 234.738 644.302 235.403 647.166C235.207 647.578 234.908 647.934 234.535 648.197C231.821 650.422 225.147 644.615 222.108 642.77C219.119 641.006 216.546 638.618 214.565 635.768C213.48 634.248 212.449 632.674 211.418 631.155C210.303 629.769 209.424 628.211 208.813 626.541C208.703 626.056 208.73 625.55 208.894 625.08C209.057 624.609 209.348 624.194 209.735 623.882C210.441 623.068 212.449 620.843 213.263 622.254Z" fill="#7694F0"/>
<path d="M318.651 369.821C318.439 370.537 318.001 371.165 317.403 371.613C313.279 375.575 309.101 379.428 305.031 383.39C303.718 384.646 302.302 385.79 300.798 386.809C299.442 387.624 297.976 388.166 296.62 388.98C296.16 389.271 295.725 389.598 295.317 389.957C292.441 392.599 290.213 395.867 288.805 399.51C287.774 401.735 286.798 404.069 285.984 406.403C283.81 412.466 282.194 418.716 281.154 425.073C274.914 461.329 283.053 498.29 287.286 534.654C287.829 538.67 288.209 542.686 288.534 546.703C288.534 548.385 288.86 550.122 288.968 551.859C289.251 553.397 289.002 554.986 288.263 556.364C287.395 557.383 286.242 558.12 284.953 558.48C266.611 565.916 245.936 571.778 227.323 565.156C215.276 560.868 205.617 551.859 195.089 544.586C184.562 537.313 171.429 531.669 159.111 535.251C159.255 526.373 162.543 517.834 168.39 511.153C170.389 508.512 172.584 506.027 174.957 503.717L179.84 498.887C196.12 482.984 210.066 469.253 218.803 446.946C222.33 437.882 223.036 427.244 229.005 419.32C234.432 412.536 238.61 411.83 239.858 402.712C241.491 391.314 244.087 380.075 247.618 369.116C250.876 359.182 256.016 349.968 262.758 341.979C265.653 338.276 269.181 335.116 273.177 332.643C277.211 330.149 281.999 329.168 286.689 329.875C289.011 330.265 291.19 331.257 293.009 332.752C294.828 334.247 296.222 336.193 297.054 338.396C301.232 350.717 312.085 356.09 318 367.759C318.458 368.346 318.69 369.078 318.651 369.821Z" fill="#8AA4F2"/>
<path d="M302.861 281.68C302.425 283.585 301.522 285.351 300.234 286.819C298.945 288.288 297.312 289.413 295.481 290.093C287.069 293.404 275.457 292.047 277.79 304.041C280.054 312.837 279.329 322.136 275.728 330.473C273.391 333.534 271.76 337.074 270.953 340.84C271.006 342.503 271.224 344.158 271.604 345.779C272.809 352.796 271.21 360.006 267.149 365.854C263.089 371.702 256.893 375.72 249.898 377.041C248.86 377.247 247.807 377.374 246.75 377.421C243.575 377.19 240.392 377.73 237.471 378.995C234.832 381.212 232.938 384.187 232.044 387.516C230.914 391.018 228.782 394.113 225.912 396.417C220.106 400.325 212.346 397.937 205.834 395.277C200.91 393.527 196.281 391.038 192.105 387.896C190.023 386.31 188.292 384.309 187.022 382.021C185.752 379.732 184.97 377.205 184.725 374.598C185.213 371.21 185.158 367.766 184.562 364.395C183.404 362.499 182.117 360.686 180.709 358.967C179.474 356.023 178.981 352.819 179.275 349.639C179.568 346.459 180.638 343.4 182.391 340.731C182.984 339.791 183.372 338.737 183.531 337.637C183.446 336.572 183.189 335.527 182.771 334.544C182.157 330.918 182.728 327.191 184.4 323.916C186.072 320.64 188.754 317.991 192.051 316.362C198.724 313.3 205.764 311.111 212.997 309.849C218.338 308.49 223.286 305.896 227.442 302.276C231.599 298.657 234.848 294.112 236.928 289.007C241.107 280.106 244.634 270.391 254.185 265.941C261.476 263.142 269.336 262.149 277.094 263.046C284.852 263.944 292.277 266.706 298.736 271.097C300.441 272.211 301.755 273.83 302.494 275.727C303.234 277.625 303.362 279.706 302.861 281.68V281.68Z" fill="#473F47"/>
<path d="M300.819 386.973C299.462 387.787 297.997 388.329 296.64 389.144C296.172 389.421 295.735 389.748 295.338 390.12C290.608 394.443 287.345 400.136 286.004 406.403C283.832 412.49 282.198 418.755 281.121 425.128C278.664 441.638 278.172 458.38 279.655 475.006C280.429 481.058 280.246 487.193 279.113 493.188C271.907 484.691 267.325 474.282 265.926 463.228C265.167 457.204 265.384 451.017 264.135 445.046C263.159 440.759 261.422 436.634 260.717 432.292C260.743 432.076 260.743 431.857 260.717 431.641C259.577 423.825 262.616 422.685 267.012 418.181C271.296 413.516 274.484 407.953 276.345 401.898C279.963 391.043 283.743 380.351 287.687 369.822C286.873 372.698 297.454 381.599 300.819 386.973Z" fill="url(#paint3_linear_1_621)"/>
<path opacity="0.38" d="M288.59 546.864C269.813 552.574 249.693 552.06 231.232 545.399C224.27 543.052 217.836 539.365 212.293 534.544C210.177 532.59 208.277 530.419 206.107 528.573C202.799 525.865 199.15 523.602 195.254 521.843C186.842 517.827 178.051 515.276 169.532 511.803L168.609 511.423C170.623 508.795 172.817 506.31 175.175 503.987L180.113 499.156H181.199C186.638 499.897 191.95 501.376 196.99 503.553C205.04 508.166 212.651 513.507 219.727 519.51C226.843 524.293 234.36 528.451 242.193 531.938C247.129 534.475 252.36 536.389 257.767 537.637C263.163 538.38 268.626 538.489 274.047 537.963C278.682 538.071 283.264 536.967 287.342 534.761C287.83 538.831 288.21 542.793 288.59 546.864Z" fill="white"/>
<path opacity="0.18" d="M385.566 310.717L417.854 222.032H552.27L517.16 313.105L385.566 310.717Z" fill="#7694F0"/>
<path d="M565.399 54.4316L621.021 80.1578L611.633 112.94L565.399 54.4316Z" fill="#7694F0"/>
<path d="M565.399 54.4316H652.061L625.688 70.5512L565.399 54.4316Z" fill="#7694F0"/>
<path d="M635.727 94.6492L621.021 80.1578L565.399 54.4316L625.688 70.5512L635.727 94.6492Z" fill="#7694F0"/>
<path d="M635.727 94.6492L621.021 80.1578L565.399 54.4316L625.688 70.5512L635.727 94.6492Z" fill="url(#paint4_linear_1_621)"/>
<path d="M635.727 94.6492L621.021 80.1578L565.399 54.4316L635.727 94.6492Z" fill="#7694F0"/>
<defs>
<filter id="filter0_d_1_621" x="0" y="0" width="926.975" height="717" filterUnits="userSpaceOnUse" color-interpolation-filters="sRGB">
<feFlood flood-opacity="0" result="BackgroundImageFix"/>
<feColorMatrix in="SourceAlpha" type="matrix" values="0 0 0 0 0 0 0 0 0 0 0 0 0 0 0 0 0 0 127 0" result="hardAlpha"/>
<feOffset dx="4" dy="8"/>
<feGaussianBlur stdDeviation="8"/>
<feColorMatrix type="matrix" values="0 0 0 0 0.0117647 0 0 0 0 0.0117647 0 0 0 0 0.0117647 0 0 0 0.1 0"/>
<feBlend mode="normal" in2="BackgroundImageFix" result="effect1_dropShadow_1_621"/>
<feBlend mode="normal" in="SourceGraphic" in2="effect1_dropShadow_1_621" result="shape"/>
</filter>
<linearGradient id="paint0_linear_1_621" x1="906.975" y1="350.5" x2="12" y2="350.5" gradientUnits="userSpaceOnUse">
<stop stop-color="#DD558A"/>
<stop offset="1" stop-color="#6752E6"/>
</linearGradient>
<linearGradient id="paint1_linear_1_621" x1="209.332" y1="143.553" x2="350.583" y2="471.097" gradientUnits="userSpaceOnUse">
<stop offset="0.01"/>
<stop offset="0.08" stop-opacity="0.69"/>
<stop offset="0.21" stop-opacity="0.32"/>
<stop offset="1" stop-opacity="0"/>
</linearGradient>
<linearGradient id="paint2_linear_1_621" x1="-16006.7" y1="6156.03" x2="-13114.7" y2="2537.03" gradientUnits="userSpaceOnUse">
<stop offset="0.01"/>
<stop offset="0.08" stop-opacity="0.69"/>
<stop offset="0.21" stop-opacity="0.32"/>
<stop offset="1" stop-opacity="0"/>
</linearGradient>
<linearGradient id="paint3_linear_1_621" x1="179.807" y1="408.737" x2="415.214" y2="460.715" gradientUnits="userSpaceOnUse">
<stop offset="0.01"/>
<stop offset="0.13" stop-opacity="0.69"/>
<stop offset="0.25" stop-opacity="0.32"/>
<stop offset="1" stop-opacity="0"/>
</linearGradient>
<linearGradient id="paint4_linear_1_621" x1="8416.2" y1="-4777.57" x2="8514.18" y2="-3495.97" gradientUnits="userSpaceOnUse">
<stop offset="0.01"/>
<stop offset="0.08" stop-opacity="0.69"/>
<stop offset="0.21" stop-opacity="0.32"/>
<stop offset="1" stop-opacity="0"/>
</linearGradient>
</defs>
</svg>
