<svg width="805" height="577" viewBox="0 0 805 577" fill="none" xmlns="http://www.w3.org/2000/svg">
<g filter="url(#filter0_d_1_471)">
<path d="M137.207 207.962C131.331 201.599 126.233 194.428 123.576 186.415C117.668 168.495 124.716 149.229 133.421 132.303C141.769 116.055 156.432 94.9064 156.738 76.5414C156.796 73.2252 155.846 69.9733 155.285 66.6922C154.123 59.5518 154.753 52.262 157.126 45.3788C159.499 38.4955 163.553 32.2005 168.98 26.9736C177.663 18.9013 189.197 13.9347 201.511 12.9659C240.116 9.73743 281.881 24.3124 306.224 27.2368C334.301 30.6524 363.022 22.5578 390.978 26.6519C415.875 30.3132 439.989 19.6335 452.957 39.4898C465.925 59.3462 467.282 109.382 457.609 130.73C454.034 138.626 448.917 145.972 446.495 154.23C443.838 163.313 444.584 172.946 446.374 182.222C447.783 189.615 449.815 197.101 448.726 204.541C447.451 213.39 441.812 221.28 434.916 227.573C415.831 244.996 387.288 251.4 360.422 249.909C333.556 248.418 307.798 239.908 282.678 231.07C276.643 228.947 270.57 226.789 264.197 225.806C256.901 224.683 249.439 225.14 242.072 225.713C221.432 227.315 199.835 233.123 179.316 233.439C163.225 233.726 146.937 218.49 137.207 207.962Z" fill="white"/>
<path d="M137.207 207.962C131.331 201.599 126.233 194.428 123.576 186.415C117.668 168.495 124.716 149.229 133.421 132.303C141.769 116.055 156.432 94.9064 156.738 76.5414C156.796 73.2252 155.846 69.9733 155.285 66.6922C154.123 59.5518 154.753 52.262 157.126 45.3788C159.499 38.4955 163.553 32.2005 168.98 26.9736C177.663 18.9013 189.197 13.9347 201.511 12.9659C240.116 9.73743 281.881 24.3124 306.224 27.2368C334.301 30.6524 363.022 22.5578 390.978 26.6519C415.875 30.3132 439.989 19.6335 452.957 39.4898C465.925 59.3462 467.282 109.382 457.609 130.73C454.034 138.626 448.917 145.972 446.495 154.23C443.838 163.313 444.584 172.946 446.374 182.222C447.783 189.615 449.815 197.101 448.726 204.541C447.451 213.39 441.812 221.28 434.916 227.573C415.831 244.996 387.288 251.4 360.422 249.909C333.556 248.418 307.798 239.908 282.678 231.07C276.643 228.947 270.57 226.789 264.197 225.806C256.901 224.683 249.439 225.14 242.072 225.713C221.432 227.315 199.835 233.123 179.316 233.439C163.225 233.726 146.937 218.49 137.207 207.962Z" fill="url(#paint0_linear_1_471)"/>
</g>
<path d="M366.355 124.255C366.729 122.473 367.103 120.689 367.477 118.904C367.687 117.903 367.872 116.892 368.114 115.78C369.93 116.073 371.702 116.324 373.454 116.646C373.572 116.688 373.699 116.707 373.825 116.701C373.952 116.696 374.075 116.666 374.189 116.615C374.302 116.563 374.402 116.49 374.483 116.401C374.564 116.312 374.624 116.208 374.659 116.096C375.449 114.681 376.335 113.306 377.265 111.967C377.347 111.887 377.41 111.792 377.45 111.689C377.491 111.586 377.508 111.476 377.501 111.367C377.494 111.258 377.462 111.151 377.409 111.053C377.355 110.955 377.28 110.868 377.189 110.797C376.01 109.557 374.869 108.282 373.652 106.949L381.267 101.1C382.44 102.381 383.612 103.627 384.727 104.908C384.794 105.014 384.884 105.107 384.991 105.181C385.099 105.254 385.222 105.306 385.352 105.333C385.483 105.361 385.618 105.363 385.75 105.34C385.881 105.317 386.006 105.27 386.117 105.2C387.647 104.578 389.22 104.049 390.826 103.615C391.559 103.422 391.737 103.153 391.718 102.515C391.68 100.919 391.718 99.3221 391.718 97.6669H401.653C401.653 99.3045 401.691 100.919 401.653 102.533C401.653 103.188 401.837 103.428 402.551 103.621C404.154 104.06 405.724 104.592 407.254 105.212C407.366 105.28 407.492 105.327 407.624 105.348C407.756 105.369 407.891 105.365 408.022 105.335C408.152 105.305 408.274 105.251 408.38 105.175C408.486 105.099 408.573 105.004 408.637 104.896C409.739 103.633 410.899 102.404 412.091 101.106L419.7 106.955L415.8 111.242C416.857 112.996 417.845 114.751 418.897 116.4C419.02 116.502 419.166 116.577 419.325 116.619C419.484 116.662 419.651 116.671 419.814 116.646C421.586 116.394 423.351 116.09 425.244 115.786C425.824 118.792 426.391 121.723 426.971 124.758C425.123 125.056 423.326 125.343 421.535 125.659C421.242 125.717 420.802 125.969 420.764 126.185C420.407 128.08 420.127 129.993 419.802 132.034L425.046 134.824L420.076 142.72L414.805 139.936C413.098 141.187 411.441 142.38 409.829 143.614C409.739 143.723 409.678 143.849 409.65 143.983C409.623 144.117 409.629 144.255 409.669 144.386C410.268 146.001 410.944 147.597 411.581 149.27L402.252 152.387C401.672 150.937 401.054 149.522 400.557 148.065C400.263 147.223 399.862 146.96 398.855 147.042C397.245 147.144 395.629 147.144 394.018 147.042C393.912 147.019 393.801 147.015 393.693 147.033C393.585 147.05 393.481 147.087 393.389 147.141C393.297 147.196 393.218 147.267 393.156 147.35C393.094 147.434 393.052 147.528 393.031 147.627C392.444 149.188 391.807 150.726 391.119 152.382L381.771 149.235L383.854 143.93L378.591 139.836L373.263 142.649L368.293 134.754C369.93 133.882 371.479 133.046 373.053 132.244C373.165 132.206 373.268 132.147 373.354 132.071C373.44 131.995 373.509 131.903 373.555 131.801C373.601 131.7 373.623 131.591 373.622 131.481C373.62 131.371 373.593 131.263 373.544 131.162C373.172 129.695 372.883 128.212 372.677 126.717C372.575 125.992 372.39 125.635 371.504 125.548C369.784 125.361 368.076 125.021 366.362 124.746L366.355 124.255ZM396.771 113.377C389.94 113.213 384.16 118.365 383.944 124.817C383.721 131.162 389.398 136.514 396.516 136.666C399.881 136.697 403.122 135.5 405.525 133.338C407.929 131.176 409.298 128.227 409.332 125.138C409.365 122.05 408.061 119.076 405.706 116.87C403.35 114.664 400.136 113.408 396.771 113.377V113.377Z" fill="#6752E5"/>
<path d="M366.355 124.255C366.729 122.473 367.103 120.689 367.477 118.904C367.687 117.903 367.872 116.892 368.114 115.78C369.93 116.073 371.702 116.324 373.454 116.646C373.572 116.688 373.699 116.707 373.825 116.701C373.952 116.696 374.075 116.666 374.189 116.615C374.302 116.563 374.402 116.49 374.483 116.401C374.564 116.312 374.624 116.208 374.659 116.096C375.449 114.681 376.335 113.306 377.265 111.967C377.347 111.887 377.41 111.792 377.45 111.689C377.491 111.586 377.508 111.476 377.501 111.367C377.494 111.258 377.462 111.151 377.409 111.053C377.355 110.955 377.28 110.868 377.189 110.797C376.01 109.557 374.869 108.282 373.652 106.949L381.267 101.1C382.44 102.381 383.612 103.627 384.727 104.908C384.794 105.014 384.884 105.107 384.991 105.181C385.099 105.254 385.222 105.306 385.352 105.333C385.483 105.361 385.618 105.363 385.75 105.34C385.881 105.317 386.006 105.27 386.117 105.2C387.647 104.578 389.22 104.049 390.826 103.615C391.559 103.422 391.737 103.153 391.718 102.515C391.68 100.919 391.718 99.3221 391.718 97.6669H401.653C401.653 99.3045 401.691 100.919 401.653 102.533C401.653 103.188 401.837 103.428 402.551 103.621C404.154 104.06 405.724 104.592 407.254 105.212C407.366 105.28 407.492 105.327 407.624 105.348C407.756 105.369 407.891 105.365 408.022 105.335C408.152 105.305 408.274 105.251 408.38 105.175C408.486 105.099 408.573 105.004 408.637 104.896C409.739 103.633 410.899 102.404 412.091 101.106L419.7 106.955L415.8 111.242C416.857 112.996 417.845 114.751 418.897 116.4C419.02 116.502 419.166 116.577 419.325 116.619C419.484 116.662 419.651 116.671 419.814 116.646C421.586 116.394 423.351 116.09 425.244 115.786C425.824 118.792 426.391 121.723 426.971 124.758C425.123 125.056 423.326 125.343 421.535 125.659C421.242 125.717 420.802 125.969 420.764 126.185C420.407 128.08 420.127 129.993 419.802 132.034L425.046 134.824L420.076 142.72L414.805 139.936C413.098 141.187 411.441 142.38 409.829 143.614C409.739 143.723 409.678 143.849 409.65 143.983C409.623 144.117 409.629 144.255 409.669 144.386C410.268 146.001 410.944 147.597 411.581 149.27L402.252 152.387C401.672 150.937 401.054 149.522 400.557 148.065C400.263 147.223 399.862 146.96 398.855 147.042C397.245 147.144 395.629 147.144 394.018 147.042C393.912 147.019 393.801 147.015 393.693 147.033C393.585 147.05 393.481 147.087 393.389 147.141C393.297 147.196 393.218 147.267 393.156 147.35C393.094 147.434 393.052 147.528 393.031 147.627C392.444 149.188 391.807 150.726 391.119 152.382L381.771 149.235L383.854 143.93L378.591 139.836L373.263 142.649L368.293 134.754C369.93 133.882 371.479 133.046 373.053 132.244C373.165 132.206 373.268 132.147 373.354 132.071C373.44 131.995 373.509 131.903 373.555 131.801C373.601 131.7 373.623 131.591 373.622 131.481C373.62 131.371 373.593 131.263 373.544 131.162C373.172 129.695 372.883 128.212 372.677 126.717C372.575 125.992 372.39 125.635 371.504 125.548C369.784 125.361 368.076 125.021 366.362 124.746L366.355 124.255ZM396.771 113.377C389.94 113.213 384.16 118.365 383.944 124.817C383.721 131.162 389.398 136.514 396.516 136.666C399.881 136.697 403.122 135.5 405.525 133.338C407.929 131.176 409.298 128.227 409.332 125.138C409.365 122.05 408.061 119.076 405.706 116.87C403.35 114.664 400.136 113.408 396.771 113.377V113.377Z" fill="url(#paint1_linear_1_471)"/>
<path fill-rule="evenodd" clip-rule="evenodd" d="M207.664 60.4575H379.479C385.117 60.4575 389.688 64.6524 389.688 69.8272V165.109C389.688 168.905 387.227 172.174 383.69 173.646L418.07 198.312H167.873L203.53 173.678C199.951 172.222 197.455 168.933 197.455 165.109V69.8272C197.455 64.6524 202.026 60.4575 207.664 60.4575Z" fill="url(#paint2_linear_1_471)"/>
<path d="M373.824 64.8673H211.702C206.38 64.8673 202.066 68.8266 202.066 73.7106V163.611C202.066 168.495 206.38 172.454 211.702 172.454H373.824C379.145 172.454 383.459 168.495 383.459 163.611V73.7106C383.459 68.8266 379.145 64.8673 373.824 64.8673Z" fill="white"/>
<g opacity="0.52">
<path opacity="0.52" d="M271.108 75.1611H228.043V78.0621H271.108V75.1611Z" fill="#6752E5"/>
<path opacity="0.52" d="M254.329 80.77H228.043V83.4955H254.329V80.77Z" fill="#6752E5"/>
<path opacity="0.52" d="M347.648 80.77H264.934V83.5072H347.648V80.77Z" fill="#6752E5"/>
<path opacity="0.52" d="M277.858 86.3906H241.713V89.2623H277.858V86.3906Z" fill="#6752E5"/>
<path opacity="0.52" d="M296.384 91.9995H253.318V94.9005H296.384V91.9995Z" fill="#6752E5"/>
<path opacity="0.52" d="M335.287 91.9995H299.193V95.2163H335.287V91.9995Z" fill="#6752E5"/>
<path opacity="0.52" d="M286.51 97.6086H253.252V100.334H286.51V97.6086Z" fill="#6752E5"/>
<path opacity="0.52" d="M358.316 97.6086H289.697V100.627H358.316V97.6086Z" fill="#6752E5"/>
<path opacity="0.52" d="M271.108 105.2H228.043V108.101H271.108V105.2Z" fill="#6752E5"/>
<path opacity="0.52" d="M254.329 110.809H228.043V113.534H254.329V110.809Z" fill="#6752E5"/>
<path opacity="0.52" d="M347.648 110.809H264.934V113.546H347.648V110.809Z" fill="#6752E5"/>
<path opacity="0.52" d="M277.858 116.418H241.713V119.29H277.858V116.418Z" fill="#6752E5"/>
<path opacity="0.52" d="M296.384 122.045H253.318V124.946H296.384V122.045Z" fill="#6752E5"/>
<path opacity="0.52" d="M335.287 122.045H299.193V125.262H335.287V122.045Z" fill="#6752E5"/>
<path opacity="0.52" d="M286.51 127.653H253.252V130.379H286.51V127.653Z" fill="#6752E5"/>
<path opacity="0.52" d="M358.316 127.653H289.697V130.671H358.316V127.653Z" fill="#6752E5"/>
<path opacity="0.52" d="M271.108 135.239H228.043V138.14H271.108V135.239Z" fill="#6752E5"/>
<path opacity="0.52" d="M254.329 140.848H228.043V143.574H254.329V140.848Z" fill="#6752E5"/>
<path opacity="0.52" d="M347.648 140.848H264.934V143.585H347.648V140.848Z" fill="#6752E5"/>
<path opacity="0.52" d="M277.858 146.457H241.713V149.329H277.858V146.457Z" fill="#6752E5"/>
<path opacity="0.52" d="M296.384 152.066H253.318V154.967H296.384V152.066Z" fill="#6752E5"/>
<path opacity="0.52" d="M335.287 152.066H299.193V155.283H335.287V152.066Z" fill="#6752E5"/>
<path opacity="0.52" d="M286.51 157.692H253.252V160.418H286.51V157.692Z" fill="#6752E5"/>
<path opacity="0.52" d="M358.316 157.692H289.697V160.71H358.316V157.692Z" fill="#6752E5"/>
</g>
<path opacity="0.26" d="M182.875 190.556L205.74 192.568C206.294 192.615 206.938 192.72 207.193 193.153C207.292 193.394 207.293 193.66 207.194 193.901C207.096 194.142 206.905 194.342 206.657 194.463C206.152 194.694 205.59 194.803 205.026 194.779L180.925 195.68C179.771 195.811 178.599 195.676 177.516 195.288C176.471 194.826 175.693 193.679 176.108 192.685C176.598 191.515 178.236 191.287 179.593 191.229" fill="url(#paint3_linear_1_471)"/>
<path d="M178.114 207.342L167.873 198.312H418.07L408.83 207.892L178.114 207.342Z" fill="#6752E5"/>
<path d="M178.114 207.342L167.873 198.312H418.07L408.83 207.892L178.114 207.342Z" fill="url(#paint4_linear_1_471)"/>
<g opacity="0.24">
<path opacity="0.5" d="M370.385 35.7481V69.6242C370.385 71.6147 369.294 73.5239 367.353 74.9319C365.412 76.34 362.779 77.1319 360.032 77.1334H310.784L296.252 87.6661L284.894 77.1334H234.489C233.13 77.1326 231.784 76.9378 230.529 76.5599C229.274 76.182 228.134 75.6286 227.174 74.9312C226.214 74.2339 225.453 73.4062 224.934 72.4956C224.416 71.585 224.15 70.6093 224.152 69.6242V35.7481C224.161 33.7636 225.253 31.8622 227.19 30.4595C229.127 29.0568 231.751 28.2668 234.489 28.2622H360.032C362.772 28.2668 365.398 29.0564 367.337 30.4588C369.277 31.8612 370.372 33.7626 370.385 35.7481V35.7481Z" fill="#6752E5"/>
</g>
<path d="M234.505 27.5499H360.033C362.804 27.5499 365.291 28.3181 367.071 29.5341C368.853 30.7518 369.885 32.3826 369.885 34.1221V66.046C369.885 67.7854 368.853 69.4162 367.071 70.6339C365.291 71.85 362.804 72.6182 360.033 72.6182H234.505C231.733 72.6182 229.246 71.85 227.466 70.6339C225.684 69.4162 224.652 67.7854 224.652 66.046V34.1221C224.652 32.3826 225.684 30.7518 227.466 29.5341C229.246 28.3181 231.733 27.5499 234.505 27.5499Z" fill="white" stroke="#EFF2FD"/>
<path d="M256.991 54.2977C256.943 54.2977 256.891 54.2817 256.835 54.2497C256.787 54.2177 256.743 54.1937 256.703 54.1777L252.923 51.5737C252.803 51.4937 252.715 51.4137 252.659 51.3337C252.603 51.2457 252.575 51.1457 252.575 51.0337V50.8177C252.575 50.7057 252.603 50.6097 252.659 50.5297C252.715 50.4497 252.803 50.3657 252.923 50.2777L256.703 47.6857C256.743 47.6617 256.787 47.6337 256.835 47.6017C256.891 47.5697 256.943 47.5537 256.991 47.5537C257.055 47.5537 257.111 47.5777 257.159 47.6257C257.207 47.6657 257.231 47.7257 257.231 47.8057V48.3337C257.231 48.4217 257.207 48.4977 257.159 48.5617C257.111 48.6177 257.043 48.6737 256.955 48.7297L253.739 50.9257L256.955 53.1217C257.043 53.1857 257.111 53.2457 257.159 53.3017C257.207 53.3577 257.231 53.4337 257.231 53.5297V54.0577C257.231 54.1297 257.207 54.1897 257.159 54.2377C257.111 54.2777 257.055 54.2977 256.991 54.2977ZM261.794 54.7177C261.098 54.7177 260.514 54.6137 260.042 54.4057C259.57 54.1897 259.206 53.9137 258.95 53.5777C258.702 53.2337 258.57 52.8697 258.554 52.4857C258.554 52.4217 258.578 52.3657 258.626 52.3177C258.682 52.2617 258.746 52.2337 258.818 52.2337H259.43C259.526 52.2337 259.598 52.2577 259.646 52.3057C259.694 52.3537 259.726 52.4097 259.742 52.4737C259.782 52.6657 259.878 52.8577 260.03 53.0497C260.19 53.2337 260.41 53.3897 260.69 53.5177C260.978 53.6377 261.346 53.6977 261.794 53.6977C262.482 53.6977 262.986 53.5777 263.306 53.3377C263.634 53.0897 263.798 52.7617 263.798 52.3537C263.798 52.0737 263.71 51.8497 263.534 51.6817C263.366 51.5057 263.106 51.3497 262.754 51.2137C262.402 51.0777 261.946 50.9297 261.386 50.7697C260.802 50.6017 260.318 50.4177 259.934 50.2177C259.55 50.0177 259.262 49.7697 259.07 49.4737C258.886 49.1777 258.794 48.8017 258.794 48.3457C258.794 47.9137 258.91 47.5297 259.142 47.1937C259.374 46.8497 259.706 46.5777 260.138 46.3777C260.578 46.1777 261.11 46.0777 261.734 46.0777C262.23 46.0777 262.662 46.1457 263.03 46.2817C263.406 46.4097 263.718 46.5857 263.966 46.8097C264.214 47.0257 264.402 47.2617 264.53 47.5177C264.658 47.7657 264.726 48.0097 264.734 48.2497C264.734 48.3057 264.714 48.3617 264.674 48.4177C264.634 48.4657 264.57 48.4897 264.482 48.4897H263.846C263.79 48.4897 263.73 48.4737 263.666 48.4417C263.61 48.4097 263.566 48.3497 263.534 48.2617C263.486 47.9337 263.302 47.6577 262.982 47.4337C262.662 47.2097 262.246 47.0977 261.734 47.0977C261.214 47.0977 260.79 47.1977 260.462 47.3977C260.142 47.5977 259.982 47.9097 259.982 48.3337C259.982 48.6057 260.058 48.8337 260.21 49.0177C260.362 49.1937 260.602 49.3497 260.93 49.4857C261.258 49.6217 261.686 49.7657 262.214 49.9177C262.854 50.0937 263.378 50.2817 263.786 50.4817C264.194 50.6737 264.494 50.9177 264.686 51.2137C264.886 51.5017 264.986 51.8737 264.986 52.3297C264.986 52.8337 264.854 53.2657 264.59 53.6257C264.326 53.9777 263.954 54.2497 263.474 54.4417C263.002 54.6257 262.442 54.7177 261.794 54.7177ZM268.922 54.7177C268.354 54.7177 267.862 54.6097 267.446 54.3937C267.038 54.1697 266.722 53.8537 266.498 53.4457C266.274 53.0297 266.154 52.5337 266.138 51.9577C266.13 51.8377 266.126 51.6777 266.126 51.4777C266.126 51.2777 266.13 51.1177 266.138 50.9977C266.154 50.4217 266.274 49.9297 266.498 49.5217C266.722 49.1057 267.038 48.7897 267.446 48.5737C267.862 48.3497 268.354 48.2377 268.922 48.2377C269.386 48.2377 269.782 48.3017 270.11 48.4297C270.446 48.5577 270.722 48.7217 270.938 48.9217C271.154 49.1217 271.314 49.3377 271.418 49.5697C271.53 49.8017 271.59 50.0217 271.598 50.2297C271.606 50.3097 271.582 50.3737 271.526 50.4217C271.47 50.4697 271.402 50.4937 271.322 50.4937H270.746C270.666 50.4937 270.606 50.4777 270.566 50.4457C270.526 50.4057 270.486 50.3417 270.446 50.2537C270.302 49.8617 270.106 49.5857 269.858 49.4257C269.61 49.2657 269.302 49.1857 268.934 49.1857C268.454 49.1857 268.062 49.3337 267.758 49.6297C267.462 49.9257 267.302 50.4017 267.278 51.0577C267.27 51.3457 267.27 51.6257 267.278 51.8977C267.302 52.5617 267.462 53.0417 267.758 53.3377C268.062 53.6257 268.454 53.7697 268.934 53.7697C269.302 53.7697 269.61 53.6897 269.858 53.5297C270.106 53.3697 270.302 53.0937 270.446 52.7017C270.486 52.6137 270.526 52.5537 270.566 52.5217C270.606 52.4817 270.666 52.4617 270.746 52.4617H271.322C271.402 52.4617 271.47 52.4857 271.526 52.5337C271.582 52.5817 271.606 52.6457 271.598 52.7257C271.59 52.8937 271.554 53.0657 271.49 53.2417C271.426 53.4177 271.322 53.5977 271.178 53.7817C271.042 53.9577 270.87 54.1177 270.662 54.2617C270.454 54.3977 270.202 54.5097 269.906 54.5977C269.618 54.6777 269.29 54.7177 268.922 54.7177ZM273.3 54.5977C273.22 54.5977 273.152 54.5737 273.096 54.5257C273.048 54.4697 273.024 54.4017 273.024 54.3217V48.6457C273.024 48.5657 273.048 48.4977 273.096 48.4417C273.152 48.3857 273.22 48.3577 273.3 48.3577H273.852C273.932 48.3577 274 48.3857 274.056 48.4417C274.112 48.4977 274.14 48.5657 274.14 48.6457V49.1737C274.3 48.9017 274.52 48.6977 274.8 48.5617C275.08 48.4257 275.416 48.3577 275.808 48.3577H276.288C276.368 48.3577 276.432 48.3857 276.48 48.4417C276.528 48.4897 276.552 48.5537 276.552 48.6337V49.1257C276.552 49.2057 276.528 49.2697 276.48 49.3177C276.432 49.3657 276.368 49.3897 276.288 49.3897H275.568C275.136 49.3897 274.796 49.5177 274.548 49.7737C274.3 50.0217 274.176 50.3617 274.176 50.7937V54.3217C274.176 54.4017 274.148 54.4697 274.092 54.5257C274.036 54.5737 273.968 54.5977 273.888 54.5977H273.3ZM277.858 54.5977C277.778 54.5977 277.71 54.5737 277.654 54.5257C277.606 54.4697 277.582 54.4017 277.582 54.3217V48.6337C277.582 48.5537 277.606 48.4897 277.654 48.4417C277.71 48.3857 277.778 48.3577 277.858 48.3577H278.434C278.514 48.3577 278.578 48.3857 278.626 48.4417C278.674 48.4897 278.698 48.5537 278.698 48.6337V54.3217C278.698 54.4017 278.674 54.4697 278.626 54.5257C278.578 54.5737 278.514 54.5977 278.434 54.5977H277.858ZM277.762 47.1937C277.682 47.1937 277.614 47.1697 277.558 47.1217C277.51 47.0657 277.486 46.9977 277.486 46.9177V46.2697C277.486 46.1897 277.51 46.1257 277.558 46.0777C277.614 46.0217 277.682 45.9937 277.762 45.9937H278.518C278.598 45.9937 278.662 46.0217 278.71 46.0777C278.766 46.1257 278.794 46.1897 278.794 46.2697V46.9177C278.794 46.9977 278.766 47.0657 278.71 47.1217C278.662 47.1697 278.598 47.1937 278.518 47.1937H277.762ZM280.894 56.8777C280.814 56.8777 280.746 56.8497 280.69 56.7937C280.642 56.7457 280.618 56.6817 280.618 56.6017V48.6337C280.618 48.5537 280.642 48.4897 280.69 48.4417C280.746 48.3857 280.814 48.3577 280.894 48.3577H281.446C281.526 48.3577 281.59 48.3857 281.638 48.4417C281.694 48.4897 281.722 48.5537 281.722 48.6337V49.1617C281.914 48.8977 282.17 48.6777 282.49 48.5017C282.81 48.3257 283.21 48.2377 283.69 48.2377C284.138 48.2377 284.518 48.3137 284.83 48.4657C285.15 48.6177 285.41 48.8257 285.61 49.0897C285.818 49.3537 285.974 49.6537 286.078 49.9897C286.182 50.3257 286.238 50.6857 286.246 51.0697C286.254 51.1977 286.258 51.3337 286.258 51.4777C286.258 51.6217 286.254 51.7577 286.246 51.8857C286.238 52.2617 286.182 52.6217 286.078 52.9657C285.974 53.3017 285.818 53.6017 285.61 53.8657C285.41 54.1217 285.15 54.3297 284.83 54.4897C284.518 54.6417 284.138 54.7177 283.69 54.7177C283.226 54.7177 282.834 54.6337 282.514 54.4657C282.202 54.2897 281.946 54.0737 281.746 53.8177V56.6017C281.746 56.6817 281.722 56.7457 281.674 56.7937C281.626 56.8497 281.558 56.8777 281.47 56.8777H280.894ZM283.438 53.7457C283.854 53.7457 284.178 53.6577 284.41 53.4817C284.65 53.2977 284.822 53.0617 284.926 52.7737C285.03 52.4777 285.09 52.1617 285.106 51.8257C285.114 51.5937 285.114 51.3617 285.106 51.1297C285.09 50.7937 285.03 50.4817 284.926 50.1937C284.822 49.8977 284.65 49.6617 284.41 49.4857C284.178 49.3017 283.854 49.2097 283.438 49.2097C283.046 49.2097 282.726 49.3017 282.478 49.4857C282.238 49.6697 282.058 49.9057 281.938 50.1937C281.826 50.4737 281.762 50.7617 281.746 51.0577C281.738 51.1857 281.734 51.3377 281.734 51.5137C281.734 51.6897 281.738 51.8457 281.746 51.9817C281.754 52.2617 281.818 52.5377 281.938 52.8097C282.066 53.0817 282.254 53.3057 282.502 53.4817C282.75 53.6577 283.062 53.7457 283.438 53.7457ZM290.12 54.5977C289.672 54.5977 289.308 54.5137 289.028 54.3457C288.748 54.1697 288.544 53.9257 288.416 53.6137C288.288 53.2937 288.224 52.9177 288.224 52.4857V49.3177H287.288C287.208 49.3177 287.14 49.2937 287.084 49.2457C287.036 49.1897 287.012 49.1217 287.012 49.0417V48.6337C287.012 48.5537 287.036 48.4897 287.084 48.4417C287.14 48.3857 287.208 48.3577 287.288 48.3577H288.224V46.3537C288.224 46.2737 288.248 46.2097 288.296 46.1617C288.352 46.1057 288.42 46.0777 288.5 46.0777H289.064C289.144 46.0777 289.208 46.1057 289.256 46.1617C289.312 46.2097 289.34 46.2737 289.34 46.3537V48.3577H290.828C290.908 48.3577 290.972 48.3857 291.02 48.4417C291.076 48.4897 291.104 48.5537 291.104 48.6337V49.0417C291.104 49.1217 291.076 49.1897 291.02 49.2457C290.972 49.2937 290.908 49.3177 290.828 49.3177H289.34V52.4017C289.34 52.7777 289.404 53.0737 289.532 53.2897C289.66 53.5057 289.888 53.6137 290.216 53.6137H290.948C291.028 53.6137 291.092 53.6417 291.14 53.6977C291.196 53.7457 291.224 53.8097 291.224 53.8897V54.3217C291.224 54.4017 291.196 54.4697 291.14 54.5257C291.092 54.5737 291.028 54.5977 290.948 54.5977H290.12ZM297.473 54.7177C297.025 54.7177 296.641 54.6617 296.321 54.5497C296.001 54.4377 295.741 54.3017 295.541 54.1417C295.341 53.9817 295.189 53.8217 295.085 53.6617C294.989 53.5017 294.937 53.3737 294.929 53.2777C294.921 53.1897 294.949 53.1217 295.013 53.0737C295.077 53.0257 295.141 53.0017 295.205 53.0017H295.733C295.781 53.0017 295.817 53.0097 295.841 53.0257C295.873 53.0337 295.913 53.0657 295.961 53.1217C296.065 53.2337 296.181 53.3457 296.309 53.4577C296.437 53.5697 296.593 53.6617 296.777 53.7337C296.969 53.8057 297.205 53.8417 297.485 53.8417C297.893 53.8417 298.229 53.7657 298.493 53.6137C298.757 53.4537 298.889 53.2217 298.889 52.9177C298.889 52.7177 298.833 52.5577 298.721 52.4377C298.617 52.3177 298.425 52.2097 298.145 52.1137C297.873 52.0177 297.497 51.9177 297.017 51.8137C296.537 51.7017 296.157 51.5657 295.877 51.4057C295.597 51.2377 295.397 51.0417 295.277 50.8177C295.157 50.5857 295.097 50.3257 295.097 50.0377C295.097 49.7417 295.185 49.4577 295.361 49.1857C295.537 48.9057 295.793 48.6777 296.129 48.5017C296.473 48.3257 296.901 48.2377 297.413 48.2377C297.829 48.2377 298.185 48.2897 298.481 48.3937C298.777 48.4977 299.021 48.6297 299.213 48.7897C299.405 48.9417 299.549 49.0937 299.645 49.2457C299.741 49.3977 299.793 49.5257 299.801 49.6297C299.809 49.7097 299.785 49.7777 299.729 49.8337C299.673 49.8817 299.609 49.9057 299.537 49.9057H299.033C298.977 49.9057 298.929 49.8937 298.889 49.8697C298.857 49.8457 298.825 49.8177 298.793 49.7857C298.713 49.6817 298.617 49.5777 298.505 49.4737C298.401 49.3697 298.261 49.2857 298.085 49.2217C297.917 49.1497 297.693 49.1137 297.413 49.1137C297.013 49.1137 296.713 49.1977 296.513 49.3657C296.313 49.5337 296.213 49.7457 296.213 50.0017C296.213 50.1537 296.257 50.2897 296.345 50.4097C296.433 50.5297 296.601 50.6377 296.849 50.7337C297.097 50.8297 297.465 50.9337 297.953 51.0457C298.481 51.1497 298.897 51.2897 299.201 51.4657C299.505 51.6417 299.721 51.8457 299.849 52.0777C299.977 52.3097 300.041 52.5777 300.041 52.8817C300.041 53.2177 299.941 53.5257 299.741 53.8057C299.549 54.0857 299.261 54.3097 298.877 54.4777C298.501 54.6377 298.033 54.7177 297.473 54.7177ZM301.706 54.5977C301.626 54.5977 301.558 54.5737 301.502 54.5257C301.454 54.4697 301.43 54.4017 301.43 54.3217V48.6337C301.43 48.5537 301.454 48.4897 301.502 48.4417C301.558 48.3857 301.626 48.3577 301.706 48.3577H302.27C302.35 48.3577 302.414 48.3857 302.462 48.4417C302.518 48.4897 302.546 48.5537 302.546 48.6337V49.1617C302.754 48.8897 303.014 48.6697 303.326 48.5017C303.646 48.3257 304.054 48.2377 304.55 48.2377C305.07 48.2377 305.51 48.3537 305.87 48.5857C306.238 48.8097 306.514 49.1257 306.698 49.5337C306.882 49.9337 306.974 50.4017 306.974 50.9377V54.3217C306.974 54.4017 306.95 54.4697 306.902 54.5257C306.854 54.5737 306.79 54.5977 306.71 54.5977H306.11C306.03 54.5977 305.962 54.5737 305.906 54.5257C305.858 54.4697 305.834 54.4017 305.834 54.3217V50.9977C305.834 50.4377 305.698 50.0017 305.426 49.6897C305.154 49.3697 304.754 49.2097 304.226 49.2097C303.73 49.2097 303.33 49.3697 303.026 49.6897C302.73 50.0017 302.582 50.4377 302.582 50.9977V54.3217C302.582 54.4017 302.554 54.4697 302.498 54.5257C302.45 54.5737 302.386 54.5977 302.306 54.5977H301.706ZM308.983 54.5977C308.903 54.5977 308.835 54.5737 308.779 54.5257C308.731 54.4697 308.707 54.4017 308.707 54.3217V48.6337C308.707 48.5537 308.731 48.4897 308.779 48.4417C308.835 48.3857 308.903 48.3577 308.983 48.3577H309.559C309.639 48.3577 309.703 48.3857 309.751 48.4417C309.799 48.4897 309.823 48.5537 309.823 48.6337V54.3217C309.823 54.4017 309.799 54.4697 309.751 54.5257C309.703 54.5737 309.639 54.5977 309.559 54.5977H308.983ZM308.887 47.1937C308.807 47.1937 308.739 47.1697 308.683 47.1217C308.635 47.0657 308.611 46.9977 308.611 46.9177V46.2697C308.611 46.1897 308.635 46.1257 308.683 46.0777C308.739 46.0217 308.807 45.9937 308.887 45.9937H309.643C309.723 45.9937 309.787 46.0217 309.835 46.0777C309.891 46.1257 309.919 46.1897 309.919 46.2697V46.9177C309.919 46.9977 309.891 47.0657 309.835 47.1217C309.787 47.1697 309.723 47.1937 309.643 47.1937H308.887ZM312.019 56.8777C311.939 56.8777 311.871 56.8497 311.815 56.7937C311.767 56.7457 311.743 56.6817 311.743 56.6017V48.6337C311.743 48.5537 311.767 48.4897 311.815 48.4417C311.871 48.3857 311.939 48.3577 312.019 48.3577H312.571C312.651 48.3577 312.715 48.3857 312.763 48.4417C312.819 48.4897 312.847 48.5537 312.847 48.6337V49.1617C313.039 48.8977 313.295 48.6777 313.615 48.5017C313.935 48.3257 314.335 48.2377 314.815 48.2377C315.263 48.2377 315.643 48.3137 315.955 48.4657C316.275 48.6177 316.535 48.8257 316.735 49.0897C316.943 49.3537 317.099 49.6537 317.203 49.9897C317.307 50.3257 317.363 50.6857 317.371 51.0697C317.379 51.1977 317.383 51.3337 317.383 51.4777C317.383 51.6217 317.379 51.7577 317.371 51.8857C317.363 52.2617 317.307 52.6217 317.203 52.9657C317.099 53.3017 316.943 53.6017 316.735 53.8657C316.535 54.1217 316.275 54.3297 315.955 54.4897C315.643 54.6417 315.263 54.7177 314.815 54.7177C314.351 54.7177 313.959 54.6337 313.639 54.4657C313.327 54.2897 313.071 54.0737 312.871 53.8177V56.6017C312.871 56.6817 312.847 56.7457 312.799 56.7937C312.751 56.8497 312.683 56.8777 312.595 56.8777H312.019ZM314.563 53.7457C314.979 53.7457 315.303 53.6577 315.535 53.4817C315.775 53.2977 315.947 53.0617 316.051 52.7737C316.155 52.4777 316.215 52.1617 316.231 51.8257C316.239 51.5937 316.239 51.3617 316.231 51.1297C316.215 50.7937 316.155 50.4817 316.051 50.1937C315.947 49.8977 315.775 49.6617 315.535 49.4857C315.303 49.3017 314.979 49.2097 314.563 49.2097C314.171 49.2097 313.851 49.3017 313.603 49.4857C313.363 49.6697 313.183 49.9057 313.063 50.1937C312.951 50.4737 312.887 50.7617 312.871 51.0577C312.863 51.1857 312.859 51.3377 312.859 51.5137C312.859 51.6897 312.863 51.8457 312.871 51.9817C312.879 52.2617 312.943 52.5377 313.063 52.8097C313.191 53.0817 313.379 53.3057 313.627 53.4817C313.875 53.6577 314.187 53.7457 314.563 53.7457ZM319.167 56.8777C319.087 56.8777 319.019 56.8497 318.963 56.7937C318.915 56.7457 318.891 56.6817 318.891 56.6017V48.6337C318.891 48.5537 318.915 48.4897 318.963 48.4417C319.019 48.3857 319.087 48.3577 319.167 48.3577H319.719C319.799 48.3577 319.863 48.3857 319.911 48.4417C319.967 48.4897 319.995 48.5537 319.995 48.6337V49.1617C320.187 48.8977 320.443 48.6777 320.763 48.5017C321.083 48.3257 321.483 48.2377 321.963 48.2377C322.411 48.2377 322.791 48.3137 323.103 48.4657C323.423 48.6177 323.683 48.8257 323.883 49.0897C324.091 49.3537 324.247 49.6537 324.351 49.9897C324.455 50.3257 324.511 50.6857 324.519 51.0697C324.527 51.1977 324.531 51.3337 324.531 51.4777C324.531 51.6217 324.527 51.7577 324.519 51.8857C324.511 52.2617 324.455 52.6217 324.351 52.9657C324.247 53.3017 324.091 53.6017 323.883 53.8657C323.683 54.1217 323.423 54.3297 323.103 54.4897C322.791 54.6417 322.411 54.7177 321.963 54.7177C321.499 54.7177 321.107 54.6337 320.787 54.4657C320.475 54.2897 320.219 54.0737 320.019 53.8177V56.6017C320.019 56.6817 319.995 56.7457 319.947 56.7937C319.899 56.8497 319.831 56.8777 319.743 56.8777H319.167ZM321.711 53.7457C322.127 53.7457 322.451 53.6577 322.683 53.4817C322.923 53.2977 323.095 53.0617 323.199 52.7737C323.303 52.4777 323.363 52.1617 323.379 51.8257C323.387 51.5937 323.387 51.3617 323.379 51.1297C323.363 50.7937 323.303 50.4817 323.199 50.1937C323.095 49.8977 322.923 49.6617 322.683 49.4857C322.451 49.3017 322.127 49.2097 321.711 49.2097C321.319 49.2097 320.999 49.3017 320.751 49.4857C320.511 49.6697 320.331 49.9057 320.211 50.1937C320.099 50.4737 320.035 50.7617 320.019 51.0577C320.011 51.1857 320.007 51.3377 320.007 51.5137C320.007 51.6897 320.011 51.8457 320.019 51.9817C320.027 52.2617 320.091 52.5377 320.211 52.8097C320.339 53.0817 320.527 53.3057 320.775 53.4817C321.023 53.6577 321.335 53.7457 321.711 53.7457ZM328.511 54.7177C327.687 54.7177 327.031 54.4657 326.543 53.9617C326.055 53.4497 325.787 52.7537 325.739 51.8737C325.731 51.7697 325.727 51.6377 325.727 51.4777C325.727 51.3097 325.731 51.1737 325.739 51.0697C325.771 50.5017 325.903 50.0057 326.135 49.5817C326.367 49.1497 326.683 48.8177 327.083 48.5857C327.491 48.3537 327.967 48.2377 328.511 48.2377C329.119 48.2377 329.627 48.3657 330.035 48.6217C330.451 48.8777 330.767 49.2417 330.983 49.7137C331.199 50.1857 331.307 50.7377 331.307 51.3697V51.5737C331.307 51.6617 331.279 51.7297 331.223 51.7777C331.175 51.8257 331.111 51.8497 331.031 51.8497H326.879C326.879 51.8577 326.879 51.8737 326.879 51.8977C326.879 51.9217 326.879 51.9417 326.879 51.9577C326.895 52.2857 326.967 52.5937 327.095 52.8817C327.223 53.1617 327.407 53.3897 327.647 53.5657C327.887 53.7417 328.175 53.8297 328.511 53.8297C328.799 53.8297 329.039 53.7857 329.231 53.6977C329.423 53.6097 329.579 53.5137 329.699 53.4097C329.819 53.2977 329.899 53.2137 329.939 53.1577C330.011 53.0537 330.067 52.9937 330.107 52.9777C330.147 52.9537 330.211 52.9417 330.299 52.9417H330.875C330.955 52.9417 331.019 52.9657 331.067 53.0137C331.123 53.0537 331.147 53.1137 331.139 53.1937C331.131 53.3137 331.067 53.4617 330.947 53.6377C330.827 53.8057 330.655 53.9737 330.431 54.1417C330.207 54.3097 329.935 54.4497 329.615 54.5617C329.295 54.6657 328.927 54.7177 328.511 54.7177ZM326.879 51.0217H330.167V50.9857C330.167 50.6257 330.099 50.3057 329.963 50.0257C329.835 49.7457 329.647 49.5257 329.399 49.3657C329.151 49.1977 328.855 49.1137 328.511 49.1137C328.167 49.1137 327.871 49.1977 327.623 49.3657C327.383 49.5257 327.199 49.7457 327.071 50.0257C326.943 50.3057 326.879 50.6257 326.879 50.9857V51.0217ZM335.143 54.5977C334.695 54.5977 334.331 54.5137 334.051 54.3457C333.771 54.1697 333.567 53.9257 333.439 53.6137C333.311 53.2937 333.247 52.9177 333.247 52.4857V49.3177H332.311C332.231 49.3177 332.163 49.2937 332.107 49.2457C332.059 49.1897 332.035 49.1217 332.035 49.0417V48.6337C332.035 48.5537 332.059 48.4897 332.107 48.4417C332.163 48.3857 332.231 48.3577 332.311 48.3577H333.247V46.3537C333.247 46.2737 333.271 46.2097 333.319 46.1617C333.375 46.1057 333.443 46.0777 333.523 46.0777H334.087C334.167 46.0777 334.231 46.1057 334.279 46.1617C334.335 46.2097 334.363 46.2737 334.363 46.3537V48.3577H335.851C335.931 48.3577 335.995 48.3857 336.043 48.4417C336.099 48.4897 336.127 48.5537 336.127 48.6337V49.0417C336.127 49.1217 336.099 49.1897 336.043 49.2457C335.995 49.2937 335.931 49.3177 335.851 49.3177H334.363V52.4017C334.363 52.7777 334.427 53.0737 334.555 53.2897C334.683 53.5057 334.911 53.6137 335.239 53.6137H335.971C336.051 53.6137 336.115 53.6417 336.163 53.6977C336.219 53.7457 336.247 53.8097 336.247 53.8897V54.3217C336.247 54.4017 336.219 54.4697 336.163 54.5257C336.115 54.5737 336.051 54.5977 335.971 54.5977H335.143ZM337.563 54.2857C337.499 54.2857 337.443 54.2657 337.395 54.2257C337.347 54.1857 337.323 54.1257 337.323 54.0457V53.5177C337.323 53.4217 337.343 53.3457 337.383 53.2897C337.431 53.2337 337.503 53.1777 337.599 53.1217L340.803 50.9257L337.599 48.7297C337.503 48.6657 337.431 48.6057 337.383 48.5497C337.343 48.4937 337.323 48.4177 337.323 48.3217V47.7937C337.323 47.7137 337.347 47.6537 337.395 47.6137C337.443 47.5737 337.499 47.5537 337.563 47.5537C337.611 47.5537 337.663 47.5697 337.719 47.6017C337.775 47.6257 337.819 47.6497 337.851 47.6737L341.619 50.2657C341.747 50.3537 341.835 50.4377 341.883 50.5177C341.939 50.5977 341.967 50.6977 341.967 50.8177V51.0217C341.967 51.1337 341.939 51.2337 341.883 51.3217C341.835 51.4017 341.747 51.4857 341.619 51.5737L337.851 54.1657C337.819 54.1897 337.775 54.2177 337.719 54.2497C337.663 54.2737 337.611 54.2857 337.563 54.2857Z" fill="#6752E5"/>
<path d="M285.166 70.9324L295.98 83.6124L309.197 71.4821L285.166 70.9324Z" fill="white"/>
<path d="M225.445 109.744L211.802 106.37L204.805 121.284L207.118 125.419L216.485 124.928L225.445 109.744Z" fill="url(#paint5_linear_1_471)"/>
<g filter="url(#filter1_d_1_471)">
<path d="M357.491 478.61C354.485 492.025 345.051 503.336 335.658 513.973C324.198 526.958 311.962 540.018 295.821 547.695C283.523 553.532 269.926 555.829 256.029 556.54C251.185 556.807 246.306 556.863 241.442 556.825C236.09 556.825 230.739 556.657 225.448 556.465C210.328 555.979 195.211 555.483 180.097 554.978C155.113 554.17 130.122 553.348 105.124 552.513C94.3196 552.176 83.5132 551.825 72.7052 551.46C61.8548 551.105 50.5982 550.67 40.9156 546.132C25.5972 538.947 17.3413 522.646 16.1786 506.84C15.0159 491.034 19.7328 475.448 24.4345 460.203C29.0684 445.104 33.7091 430.009 38.3566 414.919C40.6482 407.506 42.9297 400.079 45.201 392.639C51.6594 371.692 62.2001 342.728 77.8486 325.996C88.3892 314.741 104.383 309.189 120.031 305.536C139.287 301.035 159.064 298.711 178.929 298.613C200.32 298.519 222.996 301.471 239.563 313.932C261.462 330.36 273.893 347.392 282.778 369.826C291.171 390.979 307.793 396.362 325.854 408.033C335.206 414.091 341.725 423.165 347.016 432.497C355.099 446.671 361.004 462.912 357.491 478.61Z" fill="white"/>
<path d="M357.491 478.61C354.485 492.025 345.051 503.336 335.658 513.973C324.198 526.958 311.962 540.018 295.821 547.695C283.523 553.532 269.926 555.829 256.029 556.54C251.185 556.807 246.306 556.863 241.442 556.825C236.09 556.825 230.739 556.657 225.448 556.465C210.328 555.979 195.211 555.483 180.097 554.978C155.113 554.17 130.122 553.348 105.124 552.513C94.3196 552.176 83.5132 551.825 72.7052 551.46C61.8548 551.105 50.5982 550.67 40.9156 546.132C25.5972 538.947 17.3413 522.646 16.1786 506.84C15.0159 491.034 19.7328 475.448 24.4345 460.203C29.0684 445.104 33.7091 430.009 38.3566 414.919C40.6482 407.506 42.9297 400.079 45.201 392.639C51.6594 371.692 62.2001 342.728 77.8486 325.996C88.3892 314.741 104.383 309.189 120.031 305.536C139.287 301.035 159.064 298.711 178.929 298.613C200.32 298.519 222.996 301.471 239.563 313.932C261.462 330.36 273.893 347.392 282.778 369.826C291.171 390.979 307.793 396.362 325.854 408.033C335.206 414.091 341.725 423.165 347.016 432.497C355.099 446.671 361.004 462.912 357.491 478.61Z" fill="url(#paint6_linear_1_471)"/>
</g>
<path d="M245.15 435.823C245.524 434.041 245.898 432.257 246.272 430.471C246.482 429.471 246.667 428.459 246.909 427.348C248.725 427.64 250.497 427.892 252.249 428.214C252.367 428.255 252.494 428.274 252.62 428.269C252.746 428.263 252.87 428.234 252.984 428.182C253.097 428.13 253.197 428.058 253.278 427.968C253.359 427.879 253.419 427.775 253.454 427.664C254.244 426.248 255.13 424.874 256.06 423.535C256.142 423.454 256.205 423.36 256.245 423.257C256.286 423.154 256.303 423.044 256.296 422.935C256.289 422.825 256.257 422.718 256.204 422.62C256.15 422.522 256.075 422.435 255.984 422.365C254.805 421.125 253.664 419.85 252.447 418.516L260.062 412.668C261.235 413.948 262.407 415.194 263.522 416.475C263.589 416.582 263.678 416.675 263.786 416.748C263.894 416.821 264.016 416.874 264.147 416.901C264.278 416.928 264.413 416.931 264.544 416.908C264.676 416.885 264.801 416.837 264.911 416.768C266.442 416.146 268.015 415.617 269.621 415.183C270.354 414.99 270.532 414.721 270.513 414.083C270.475 412.486 270.513 410.89 270.513 409.234H280.448C280.448 410.872 280.486 412.486 280.448 414.101C280.448 414.756 280.632 414.995 281.346 415.188C282.948 415.628 284.519 416.159 286.049 416.779C286.161 416.848 286.286 416.894 286.419 416.915C286.551 416.937 286.686 416.932 286.817 416.902C286.947 416.873 287.069 416.818 287.175 416.743C287.281 416.667 287.368 416.572 287.432 416.463C288.534 415.2 289.694 413.972 290.886 412.673L298.494 418.522L294.595 422.809C295.652 424.564 296.64 426.319 297.692 427.968C297.815 428.069 297.961 428.144 298.12 428.187C298.279 428.229 298.446 428.238 298.609 428.214C300.381 427.962 302.146 427.658 304.039 427.354C304.618 430.36 305.186 433.29 305.766 436.326C303.917 436.624 302.12 436.911 300.33 437.226C300.037 437.285 299.597 437.536 299.559 437.753C299.202 439.648 298.921 441.56 298.596 443.601L303.841 446.391L298.87 454.287L293.6 451.503C291.893 452.755 290.236 453.948 288.624 455.182C288.534 455.291 288.473 455.417 288.445 455.551C288.418 455.685 288.424 455.823 288.464 455.954C289.063 457.568 289.739 459.165 290.376 460.838L281.047 463.955C280.467 462.505 279.849 461.089 279.352 459.633C279.058 458.791 278.657 458.527 277.65 458.609C276.04 458.712 274.424 458.712 272.813 458.609C272.707 458.586 272.596 458.583 272.488 458.6C272.379 458.617 272.276 458.654 272.184 458.709C272.092 458.763 272.012 458.835 271.951 458.918C271.889 459.001 271.847 459.095 271.826 459.194C271.239 460.756 270.602 462.294 269.914 463.949L260.565 460.803L262.649 455.498L257.386 451.404L252.058 454.217L247.088 446.321C248.725 445.45 250.274 444.613 251.848 443.812C251.96 443.774 252.063 443.715 252.149 443.638C252.235 443.562 252.303 443.47 252.35 443.369C252.396 443.267 252.418 443.158 252.416 443.048C252.415 442.939 252.388 442.83 252.339 442.73C251.967 441.263 251.678 439.779 251.472 438.285C251.37 437.56 251.185 437.203 250.299 437.115C248.579 436.928 246.871 436.589 245.157 436.314L245.15 435.823ZM275.566 424.944C268.735 424.78 262.955 429.933 262.738 436.384C262.515 442.73 268.193 448.082 275.311 448.234C278.676 448.265 281.917 447.068 284.32 444.906C286.724 442.744 288.093 439.794 288.126 436.706C288.16 433.617 286.856 430.643 284.5 428.437C282.145 426.232 278.931 424.975 275.566 424.944V424.944Z" fill="#6752E5"/>
<path d="M245.15 435.823C245.524 434.041 245.898 432.257 246.272 430.471C246.482 429.471 246.667 428.459 246.909 427.348C248.725 427.64 250.497 427.892 252.249 428.214C252.367 428.255 252.494 428.274 252.62 428.269C252.746 428.263 252.87 428.234 252.984 428.182C253.097 428.13 253.197 428.058 253.278 427.968C253.359 427.879 253.419 427.775 253.454 427.664C254.244 426.248 255.13 424.874 256.06 423.535C256.142 423.454 256.205 423.36 256.245 423.257C256.286 423.154 256.303 423.044 256.296 422.935C256.289 422.825 256.257 422.718 256.204 422.62C256.15 422.522 256.075 422.435 255.984 422.365C254.805 421.125 253.664 419.85 252.447 418.516L260.062 412.668C261.235 413.948 262.407 415.194 263.522 416.475C263.589 416.582 263.678 416.675 263.786 416.748C263.894 416.821 264.016 416.874 264.147 416.901C264.278 416.928 264.413 416.931 264.544 416.908C264.676 416.885 264.801 416.837 264.911 416.768C266.442 416.146 268.015 415.617 269.621 415.183C270.354 414.99 270.532 414.721 270.513 414.083C270.475 412.486 270.513 410.89 270.513 409.234H280.448C280.448 410.872 280.486 412.486 280.448 414.101C280.448 414.756 280.632 414.995 281.346 415.188C282.948 415.628 284.519 416.159 286.049 416.779C286.161 416.848 286.286 416.894 286.419 416.915C286.551 416.937 286.686 416.932 286.817 416.902C286.947 416.873 287.069 416.818 287.175 416.743C287.281 416.667 287.368 416.572 287.432 416.463C288.534 415.2 289.694 413.972 290.886 412.673L298.494 418.522L294.595 422.809C295.652 424.564 296.64 426.319 297.692 427.968C297.815 428.069 297.961 428.144 298.12 428.187C298.279 428.229 298.446 428.238 298.609 428.214C300.381 427.962 302.146 427.658 304.039 427.354C304.618 430.36 305.186 433.29 305.766 436.326C303.917 436.624 302.12 436.911 300.33 437.226C300.037 437.285 299.597 437.536 299.559 437.753C299.202 439.648 298.921 441.56 298.596 443.601L303.841 446.391L298.87 454.287L293.6 451.503C291.893 452.755 290.236 453.948 288.624 455.182C288.534 455.291 288.473 455.417 288.445 455.551C288.418 455.685 288.424 455.823 288.464 455.954C289.063 457.568 289.739 459.165 290.376 460.838L281.047 463.955C280.467 462.505 279.849 461.089 279.352 459.633C279.058 458.791 278.657 458.527 277.65 458.609C276.04 458.712 274.424 458.712 272.813 458.609C272.707 458.586 272.596 458.583 272.488 458.6C272.379 458.617 272.276 458.654 272.184 458.709C272.092 458.763 272.012 458.835 271.951 458.918C271.889 459.001 271.847 459.095 271.826 459.194C271.239 460.756 270.602 462.294 269.914 463.949L260.565 460.803L262.649 455.498L257.386 451.404L252.058 454.217L247.088 446.321C248.725 445.45 250.274 444.613 251.848 443.812C251.96 443.774 252.063 443.715 252.149 443.638C252.235 443.562 252.303 443.47 252.35 443.369C252.396 443.267 252.418 443.158 252.416 443.048C252.415 442.939 252.388 442.83 252.339 442.73C251.967 441.263 251.678 439.779 251.472 438.285C251.37 437.56 251.185 437.203 250.299 437.115C248.579 436.928 246.871 436.589 245.157 436.314L245.15 435.823ZM275.566 424.944C268.735 424.78 262.955 429.933 262.738 436.384C262.515 442.73 268.193 448.082 275.311 448.234C278.676 448.265 281.917 447.068 284.32 444.906C286.724 442.744 288.093 439.794 288.126 436.706C288.16 433.617 286.856 430.643 284.5 428.437C282.145 426.232 278.931 424.975 275.566 424.944V424.944Z" fill="url(#paint7_linear_1_471)"/>
<path fill-rule="evenodd" clip-rule="evenodd" d="M86.4626 372.025H258.278C263.916 372.025 268.486 376.22 268.486 381.395V476.676C268.486 480.472 266.027 483.741 262.49 485.213L296.87 509.879H46.6738L82.3299 485.246C78.7507 483.79 76.2539 480.501 76.2539 476.676V381.395C76.2539 376.22 80.8245 372.025 86.4626 372.025Z" fill="url(#paint8_linear_1_471)"/>
<path d="M252.619 376.435H90.4965C85.1752 376.435 80.8613 380.394 80.8613 385.278V475.179C80.8613 480.063 85.1752 484.022 90.4965 484.022H252.619C257.94 484.022 262.254 480.063 262.254 475.179V385.278C262.254 380.394 257.94 376.435 252.619 376.435Z" fill="white"/>
<g opacity="0.52">
<path opacity="0.52" d="M149.907 386.729H106.842V389.629H149.907V386.729Z" fill="#6752E5"/>
<path opacity="0.52" d="M133.128 392.338H106.842V395.063H133.128V392.338Z" fill="#6752E5"/>
<path opacity="0.52" d="M226.447 392.338H143.732V395.075H226.447V392.338Z" fill="#6752E5"/>
<path opacity="0.52" d="M156.656 397.958H120.512V400.83H156.656V397.958Z" fill="#6752E5"/>
<path opacity="0.52" d="M175.182 403.567H132.117V406.468H175.182V403.567Z" fill="#6752E5"/>
<path opacity="0.52" d="M214.086 403.567H177.992V406.784H214.086V403.567Z" fill="#6752E5"/>
<path opacity="0.52" d="M165.311 409.176H132.053V411.902H165.311V409.176Z" fill="#6752E5"/>
<path opacity="0.52" d="M237.115 409.176H168.496V412.194H237.115V409.176Z" fill="#6752E5"/>
<path opacity="0.52" d="M149.907 416.768H106.842V419.669H149.907V416.768Z" fill="#6752E5"/>
<path opacity="0.52" d="M133.128 422.376H106.842V425.102H133.128V422.376Z" fill="#6752E5"/>
<path opacity="0.52" d="M226.447 422.376H143.732V425.114H226.447V422.376Z" fill="#6752E5"/>
<path opacity="0.52" d="M156.656 427.986H120.512V430.857H156.656V427.986Z" fill="#6752E5"/>
<path opacity="0.52" d="M175.182 433.612H132.117V436.513H175.182V433.612Z" fill="#6752E5"/>
<path opacity="0.52" d="M214.086 433.612H177.992V436.829H214.086V433.612Z" fill="#6752E5"/>
<path opacity="0.52" d="M165.311 439.221H132.053V441.946H165.311V439.221Z" fill="#6752E5"/>
<path opacity="0.52" d="M237.115 439.221H168.496V442.239H237.115V439.221Z" fill="#6752E5"/>
<path opacity="0.52" d="M149.907 446.807H106.842V449.708H149.907V446.807Z" fill="#6752E5"/>
<path opacity="0.52" d="M133.128 452.416H106.842V455.141H133.128V452.416Z" fill="#6752E5"/>
<path opacity="0.52" d="M226.447 452.416H143.732V455.153H226.447V452.416Z" fill="#6752E5"/>
<path opacity="0.52" d="M156.656 458.025H120.512V460.896H156.656V458.025Z" fill="#6752E5"/>
<path opacity="0.52" d="M175.182 463.633H132.117V466.534H175.182V463.633Z" fill="#6752E5"/>
<path opacity="0.52" d="M214.086 463.633H177.992V466.85H214.086V463.633Z" fill="#6752E5"/>
<path opacity="0.52" d="M165.311 469.26H132.053V471.986H165.311V469.26Z" fill="#6752E5"/>
<path opacity="0.52" d="M237.115 469.26H168.496V472.278H237.115V469.26Z" fill="#6752E5"/>
</g>
<path d="M56.9105 518.91L46.6699 509.879H296.867L287.626 519.459L56.9105 518.91Z" fill="#6752E5"/>
<path d="M56.9105 518.91L46.6699 509.879H296.867L287.626 519.459L56.9105 518.91Z" fill="url(#paint9_linear_1_471)"/>
<g opacity="0.24">
<path opacity="0.5" d="M237.325 347.316V381.192C237.325 383.182 236.401 385.091 234.757 386.499C233.113 387.907 230.883 388.699 228.558 388.701H186.852L174.546 399.234L164.927 388.701H122.242C121.091 388.7 119.951 388.505 118.888 388.127C117.825 387.749 116.86 387.196 116.047 386.499C115.234 385.801 114.59 384.974 114.151 384.063C113.712 383.152 113.487 382.177 113.488 381.192V347.316C113.495 345.331 114.42 343.43 116.061 342.027C117.701 340.624 119.923 339.834 122.242 339.83H228.558C230.878 339.834 233.101 340.624 234.744 342.026C236.386 343.429 237.314 345.33 237.325 347.316V347.316Z" fill="#6752E5"/>
</g>
<path d="M122.257 339.117H228.56C233.231 339.117 236.827 342.155 236.827 345.69V377.613C236.827 381.148 233.231 384.186 228.56 384.186H122.257C117.586 384.186 113.99 381.148 113.99 377.613V345.69C113.99 342.155 117.586 339.117 122.257 339.117Z" fill="white" stroke="#EFF2FD"/>
<path d="M143.264 365.865C143.216 365.865 143.164 365.849 143.108 365.817C143.06 365.785 143.016 365.761 142.976 365.745L139.196 363.141C139.076 363.061 138.988 362.981 138.932 362.901C138.876 362.813 138.848 362.713 138.848 362.601V362.385C138.848 362.273 138.876 362.177 138.932 362.097C138.988 362.017 139.076 361.933 139.196 361.845L142.976 359.253C143.016 359.229 143.06 359.201 143.108 359.169C143.164 359.137 143.216 359.121 143.264 359.121C143.328 359.121 143.384 359.145 143.432 359.193C143.48 359.233 143.504 359.293 143.504 359.373V359.901C143.504 359.989 143.48 360.065 143.432 360.129C143.384 360.185 143.316 360.241 143.228 360.297L140.012 362.493L143.228 364.689C143.316 364.753 143.384 364.813 143.432 364.869C143.48 364.925 143.504 365.001 143.504 365.097V365.625C143.504 365.697 143.48 365.757 143.432 365.805C143.384 365.845 143.328 365.865 143.264 365.865ZM145.642 366.165C145.554 366.165 145.486 366.141 145.438 366.093C145.39 366.037 145.366 365.969 145.366 365.889V358.053C145.366 357.965 145.39 357.897 145.438 357.849C145.486 357.793 145.554 357.765 145.642 357.765H146.254C146.342 357.765 146.41 357.793 146.458 357.849C146.514 357.897 146.542 357.965 146.542 358.053V361.365H150.67V358.053C150.67 357.965 150.694 357.897 150.742 357.849C150.798 357.793 150.866 357.765 150.946 357.765H151.558C151.646 357.765 151.714 357.793 151.762 357.849C151.818 357.897 151.846 357.965 151.846 358.053V365.889C151.846 365.969 151.818 366.037 151.762 366.093C151.714 366.141 151.646 366.165 151.558 366.165H150.946C150.866 366.165 150.798 366.141 150.742 366.093C150.694 366.037 150.67 365.969 150.67 365.889V362.445H146.542V365.889C146.542 365.969 146.514 366.037 146.458 366.093C146.41 366.141 146.342 366.165 146.254 366.165H145.642ZM156.033 366.165C155.953 366.165 155.885 366.141 155.829 366.093C155.781 366.037 155.757 365.969 155.757 365.889V358.833H153.453C153.373 358.833 153.305 358.809 153.249 358.761C153.201 358.705 153.177 358.637 153.177 358.557V358.053C153.177 357.965 153.201 357.897 153.249 357.849C153.305 357.793 153.373 357.765 153.453 357.765H159.237C159.325 357.765 159.393 357.793 159.441 357.849C159.497 357.897 159.525 357.965 159.525 358.053V358.557C159.525 358.637 159.497 358.705 159.441 358.761C159.393 358.809 159.325 358.833 159.237 358.833H156.945V365.889C156.945 365.969 156.917 366.037 156.861 366.093C156.813 366.141 156.745 366.165 156.657 366.165H156.033ZM161.146 366.165C161.066 366.165 160.998 366.141 160.942 366.093C160.894 366.037 160.87 365.969 160.87 365.889V358.053C160.87 357.965 160.894 357.897 160.942 357.849C160.998 357.793 161.066 357.765 161.146 357.765H161.746C161.842 357.765 161.914 357.789 161.962 357.837C162.01 357.885 162.038 357.925 162.046 357.957L164.59 362.805L167.146 357.957C167.162 357.925 167.19 357.885 167.23 357.837C167.278 357.789 167.35 357.765 167.446 357.765H168.034C168.122 357.765 168.19 357.793 168.238 357.849C168.294 357.897 168.322 357.965 168.322 358.053V365.889C168.322 365.969 168.294 366.037 168.238 366.093C168.19 366.141 168.122 366.165 168.034 366.165H167.446C167.366 366.165 167.298 366.141 167.242 366.093C167.194 366.037 167.17 365.969 167.17 365.889V359.985L165.166 363.897C165.134 363.977 165.086 364.041 165.022 364.089C164.958 364.129 164.878 364.149 164.782 364.149H164.41C164.306 364.149 164.222 364.129 164.158 364.089C164.102 364.041 164.054 363.977 164.014 363.897L162.01 359.985V365.889C162.01 365.969 161.982 366.037 161.926 366.093C161.878 366.141 161.814 366.165 161.734 366.165H161.146ZM170.674 366.165C170.586 366.165 170.518 366.141 170.47 366.093C170.422 366.037 170.398 365.969 170.398 365.889V358.041C170.398 357.961 170.422 357.897 170.47 357.849C170.518 357.793 170.586 357.765 170.674 357.765H171.31C171.39 357.765 171.454 357.793 171.502 357.849C171.55 357.897 171.574 357.961 171.574 358.041V365.121H175.57C175.658 365.121 175.726 365.149 175.774 365.205C175.822 365.253 175.846 365.321 175.846 365.409V365.889C175.846 365.969 175.822 366.037 175.774 366.093C175.726 366.141 175.658 366.165 175.57 366.165H170.674ZM179.631 365.769C179.551 365.769 179.483 365.745 179.427 365.697C179.379 365.641 179.355 365.573 179.355 365.493V362.997H176.895C176.815 362.997 176.747 362.973 176.691 362.925C176.643 362.869 176.619 362.801 176.619 362.721V362.337C176.619 362.257 176.643 362.193 176.691 362.145C176.747 362.089 176.815 362.061 176.895 362.061H179.355V359.637C179.355 359.557 179.379 359.493 179.427 359.445C179.483 359.389 179.551 359.361 179.631 359.361H180.051C180.131 359.361 180.195 359.389 180.243 359.445C180.299 359.493 180.327 359.557 180.327 359.637V362.061H182.799C182.879 362.061 182.943 362.089 182.991 362.145C183.047 362.193 183.075 362.257 183.075 362.337V362.721C183.075 362.801 183.047 362.869 182.991 362.925C182.943 362.973 182.879 362.997 182.799 362.997H180.327V365.493C180.327 365.573 180.299 365.641 180.243 365.697C180.195 365.745 180.131 365.769 180.051 365.769H179.631ZM187.648 366.285C186.912 366.285 186.3 366.149 185.812 365.877C185.332 365.605 184.968 365.225 184.72 364.737C184.472 364.249 184.336 363.681 184.312 363.033C184.304 362.705 184.3 362.353 184.3 361.977C184.3 361.601 184.304 361.241 184.312 360.897C184.336 360.249 184.472 359.681 184.72 359.193C184.968 358.705 185.332 358.325 185.812 358.053C186.3 357.781 186.912 357.645 187.648 357.645C188.2 357.645 188.684 357.721 189.1 357.873C189.516 358.025 189.86 358.229 190.132 358.485C190.412 358.741 190.624 359.029 190.768 359.349C190.912 359.661 190.992 359.985 191.008 360.321C191.016 360.393 190.992 360.453 190.936 360.501C190.888 360.549 190.828 360.573 190.756 360.573H190.096C190.024 360.573 189.96 360.553 189.904 360.513C189.856 360.473 189.82 360.401 189.796 360.297C189.66 359.673 189.404 359.245 189.028 359.013C188.66 358.781 188.196 358.665 187.636 358.665C186.996 358.665 186.488 358.849 186.112 359.217C185.736 359.577 185.532 360.157 185.5 360.957C185.476 361.613 185.476 362.285 185.5 362.973C185.532 363.773 185.736 364.357 186.112 364.725C186.488 365.085 186.996 365.265 187.636 365.265C188.196 365.265 188.66 365.149 189.028 364.917C189.404 364.685 189.66 364.257 189.796 363.633C189.82 363.529 189.856 363.457 189.904 363.417C189.96 363.377 190.024 363.357 190.096 363.357H190.756C190.828 363.357 190.888 363.381 190.936 363.429C190.992 363.477 191.016 363.537 191.008 363.609C190.992 363.945 190.912 364.273 190.768 364.593C190.624 364.905 190.412 365.189 190.132 365.445C189.86 365.701 189.516 365.905 189.1 366.057C188.684 366.209 188.2 366.285 187.648 366.285ZM195.316 366.285C194.62 366.285 194.036 366.181 193.564 365.973C193.092 365.757 192.728 365.481 192.472 365.145C192.224 364.801 192.092 364.437 192.076 364.053C192.076 363.989 192.1 363.933 192.148 363.885C192.204 363.829 192.268 363.801 192.34 363.801H192.952C193.048 363.801 193.12 363.825 193.168 363.873C193.216 363.921 193.248 363.977 193.264 364.041C193.304 364.233 193.4 364.425 193.552 364.617C193.712 364.801 193.932 364.957 194.212 365.085C194.5 365.205 194.868 365.265 195.316 365.265C196.004 365.265 196.508 365.145 196.828 364.905C197.156 364.657 197.32 364.329 197.32 363.921C197.32 363.641 197.232 363.417 197.056 363.249C196.888 363.073 196.628 362.917 196.276 362.781C195.924 362.645 195.468 362.497 194.908 362.337C194.324 362.169 193.84 361.985 193.456 361.785C193.072 361.585 192.784 361.337 192.592 361.041C192.408 360.745 192.316 360.369 192.316 359.913C192.316 359.481 192.432 359.097 192.664 358.761C192.896 358.417 193.228 358.145 193.66 357.945C194.1 357.745 194.632 357.645 195.256 357.645C195.752 357.645 196.184 357.713 196.552 357.849C196.928 357.977 197.24 358.153 197.488 358.377C197.736 358.593 197.924 358.829 198.052 359.085C198.18 359.333 198.248 359.577 198.256 359.817C198.256 359.873 198.236 359.929 198.196 359.985C198.156 360.033 198.092 360.057 198.004 360.057H197.368C197.312 360.057 197.252 360.041 197.188 360.009C197.132 359.977 197.088 359.917 197.056 359.829C197.008 359.501 196.824 359.225 196.504 359.001C196.184 358.777 195.768 358.665 195.256 358.665C194.736 358.665 194.312 358.765 193.984 358.965C193.664 359.165 193.504 359.477 193.504 359.901C193.504 360.173 193.58 360.401 193.732 360.585C193.884 360.761 194.124 360.917 194.452 361.053C194.78 361.189 195.208 361.333 195.736 361.485C196.376 361.661 196.9 361.849 197.308 362.049C197.716 362.241 198.016 362.485 198.208 362.781C198.408 363.069 198.508 363.441 198.508 363.897C198.508 364.401 198.376 364.833 198.112 365.193C197.848 365.545 197.476 365.817 196.996 366.009C196.524 366.193 195.964 366.285 195.316 366.285ZM202.781 366.285C202.085 366.285 201.501 366.181 201.029 365.973C200.557 365.757 200.193 365.481 199.937 365.145C199.689 364.801 199.557 364.437 199.541 364.053C199.541 363.989 199.565 363.933 199.613 363.885C199.669 363.829 199.733 363.801 199.805 363.801H200.417C200.513 363.801 200.585 363.825 200.633 363.873C200.681 363.921 200.713 363.977 200.729 364.041C200.769 364.233 200.865 364.425 201.017 364.617C201.177 364.801 201.397 364.957 201.677 365.085C201.965 365.205 202.333 365.265 202.781 365.265C203.469 365.265 203.973 365.145 204.293 364.905C204.621 364.657 204.785 364.329 204.785 363.921C204.785 363.641 204.697 363.417 204.521 363.249C204.353 363.073 204.093 362.917 203.741 362.781C203.389 362.645 202.933 362.497 202.373 362.337C201.789 362.169 201.305 361.985 200.921 361.785C200.537 361.585 200.249 361.337 200.057 361.041C199.873 360.745 199.781 360.369 199.781 359.913C199.781 359.481 199.897 359.097 200.129 358.761C200.361 358.417 200.693 358.145 201.125 357.945C201.565 357.745 202.097 357.645 202.721 357.645C203.217 357.645 203.649 357.713 204.017 357.849C204.393 357.977 204.705 358.153 204.953 358.377C205.201 358.593 205.389 358.829 205.517 359.085C205.645 359.333 205.713 359.577 205.721 359.817C205.721 359.873 205.701 359.929 205.661 359.985C205.621 360.033 205.557 360.057 205.469 360.057H204.833C204.777 360.057 204.717 360.041 204.653 360.009C204.597 359.977 204.553 359.917 204.521 359.829C204.473 359.501 204.289 359.225 203.969 359.001C203.649 358.777 203.233 358.665 202.721 358.665C202.201 358.665 201.777 358.765 201.449 358.965C201.129 359.165 200.969 359.477 200.969 359.901C200.969 360.173 201.045 360.401 201.197 360.585C201.349 360.761 201.589 360.917 201.917 361.053C202.245 361.189 202.673 361.333 203.201 361.485C203.841 361.661 204.365 361.849 204.773 362.049C205.181 362.241 205.481 362.485 205.673 362.781C205.873 363.069 205.973 363.441 205.973 363.897C205.973 364.401 205.841 364.833 205.577 365.193C205.313 365.545 204.941 365.817 204.461 366.009C203.989 366.193 203.429 366.285 202.781 366.285ZM207.558 365.853C207.494 365.853 207.438 365.833 207.39 365.793C207.342 365.753 207.318 365.693 207.318 365.613V365.085C207.318 364.989 207.338 364.913 207.378 364.857C207.426 364.801 207.498 364.745 207.594 364.689L210.798 362.493L207.594 360.297C207.498 360.233 207.426 360.173 207.378 360.117C207.338 360.061 207.318 359.985 207.318 359.889V359.361C207.318 359.281 207.342 359.221 207.39 359.181C207.438 359.141 207.494 359.121 207.558 359.121C207.606 359.121 207.658 359.137 207.714 359.169C207.77 359.193 207.814 359.217 207.846 359.241L211.614 361.833C211.742 361.921 211.83 362.005 211.878 362.085C211.934 362.165 211.962 362.265 211.962 362.385V362.589C211.962 362.701 211.934 362.801 211.878 362.889C211.83 362.969 211.742 363.053 211.614 363.141L207.846 365.733C207.814 365.757 207.77 365.785 207.714 365.817C207.658 365.841 207.606 365.853 207.558 365.853Z" fill="#6752E5"/>
<path d="M163.963 382.5L174.777 395.18L187.994 383.05L163.963 382.5Z" fill="white"/>
<path d="M104.24 421.312L90.5966 417.937L83.5996 432.852L85.9128 436.987L95.2804 436.495L104.24 421.312Z" fill="url(#paint10_linear_1_471)"/>
<g filter="url(#filter2_d_1_471)">
<path d="M751.159 301.412C754.431 318.54 735.723 335.43 741.503 351.973C744.83 361.529 754.809 367.488 763.413 373.634C777.085 383.381 789.701 397.542 787.813 413.351C785.771 430.403 768.107 442.458 750.551 448.272C684.698 470.059 459.194 508.331 445.829 411.723C443.285 393.258 454.824 374.96 467.772 360.65C478.072 349.271 535.443 298.128 556.413 288.58C649.823 246.035 741.536 250.996 751.159 301.412Z" fill="white"/>
<path d="M751.159 301.412C754.431 318.54 735.723 335.43 741.503 351.973C744.83 361.529 754.809 367.488 763.413 373.634C777.085 383.381 789.701 397.542 787.813 413.351C785.771 430.403 768.107 442.458 750.551 448.272C684.698 470.059 459.194 508.331 445.829 411.723C443.285 393.258 454.824 374.96 467.772 360.65C478.072 349.271 535.443 298.128 556.413 288.58C649.823 246.035 741.536 250.996 751.159 301.412Z" fill="url(#paint11_linear_1_471)"/>
</g>
<path d="M683.846 371.57C684.22 369.788 684.593 368.004 684.967 366.218C685.178 365.218 685.362 364.206 685.605 363.095C687.421 363.387 689.192 363.639 690.945 363.96C691.063 364.002 691.189 364.021 691.315 364.016C691.442 364.01 691.566 363.981 691.679 363.929C691.792 363.877 691.892 363.805 691.973 363.715C692.054 363.626 692.114 363.522 692.149 363.411C692.939 361.995 693.825 360.621 694.755 359.281C694.837 359.201 694.9 359.107 694.941 359.004C694.981 358.901 694.998 358.791 694.991 358.681C694.984 358.572 694.953 358.465 694.899 358.367C694.845 358.269 694.77 358.182 694.679 358.112C693.5 356.872 692.359 355.597 691.142 354.263L698.757 348.415C699.93 349.695 701.102 350.941 702.218 352.222C702.284 352.329 702.374 352.422 702.481 352.495C702.589 352.568 702.712 352.62 702.842 352.648C702.973 352.675 703.108 352.678 703.24 352.655C703.371 352.632 703.496 352.584 703.607 352.514C705.137 351.893 706.71 351.363 708.316 350.929C709.049 350.736 709.227 350.467 709.208 349.83C709.17 348.233 709.208 346.637 709.208 344.981H719.143C719.143 346.619 719.181 348.233 719.143 349.847C719.143 350.503 719.328 350.742 720.041 350.935C721.644 351.375 723.214 351.906 724.744 352.526C724.856 352.595 724.982 352.641 725.114 352.662C725.246 352.683 725.382 352.679 725.512 352.649C725.642 352.62 725.764 352.565 725.87 352.49C725.976 352.414 726.064 352.319 726.127 352.21C727.23 350.947 728.389 349.719 729.581 348.42L737.19 354.269L733.29 358.556C734.348 360.311 735.335 362.065 736.387 363.715C736.51 363.816 736.656 363.891 736.815 363.934C736.974 363.976 737.141 363.985 737.305 363.96C739.076 363.709 740.841 363.405 742.734 363.101C743.314 366.107 743.881 369.037 744.461 372.073C742.613 372.371 740.816 372.657 739.025 372.973C738.732 373.032 738.292 373.283 738.254 373.5C737.897 375.395 737.617 377.307 737.292 379.348L742.536 382.138L737.566 390.034L732.296 387.25C730.588 388.502 728.931 389.695 727.319 390.929C727.229 391.037 727.168 391.164 727.14 391.298C727.113 391.432 727.119 391.57 727.16 391.701C727.759 393.315 728.434 394.912 729.071 396.585L719.742 399.702C719.162 398.251 718.544 396.836 718.047 395.38C717.754 394.537 717.352 394.274 716.345 394.356C714.735 394.458 713.119 394.458 711.509 394.356C711.402 394.333 711.291 394.33 711.183 394.347C711.075 394.364 710.971 394.401 710.879 394.456C710.787 394.51 710.708 394.581 710.646 394.665C710.585 394.748 710.542 394.842 710.521 394.941C709.935 396.503 709.297 398.041 708.609 399.696L699.261 396.549L701.345 391.245L696.081 387.151L690.753 389.964L685.783 382.068C687.421 381.197 688.969 380.36 690.543 379.559C690.655 379.521 690.758 379.461 690.844 379.385C690.931 379.309 690.999 379.217 691.045 379.116C691.091 379.014 691.114 378.905 691.112 378.795C691.11 378.685 691.083 378.577 691.034 378.477C690.662 377.01 690.373 375.526 690.167 374.032C690.065 373.307 689.88 372.95 688.995 372.862C687.274 372.675 685.566 372.336 683.852 372.061L683.846 371.57ZM714.262 360.691C707.43 360.527 701.65 365.68 701.434 372.131C701.211 378.477 706.889 383.828 714.007 383.981C717.372 384.012 720.612 382.814 723.016 380.653C725.419 378.491 726.788 375.541 726.822 372.453C726.856 369.364 725.551 366.39 723.196 364.184C720.84 361.979 717.627 360.722 714.262 360.691V360.691Z" fill="#6752E5"/>
<path d="M683.846 371.57C684.22 369.788 684.593 368.004 684.967 366.218C685.178 365.218 685.362 364.206 685.605 363.095C687.421 363.387 689.192 363.639 690.945 363.96C691.063 364.002 691.189 364.021 691.315 364.016C691.442 364.01 691.566 363.981 691.679 363.929C691.792 363.877 691.892 363.805 691.973 363.715C692.054 363.626 692.114 363.522 692.149 363.411C692.939 361.995 693.825 360.621 694.755 359.281C694.837 359.201 694.9 359.107 694.941 359.004C694.981 358.901 694.998 358.791 694.991 358.681C694.984 358.572 694.953 358.465 694.899 358.367C694.845 358.269 694.77 358.182 694.679 358.112C693.5 356.872 692.359 355.597 691.142 354.263L698.757 348.415C699.93 349.695 701.102 350.941 702.218 352.222C702.284 352.329 702.374 352.422 702.481 352.495C702.589 352.568 702.712 352.62 702.842 352.648C702.973 352.675 703.108 352.678 703.24 352.655C703.371 352.632 703.496 352.584 703.607 352.514C705.137 351.893 706.71 351.363 708.316 350.929C709.049 350.736 709.227 350.467 709.208 349.83C709.17 348.233 709.208 346.637 709.208 344.981H719.143C719.143 346.619 719.181 348.233 719.143 349.847C719.143 350.503 719.328 350.742 720.041 350.935C721.644 351.375 723.214 351.906 724.744 352.526C724.856 352.595 724.982 352.641 725.114 352.662C725.246 352.683 725.382 352.679 725.512 352.649C725.642 352.62 725.764 352.565 725.87 352.49C725.976 352.414 726.064 352.319 726.127 352.21C727.23 350.947 728.389 349.719 729.581 348.42L737.19 354.269L733.29 358.556C734.348 360.311 735.335 362.065 736.387 363.715C736.51 363.816 736.656 363.891 736.815 363.934C736.974 363.976 737.141 363.985 737.305 363.96C739.076 363.709 740.841 363.405 742.734 363.101C743.314 366.107 743.881 369.037 744.461 372.073C742.613 372.371 740.816 372.657 739.025 372.973C738.732 373.032 738.292 373.283 738.254 373.5C737.897 375.395 737.617 377.307 737.292 379.348L742.536 382.138L737.566 390.034L732.296 387.25C730.588 388.502 728.931 389.695 727.319 390.929C727.229 391.037 727.168 391.164 727.14 391.298C727.113 391.432 727.119 391.57 727.16 391.701C727.759 393.315 728.434 394.912 729.071 396.585L719.742 399.702C719.162 398.251 718.544 396.836 718.047 395.38C717.754 394.537 717.352 394.274 716.345 394.356C714.735 394.458 713.119 394.458 711.509 394.356C711.402 394.333 711.291 394.33 711.183 394.347C711.075 394.364 710.971 394.401 710.879 394.456C710.787 394.51 710.708 394.581 710.646 394.665C710.585 394.748 710.542 394.842 710.521 394.941C709.935 396.503 709.297 398.041 708.609 399.696L699.261 396.549L701.345 391.245L696.081 387.151L690.753 389.964L685.783 382.068C687.421 381.197 688.969 380.36 690.543 379.559C690.655 379.521 690.758 379.461 690.844 379.385C690.931 379.309 690.999 379.217 691.045 379.116C691.091 379.014 691.114 378.905 691.112 378.795C691.11 378.685 691.083 378.577 691.034 378.477C690.662 377.01 690.373 375.526 690.167 374.032C690.065 373.307 689.88 372.95 688.995 372.862C687.274 372.675 685.566 372.336 683.852 372.061L683.846 371.57ZM714.262 360.691C707.43 360.527 701.65 365.68 701.434 372.131C701.211 378.477 706.889 383.828 714.007 383.981C717.372 384.012 720.612 382.814 723.016 380.653C725.419 378.491 726.788 375.541 726.822 372.453C726.856 369.364 725.551 366.39 723.196 364.184C720.84 361.979 717.627 360.722 714.262 360.691V360.691Z" fill="url(#paint12_linear_1_471)"/>
<path fill-rule="evenodd" clip-rule="evenodd" d="M525.156 307.772H696.971C702.609 307.772 707.18 311.967 707.18 317.142V412.423C707.18 416.22 704.719 419.489 701.182 420.961L735.562 445.626H485.365L521.022 420.993C517.443 419.536 514.947 416.247 514.947 412.423V317.142C514.947 311.967 519.518 307.772 525.156 307.772Z" fill="url(#paint13_linear_1_471)"/>
<path d="M691.312 312.182H529.19C523.869 312.182 519.555 316.141 519.555 321.025V410.926C519.555 415.81 523.869 419.769 529.19 419.769H691.312C696.634 419.769 700.948 415.81 700.948 410.926V321.025C700.948 316.141 696.634 312.182 691.312 312.182Z" fill="white"/>
<g opacity="0.52">
<path opacity="0.52" d="M588.604 322.476H545.539V325.377H588.604V322.476Z" fill="#6752E5"/>
<path opacity="0.52" d="M571.826 328.085H545.539V330.81H571.826V328.085Z" fill="#6752E5"/>
<path opacity="0.52" d="M665.143 328.084H582.428V330.822H665.143V328.084Z" fill="#6752E5"/>
<path opacity="0.52" d="M595.354 333.705H559.209V336.577H595.354V333.705Z" fill="#6752E5"/>
<path opacity="0.52" d="M613.88 339.314H570.814V342.215H613.88V339.314Z" fill="#6752E5"/>
<path opacity="0.52" d="M652.783 339.314H616.689V342.531H652.783V339.314Z" fill="#6752E5"/>
<path opacity="0.52" d="M604.006 344.923H570.748V347.649H604.006V344.923Z" fill="#6752E5"/>
<path opacity="0.52" d="M675.81 344.923H607.191V347.941H675.81V344.923Z" fill="#6752E5"/>
<path opacity="0.52" d="M588.604 352.515H545.539V355.416H588.604V352.515Z" fill="#6752E5"/>
<path opacity="0.52" d="M571.826 358.124H545.539V360.849H571.826V358.124Z" fill="#6752E5"/>
<path opacity="0.52" d="M665.143 358.124H582.428V360.861H665.143V358.124Z" fill="#6752E5"/>
<path opacity="0.52" d="M595.354 363.732H559.209V366.604H595.354V363.732Z" fill="#6752E5"/>
<path opacity="0.52" d="M613.88 369.359H570.814V372.26H613.88V369.359Z" fill="#6752E5"/>
<path opacity="0.52" d="M652.783 369.359H616.689V372.576H652.783V369.359Z" fill="#6752E5"/>
<path opacity="0.52" d="M604.006 374.968H570.748V377.693H604.006V374.968Z" fill="#6752E5"/>
<path opacity="0.52" d="M675.81 374.968H607.191V377.986H675.81V374.968Z" fill="#6752E5"/>
<path opacity="0.52" d="M588.604 382.554H545.539V385.455H588.604V382.554Z" fill="#6752E5"/>
<path opacity="0.52" d="M571.826 388.163H545.539V390.888H571.826V388.163Z" fill="#6752E5"/>
<path opacity="0.52" d="M665.143 388.163H582.428V390.9H665.143V388.163Z" fill="#6752E5"/>
<path opacity="0.52" d="M595.354 393.771H559.209V396.643H595.354V393.771Z" fill="#6752E5"/>
<path opacity="0.52" d="M613.88 399.38H570.814V402.281H613.88V399.38Z" fill="#6752E5"/>
<path opacity="0.52" d="M652.783 399.38H616.689V402.597H652.783V399.38Z" fill="#6752E5"/>
<path opacity="0.52" d="M604.006 405.007H570.748V407.732H604.006V405.007Z" fill="#6752E5"/>
<path opacity="0.52" d="M675.81 405.007H607.191V408.025H675.81V405.007Z" fill="#6752E5"/>
</g>
<path opacity="0.26" d="M500.371 437.871L523.236 439.883C523.79 439.929 524.434 440.035 524.689 440.468C524.788 440.708 524.789 440.974 524.69 441.215C524.592 441.457 524.401 441.656 524.153 441.778C523.648 442.009 523.086 442.118 522.522 442.093L498.421 442.994C497.267 443.125 496.095 442.991 495.012 442.602C493.967 442.14 493.189 440.994 493.604 440C494.094 438.83 495.732 438.602 497.089 438.543" fill="url(#paint14_linear_1_471)"/>
<path d="M495.608 454.656L485.367 445.626H735.564L726.324 455.206L495.608 454.656Z" fill="#6752E5"/>
<path d="M495.608 454.656L485.367 445.626H735.564L726.324 455.206L495.608 454.656Z" fill="url(#paint15_linear_1_471)"/>
<g opacity="0.24">
<path opacity="0.5" d="M683.928 283.063V316.939C683.928 318.929 682.896 320.838 681.06 322.246C679.223 323.654 676.733 324.446 674.135 324.448H627.549L613.802 334.981L603.058 324.448H555.378C554.092 324.447 552.819 324.252 551.632 323.874C550.444 323.496 549.366 322.943 548.458 322.246C547.55 321.548 546.83 320.721 546.339 319.81C545.849 318.899 545.598 317.924 545.6 316.939V283.063C545.608 281.078 546.641 279.177 548.473 277.774C550.305 276.371 552.787 275.581 555.378 275.577H674.135C676.726 275.581 679.21 276.371 681.045 277.773C682.879 279.176 683.916 281.077 683.928 283.063V283.063Z" fill="#6752E5"/>
</g>
<path d="M555.392 274.864H674.135C676.746 274.864 679.089 275.629 680.767 276.841C682.445 278.053 683.428 279.684 683.428 281.436V313.36C683.428 315.112 682.445 316.744 680.767 317.956C679.089 319.168 676.746 319.933 674.135 319.933H555.392C552.781 319.933 550.438 319.168 548.761 317.956C547.082 316.744 546.1 315.112 546.1 313.36V281.436C546.1 279.684 547.082 278.053 548.761 276.841C550.438 275.629 552.781 274.864 555.392 274.864Z" fill="white" stroke="#EFF2FD"/>
<path d="M577.34 301.612C577.292 301.612 577.24 301.596 577.184 301.564C577.136 301.532 577.092 301.508 577.052 301.492L573.272 298.888C573.152 298.808 573.064 298.728 573.008 298.648C572.952 298.56 572.924 298.46 572.924 298.348V298.132C572.924 298.02 572.952 297.924 573.008 297.844C573.064 297.764 573.152 297.68 573.272 297.592L577.052 295C577.092 294.976 577.136 294.948 577.184 294.916C577.24 294.884 577.292 294.868 577.34 294.868C577.404 294.868 577.46 294.892 577.508 294.94C577.556 294.98 577.58 295.04 577.58 295.12V295.648C577.58 295.736 577.556 295.812 577.508 295.876C577.46 295.932 577.392 295.988 577.304 296.044L574.088 298.24L577.304 300.436C577.392 300.5 577.46 300.56 577.508 300.616C577.556 300.672 577.58 300.748 577.58 300.844V301.372C577.58 301.444 577.556 301.504 577.508 301.552C577.46 301.592 577.404 301.612 577.34 301.612ZM582.142 302.032C581.446 302.032 580.862 301.928 580.39 301.72C579.918 301.504 579.554 301.228 579.298 300.892C579.05 300.548 578.918 300.184 578.902 299.8C578.902 299.736 578.926 299.68 578.974 299.632C579.03 299.576 579.094 299.548 579.166 299.548H579.778C579.874 299.548 579.946 299.572 579.994 299.62C580.042 299.668 580.074 299.724 580.09 299.788C580.13 299.98 580.226 300.172 580.378 300.364C580.538 300.548 580.758 300.704 581.038 300.832C581.326 300.952 581.694 301.012 582.142 301.012C582.83 301.012 583.334 300.892 583.654 300.652C583.982 300.404 584.146 300.076 584.146 299.668C584.146 299.388 584.058 299.164 583.882 298.996C583.714 298.82 583.454 298.664 583.102 298.528C582.75 298.392 582.294 298.244 581.734 298.084C581.15 297.916 580.666 297.732 580.282 297.532C579.898 297.332 579.61 297.084 579.418 296.788C579.234 296.492 579.142 296.116 579.142 295.66C579.142 295.228 579.258 294.844 579.49 294.508C579.722 294.164 580.054 293.892 580.486 293.692C580.926 293.492 581.458 293.392 582.082 293.392C582.578 293.392 583.01 293.46 583.378 293.596C583.754 293.724 584.066 293.9 584.314 294.124C584.562 294.34 584.75 294.576 584.878 294.832C585.006 295.08 585.074 295.324 585.082 295.564C585.082 295.62 585.062 295.676 585.022 295.732C584.982 295.78 584.918 295.804 584.83 295.804H584.194C584.138 295.804 584.078 295.788 584.014 295.756C583.958 295.724 583.914 295.664 583.882 295.576C583.834 295.248 583.65 294.972 583.33 294.748C583.01 294.524 582.594 294.412 582.082 294.412C581.562 294.412 581.138 294.512 580.81 294.712C580.49 294.912 580.33 295.224 580.33 295.648C580.33 295.92 580.406 296.148 580.558 296.332C580.71 296.508 580.95 296.664 581.278 296.8C581.606 296.936 582.034 297.08 582.562 297.232C583.202 297.408 583.726 297.596 584.134 297.796C584.542 297.988 584.842 298.232 585.034 298.528C585.234 298.816 585.334 299.188 585.334 299.644C585.334 300.148 585.202 300.58 584.938 300.94C584.674 301.292 584.302 301.564 583.822 301.756C583.35 301.94 582.79 302.032 582.142 302.032ZM589.271 302.032C588.703 302.032 588.211 301.924 587.795 301.708C587.387 301.484 587.071 301.168 586.847 300.76C586.623 300.344 586.503 299.848 586.487 299.272C586.479 299.152 586.475 298.992 586.475 298.792C586.475 298.592 586.479 298.432 586.487 298.312C586.503 297.736 586.623 297.244 586.847 296.836C587.071 296.42 587.387 296.104 587.795 295.888C588.211 295.664 588.703 295.552 589.271 295.552C589.735 295.552 590.131 295.616 590.459 295.744C590.795 295.872 591.071 296.036 591.287 296.236C591.503 296.436 591.663 296.652 591.767 296.884C591.879 297.116 591.939 297.336 591.947 297.544C591.955 297.624 591.931 297.688 591.875 297.736C591.819 297.784 591.751 297.808 591.671 297.808H591.095C591.015 297.808 590.955 297.792 590.915 297.76C590.875 297.72 590.835 297.656 590.795 297.568C590.651 297.176 590.455 296.9 590.207 296.74C589.959 296.58 589.651 296.5 589.283 296.5C588.803 296.5 588.411 296.648 588.107 296.944C587.811 297.24 587.651 297.716 587.627 298.372C587.619 298.66 587.619 298.94 587.627 299.212C587.651 299.876 587.811 300.356 588.107 300.652C588.411 300.94 588.803 301.084 589.283 301.084C589.651 301.084 589.959 301.004 590.207 300.844C590.455 300.684 590.651 300.408 590.795 300.016C590.835 299.928 590.875 299.868 590.915 299.836C590.955 299.796 591.015 299.776 591.095 299.776H591.671C591.751 299.776 591.819 299.8 591.875 299.848C591.931 299.896 591.955 299.96 591.947 300.04C591.939 300.208 591.903 300.38 591.839 300.556C591.775 300.732 591.671 300.912 591.527 301.096C591.391 301.272 591.219 301.432 591.011 301.576C590.803 301.712 590.551 301.824 590.255 301.912C589.967 301.992 589.639 302.032 589.271 302.032ZM593.648 301.912C593.568 301.912 593.5 301.888 593.444 301.84C593.396 301.784 593.372 301.716 593.372 301.636V295.96C593.372 295.88 593.396 295.812 593.444 295.756C593.5 295.7 593.568 295.672 593.648 295.672H594.2C594.28 295.672 594.348 295.7 594.404 295.756C594.46 295.812 594.488 295.88 594.488 295.96V296.488C594.648 296.216 594.868 296.012 595.148 295.876C595.428 295.74 595.764 295.672 596.156 295.672H596.636C596.716 295.672 596.78 295.7 596.828 295.756C596.876 295.804 596.9 295.868 596.9 295.948V296.44C596.9 296.52 596.876 296.584 596.828 296.632C596.78 296.68 596.716 296.704 596.636 296.704H595.916C595.484 296.704 595.144 296.832 594.896 297.088C594.648 297.336 594.524 297.676 594.524 298.108V301.636C594.524 301.716 594.496 301.784 594.44 301.84C594.384 301.888 594.316 301.912 594.236 301.912H593.648ZM598.207 301.912C598.127 301.912 598.059 301.888 598.003 301.84C597.955 301.784 597.931 301.716 597.931 301.636V295.948C597.931 295.868 597.955 295.804 598.003 295.756C598.059 295.7 598.127 295.672 598.207 295.672H598.783C598.863 295.672 598.927 295.7 598.975 295.756C599.023 295.804 599.047 295.868 599.047 295.948V301.636C599.047 301.716 599.023 301.784 598.975 301.84C598.927 301.888 598.863 301.912 598.783 301.912H598.207ZM598.111 294.508C598.031 294.508 597.963 294.484 597.907 294.436C597.859 294.38 597.835 294.312 597.835 294.232V293.584C597.835 293.504 597.859 293.44 597.907 293.392C597.963 293.336 598.031 293.308 598.111 293.308H598.867C598.947 293.308 599.011 293.336 599.059 293.392C599.115 293.44 599.143 293.504 599.143 293.584V294.232C599.143 294.312 599.115 294.38 599.059 294.436C599.011 294.484 598.947 294.508 598.867 294.508H598.111ZM601.242 304.192C601.162 304.192 601.094 304.164 601.038 304.108C600.99 304.06 600.966 303.996 600.966 303.916V295.948C600.966 295.868 600.99 295.804 601.038 295.756C601.094 295.7 601.162 295.672 601.242 295.672H601.794C601.874 295.672 601.938 295.7 601.986 295.756C602.042 295.804 602.07 295.868 602.07 295.948V296.476C602.262 296.212 602.518 295.992 602.838 295.816C603.158 295.64 603.558 295.552 604.038 295.552C604.486 295.552 604.866 295.628 605.178 295.78C605.498 295.932 605.758 296.14 605.958 296.404C606.166 296.668 606.322 296.968 606.426 297.304C606.53 297.64 606.586 298 606.594 298.384C606.602 298.512 606.606 298.648 606.606 298.792C606.606 298.936 606.602 299.072 606.594 299.2C606.586 299.576 606.53 299.936 606.426 300.28C606.322 300.616 606.166 300.916 605.958 301.18C605.758 301.436 605.498 301.644 605.178 301.804C604.866 301.956 604.486 302.032 604.038 302.032C603.574 302.032 603.182 301.948 602.862 301.78C602.55 301.604 602.294 301.388 602.094 301.132V303.916C602.094 303.996 602.07 304.06 602.022 304.108C601.974 304.164 601.906 304.192 601.818 304.192H601.242ZM603.786 301.06C604.202 301.06 604.526 300.972 604.758 300.796C604.998 300.612 605.17 300.376 605.274 300.088C605.378 299.792 605.438 299.476 605.454 299.14C605.462 298.908 605.462 298.676 605.454 298.444C605.438 298.108 605.378 297.796 605.274 297.508C605.17 297.212 604.998 296.976 604.758 296.8C604.526 296.616 604.202 296.524 603.786 296.524C603.394 296.524 603.074 296.616 602.826 296.8C602.586 296.984 602.406 297.22 602.286 297.508C602.174 297.788 602.11 298.076 602.094 298.372C602.086 298.5 602.082 298.652 602.082 298.828C602.082 299.004 602.086 299.16 602.094 299.296C602.102 299.576 602.166 299.852 602.286 300.124C602.414 300.396 602.602 300.62 602.85 300.796C603.098 300.972 603.41 301.06 603.786 301.06ZM610.468 301.912C610.02 301.912 609.656 301.828 609.376 301.66C609.096 301.484 608.892 301.24 608.764 300.928C608.636 300.608 608.572 300.232 608.572 299.8V296.632H607.636C607.556 296.632 607.488 296.608 607.432 296.56C607.384 296.504 607.36 296.436 607.36 296.356V295.948C607.36 295.868 607.384 295.804 607.432 295.756C607.488 295.7 607.556 295.672 607.636 295.672H608.572V293.668C608.572 293.588 608.596 293.524 608.644 293.476C608.7 293.42 608.768 293.392 608.848 293.392H609.412C609.492 293.392 609.556 293.42 609.604 293.476C609.66 293.524 609.688 293.588 609.688 293.668V295.672H611.176C611.256 295.672 611.32 295.7 611.368 295.756C611.424 295.804 611.452 295.868 611.452 295.948V296.356C611.452 296.436 611.424 296.504 611.368 296.56C611.32 296.608 611.256 296.632 611.176 296.632H609.688V299.716C609.688 300.092 609.752 300.388 609.88 300.604C610.008 300.82 610.236 300.928 610.564 300.928H611.296C611.376 300.928 611.44 300.956 611.488 301.012C611.544 301.06 611.572 301.124 611.572 301.204V301.636C611.572 301.716 611.544 301.784 611.488 301.84C611.44 301.888 611.376 301.912 611.296 301.912H610.468ZM616.093 301.912C616.005 301.912 615.937 301.888 615.889 301.84C615.841 301.784 615.817 301.716 615.817 301.636V293.788C615.817 293.708 615.841 293.644 615.889 293.596C615.937 293.54 616.005 293.512 616.093 293.512H616.729C616.809 293.512 616.873 293.54 616.921 293.596C616.977 293.644 617.005 293.708 617.005 293.788V301.636C617.005 301.716 616.977 301.784 616.921 301.84C616.873 301.888 616.809 301.912 616.729 301.912H616.093ZM619.842 301.912C619.762 301.912 619.694 301.888 619.638 301.84C619.59 301.784 619.566 301.716 619.566 301.636V296.632H618.546C618.466 296.632 618.398 296.608 618.342 296.56C618.294 296.504 618.27 296.436 618.27 296.356V295.948C618.27 295.868 618.294 295.804 618.342 295.756C618.398 295.7 618.466 295.672 618.546 295.672H619.566V295.072C619.566 294.664 619.634 294.308 619.77 294.004C619.906 293.692 620.122 293.452 620.418 293.284C620.722 293.116 621.126 293.032 621.63 293.032H622.35C622.43 293.032 622.494 293.06 622.542 293.116C622.59 293.164 622.614 293.228 622.614 293.308V293.716C622.614 293.796 622.59 293.864 622.542 293.92C622.494 293.968 622.43 293.992 622.35 293.992H621.654C621.278 293.992 621.022 294.092 620.886 294.292C620.75 294.484 620.682 294.764 620.682 295.132V295.672H622.23C622.31 295.672 622.374 295.7 622.422 295.756C622.47 295.804 622.494 295.868 622.494 295.948V296.356C622.494 296.436 622.47 296.504 622.422 296.56C622.374 296.608 622.31 296.632 622.23 296.632H620.682V301.636C620.682 301.716 620.654 301.784 620.598 301.84C620.55 301.888 620.486 301.912 620.406 301.912H619.842ZM623.836 301.912C623.756 301.912 623.688 301.888 623.632 301.84C623.584 301.784 623.56 301.716 623.56 301.636V295.96C623.56 295.88 623.584 295.812 623.632 295.756C623.688 295.7 623.756 295.672 623.836 295.672H624.388C624.468 295.672 624.536 295.7 624.592 295.756C624.648 295.812 624.676 295.88 624.676 295.96V296.488C624.836 296.216 625.056 296.012 625.336 295.876C625.616 295.74 625.952 295.672 626.344 295.672H626.824C626.904 295.672 626.968 295.7 627.016 295.756C627.064 295.804 627.088 295.868 627.088 295.948V296.44C627.088 296.52 627.064 296.584 627.016 296.632C626.968 296.68 626.904 296.704 626.824 296.704H626.104C625.672 296.704 625.332 296.832 625.084 297.088C624.836 297.336 624.712 297.676 624.712 298.108V301.636C624.712 301.716 624.684 301.784 624.628 301.84C624.572 301.888 624.504 301.912 624.424 301.912H623.836ZM629.764 302.032C629.364 302.032 629 301.952 628.672 301.792C628.344 301.632 628.08 301.416 627.88 301.144C627.68 300.872 627.58 300.564 627.58 300.22C627.58 299.668 627.804 299.228 628.252 298.9C628.7 298.572 629.284 298.356 630.004 298.252L631.792 298V297.652C631.792 297.268 631.68 296.968 631.456 296.752C631.24 296.536 630.884 296.428 630.388 296.428C630.028 296.428 629.736 296.5 629.512 296.644C629.296 296.788 629.144 296.972 629.056 297.196C629.008 297.316 628.924 297.376 628.804 297.376H628.264C628.176 297.376 628.108 297.352 628.06 297.304C628.02 297.248 628 297.184 628 297.112C628 296.992 628.044 296.844 628.132 296.668C628.228 296.492 628.372 296.32 628.564 296.152C628.756 295.984 629 295.844 629.296 295.732C629.6 295.612 629.968 295.552 630.4 295.552C630.88 295.552 631.284 295.616 631.612 295.744C631.94 295.864 632.196 296.028 632.38 296.236C632.572 296.444 632.708 296.68 632.788 296.944C632.876 297.208 632.92 297.476 632.92 297.748V301.636C632.92 301.716 632.892 301.784 632.836 301.84C632.788 301.888 632.724 301.912 632.644 301.912H632.092C632.004 301.912 631.936 301.888 631.888 301.84C631.84 301.784 631.816 301.716 631.816 301.636V301.12C631.712 301.264 631.572 301.408 631.396 301.552C631.22 301.688 631 301.804 630.736 301.9C630.472 301.988 630.148 302.032 629.764 302.032ZM630.016 301.132C630.344 301.132 630.644 301.064 630.916 300.928C631.188 300.784 631.4 300.564 631.552 300.268C631.712 299.972 631.792 299.6 631.792 299.152V298.816L630.4 299.02C629.832 299.1 629.404 299.236 629.116 299.428C628.828 299.612 628.684 299.848 628.684 300.136C628.684 300.36 628.748 300.548 628.876 300.7C629.012 300.844 629.18 300.952 629.38 301.024C629.588 301.096 629.8 301.132 630.016 301.132ZM634.922 301.912C634.842 301.912 634.774 301.888 634.718 301.84C634.67 301.784 634.646 301.716 634.646 301.636V295.948C634.646 295.868 634.67 295.804 634.718 295.756C634.774 295.7 634.842 295.672 634.922 295.672H635.462C635.542 295.672 635.606 295.7 635.654 295.756C635.71 295.804 635.738 295.868 635.738 295.948V296.368C635.922 296.12 636.154 295.924 636.434 295.78C636.714 295.628 637.05 295.552 637.442 295.552C638.346 295.544 638.986 295.912 639.362 296.656C639.546 296.32 639.814 296.052 640.166 295.852C640.518 295.652 640.918 295.552 641.366 295.552C641.782 295.552 642.158 295.648 642.494 295.84C642.838 296.032 643.106 296.324 643.298 296.716C643.498 297.1 643.598 297.584 643.598 298.168V301.636C643.598 301.716 643.57 301.784 643.514 301.84C643.466 301.888 643.402 301.912 643.322 301.912H642.758C642.678 301.912 642.61 301.888 642.554 301.84C642.506 301.784 642.482 301.716 642.482 301.636V298.276C642.482 297.828 642.418 297.476 642.29 297.22C642.162 296.964 641.99 296.784 641.774 296.68C641.558 296.576 641.322 296.524 641.066 296.524C640.858 296.524 640.646 296.576 640.43 296.68C640.214 296.784 640.034 296.964 639.89 297.22C639.754 297.476 639.686 297.828 639.686 298.276V301.636C639.686 301.716 639.658 301.784 639.602 301.84C639.554 301.888 639.49 301.912 639.41 301.912H638.846C638.766 301.912 638.698 301.888 638.642 301.84C638.594 301.784 638.57 301.716 638.57 301.636V298.276C638.57 297.828 638.502 297.476 638.366 297.22C638.23 296.964 638.054 296.784 637.838 296.68C637.622 296.576 637.394 296.524 637.154 296.524C636.946 296.524 636.734 296.576 636.518 296.68C636.302 296.784 636.122 296.964 635.978 297.22C635.842 297.476 635.774 297.824 635.774 298.264V301.636C635.774 301.716 635.746 301.784 635.69 301.84C635.642 301.888 635.578 301.912 635.498 301.912H634.922ZM647.794 302.032C646.97 302.032 646.314 301.78 645.826 301.276C645.338 300.764 645.07 300.068 645.022 299.188C645.014 299.084 645.01 298.952 645.01 298.792C645.01 298.624 645.014 298.488 645.022 298.384C645.054 297.816 645.186 297.32 645.418 296.896C645.65 296.464 645.966 296.132 646.366 295.9C646.774 295.668 647.25 295.552 647.794 295.552C648.402 295.552 648.91 295.68 649.318 295.936C649.734 296.192 650.05 296.556 650.266 297.028C650.482 297.5 650.59 298.052 650.59 298.684V298.888C650.59 298.976 650.562 299.044 650.506 299.092C650.458 299.14 650.394 299.164 650.314 299.164H646.162C646.162 299.172 646.162 299.188 646.162 299.212C646.162 299.236 646.162 299.256 646.162 299.272C646.178 299.6 646.25 299.908 646.378 300.196C646.506 300.476 646.69 300.704 646.93 300.88C647.17 301.056 647.458 301.144 647.794 301.144C648.082 301.144 648.322 301.1 648.514 301.012C648.706 300.924 648.862 300.828 648.982 300.724C649.102 300.612 649.182 300.528 649.222 300.472C649.294 300.368 649.35 300.308 649.39 300.292C649.43 300.268 649.494 300.256 649.582 300.256H650.158C650.238 300.256 650.302 300.28 650.35 300.328C650.406 300.368 650.43 300.428 650.422 300.508C650.414 300.628 650.35 300.776 650.23 300.952C650.11 301.12 649.938 301.288 649.714 301.456C649.49 301.624 649.218 301.764 648.898 301.876C648.578 301.98 648.21 302.032 647.794 302.032ZM646.162 298.336H649.45V298.3C649.45 297.94 649.382 297.62 649.246 297.34C649.118 297.06 648.93 296.84 648.682 296.68C648.434 296.512 648.138 296.428 647.794 296.428C647.45 296.428 647.154 296.512 646.906 296.68C646.666 296.84 646.482 297.06 646.354 297.34C646.226 297.62 646.162 297.94 646.162 298.3V298.336ZM652.192 301.6C652.128 301.6 652.072 301.58 652.024 301.54C651.976 301.5 651.952 301.44 651.952 301.36V300.832C651.952 300.736 651.972 300.66 652.012 300.604C652.06 300.548 652.132 300.492 652.228 300.436L655.432 298.24L652.228 296.044C652.132 295.98 652.06 295.92 652.012 295.864C651.972 295.808 651.952 295.732 651.952 295.636V295.108C651.952 295.028 651.976 294.968 652.024 294.928C652.072 294.888 652.128 294.868 652.192 294.868C652.24 294.868 652.292 294.884 652.348 294.916C652.404 294.94 652.448 294.964 652.48 294.988L656.248 297.58C656.376 297.668 656.464 297.752 656.512 297.832C656.568 297.912 656.596 298.012 656.596 298.132V298.336C656.596 298.448 656.568 298.548 656.512 298.636C656.464 298.716 656.376 298.8 656.248 298.888L652.48 301.48C652.448 301.504 652.404 301.532 652.348 301.564C652.292 301.588 652.24 301.6 652.192 301.6Z" fill="#6752E5"/>
<path d="M602.662 318.247L613.476 330.927L626.693 318.797L602.662 318.247Z" fill="white"/>
<path d="M542.939 357.059L529.296 353.684L522.299 368.598L524.612 372.733L533.98 372.242L542.939 357.059Z" fill="url(#paint16_linear_1_471)"/>
<defs>
<filter id="filter0_d_1_471" x="105.396" y="0.501953" width="374.527" height="269.616" filterUnits="userSpaceOnUse" color-interpolation-filters="sRGB">
<feFlood flood-opacity="0" result="BackgroundImageFix"/>
<feColorMatrix in="SourceAlpha" type="matrix" values="0 0 0 0 0 0 0 0 0 0 0 0 0 0 0 0 0 0 127 0" result="hardAlpha"/>
<feOffset dy="4"/>
<feGaussianBlur stdDeviation="8"/>
<feColorMatrix type="matrix" values="0 0 0 0 0.0941176 0 0 0 0 0.117647 0 0 0 0 0.188235 0 0 0 0.06 0"/>
<feBlend mode="normal" in2="BackgroundImageFix" result="effect1_dropShadow_1_471"/>
<feBlend mode="normal" in="SourceGraphic" in2="effect1_dropShadow_1_471" result="shape"/>
</filter>
<filter id="filter1_d_1_471" x="0" y="286.611" width="374.527" height="290.225" filterUnits="userSpaceOnUse" color-interpolation-filters="sRGB">
<feFlood flood-opacity="0" result="BackgroundImageFix"/>
<feColorMatrix in="SourceAlpha" type="matrix" values="0 0 0 0 0 0 0 0 0 0 0 0 0 0 0 0 0 0 127 0" result="hardAlpha"/>
<feOffset dy="4"/>
<feGaussianBlur stdDeviation="8"/>
<feColorMatrix type="matrix" values="0 0 0 0 0.0941176 0 0 0 0 0.117647 0 0 0 0 0.188235 0 0 0 0.06 0"/>
<feBlend mode="normal" in2="BackgroundImageFix" result="effect1_dropShadow_1_471"/>
<feBlend mode="normal" in="SourceGraphic" in2="effect1_dropShadow_1_471" result="shape"/>
</filter>
<filter id="filter2_d_1_471" x="429.475" y="247.816" width="374.527" height="246.582" filterUnits="userSpaceOnUse" color-interpolation-filters="sRGB">
<feFlood flood-opacity="0" result="BackgroundImageFix"/>
<feColorMatrix in="SourceAlpha" type="matrix" values="0 0 0 0 0 0 0 0 0 0 0 0 0 0 0 0 0 0 127 0" result="hardAlpha"/>
<feOffset dy="4"/>
<feGaussianBlur stdDeviation="8"/>
<feColorMatrix type="matrix" values="0 0 0 0 0.0941176 0 0 0 0 0.117647 0 0 0 0 0.188235 0 0 0 0.06 0"/>
<feBlend mode="normal" in2="BackgroundImageFix" result="effect1_dropShadow_1_471"/>
<feBlend mode="normal" in="SourceGraphic" in2="effect1_dropShadow_1_471" result="shape"/>
</filter>
<linearGradient id="paint0_linear_1_471" x1="292.66" y1="12.502" x2="292.66" y2="250.118" gradientUnits="userSpaceOnUse">
<stop stop-color="white"/>
<stop offset="1" stop-color="white" stop-opacity="0"/>
</linearGradient>
<linearGradient id="paint1_linear_1_471" x1="29653.8" y1="10635.8" x2="18994.2" y2="11268.5" gradientUnits="userSpaceOnUse">
<stop stop-color="#010101" stop-opacity="0"/>
<stop offset="0.95" stop-color="#010101"/>
</linearGradient>
<linearGradient id="paint2_linear_1_471" x1="418.07" y1="129.385" x2="167.873" y2="129.385" gradientUnits="userSpaceOnUse">
<stop stop-color="#DD558A"/>
<stop offset="1" stop-color="#6752E6"/>
</linearGradient>
<linearGradient id="paint3_linear_1_471" x1="4404.19" y1="1724.7" x2="4394.69" y2="1957.72" gradientUnits="userSpaceOnUse">
<stop stop-color="#010101" stop-opacity="0"/>
<stop offset="0.95" stop-color="#010101"/>
</linearGradient>
<linearGradient id="paint4_linear_1_471" x1="66745.2" y1="3516.89" x2="66749.6" y2="2462.78" gradientUnits="userSpaceOnUse">
<stop stop-color="#010101" stop-opacity="0"/>
<stop offset="0.95" stop-color="#010101"/>
</linearGradient>
<linearGradient id="paint5_linear_1_471" x1="-16222.3" y1="2797.74" x2="-16188.6" y2="3874.21" gradientUnits="userSpaceOnUse">
<stop stop-color="white" stop-opacity="0"/>
<stop offset="0.95" stop-color="white"/>
</linearGradient>
<linearGradient id="paint6_linear_1_471" x1="187.263" y1="298.611" x2="187.263" y2="556.836" gradientUnits="userSpaceOnUse">
<stop stop-color="white"/>
<stop offset="1" stop-color="white" stop-opacity="0"/>
</linearGradient>
<linearGradient id="paint7_linear_1_471" x1="29532.6" y1="10947.3" x2="18873" y2="11580.1" gradientUnits="userSpaceOnUse">
<stop stop-color="#010101" stop-opacity="0"/>
<stop offset="0.95" stop-color="#010101"/>
</linearGradient>
<linearGradient id="paint8_linear_1_471" x1="296.87" y1="440.952" x2="46.6738" y2="440.952" gradientUnits="userSpaceOnUse">
<stop stop-color="#DD558A"/>
<stop offset="1" stop-color="#6752E6"/>
</linearGradient>
<linearGradient id="paint9_linear_1_471" x1="66624" y1="3828.45" x2="66628.4" y2="2774.35" gradientUnits="userSpaceOnUse">
<stop stop-color="#010101" stop-opacity="0"/>
<stop offset="0.95" stop-color="#010101"/>
</linearGradient>
<linearGradient id="paint10_linear_1_471" x1="-16343.5" y1="3109.31" x2="-16309.8" y2="4185.77" gradientUnits="userSpaceOnUse">
<stop stop-color="white" stop-opacity="0"/>
<stop offset="0.95" stop-color="white"/>
</linearGradient>
<linearGradient id="paint11_linear_1_471" x1="616.738" y1="259.816" x2="616.738" y2="474.398" gradientUnits="userSpaceOnUse">
<stop stop-color="white"/>
<stop offset="1" stop-color="white" stop-opacity="0"/>
</linearGradient>
<linearGradient id="paint12_linear_1_471" x1="29971.2" y1="10883.1" x2="19311.7" y2="11515.8" gradientUnits="userSpaceOnUse">
<stop stop-color="#010101" stop-opacity="0"/>
<stop offset="0.95" stop-color="#010101"/>
</linearGradient>
<linearGradient id="paint13_linear_1_471" x1="735.562" y1="376.699" x2="485.365" y2="376.699" gradientUnits="userSpaceOnUse">
<stop stop-color="#DD558A"/>
<stop offset="1" stop-color="#6752E6"/>
</linearGradient>
<linearGradient id="paint14_linear_1_471" x1="4721.69" y1="1972.02" x2="4712.18" y2="2205.03" gradientUnits="userSpaceOnUse">
<stop stop-color="#010101" stop-opacity="0"/>
<stop offset="0.95" stop-color="#010101"/>
</linearGradient>
<linearGradient id="paint15_linear_1_471" x1="67062.7" y1="3764.2" x2="67067.1" y2="2710.1" gradientUnits="userSpaceOnUse">
<stop stop-color="#010101" stop-opacity="0"/>
<stop offset="0.95" stop-color="#010101"/>
</linearGradient>
<linearGradient id="paint16_linear_1_471" x1="-15904.8" y1="3045.05" x2="-15871.1" y2="4121.52" gradientUnits="userSpaceOnUse">
<stop stop-color="white" stop-opacity="0"/>
<stop offset="0.95" stop-color="white"/>
</linearGradient>
</defs>
</svg>
