<svg width="572" height="186" viewBox="0 0 572 186" fill="none" xmlns="http://www.w3.org/2000/svg">
<g filter="url(#filter0_d_1_388)">
<rect x="16" y="12" width="539.231" height="154" rx="16" fill="white"/>
<rect x="16" y="12" width="539.231" height="154" rx="16" fill="url(#paint0_linear_1_388)"/>
</g>
<mask id="mask0_1_388" style="mask-type:alpha" maskUnits="userSpaceOnUse" x="16" y="12" width="159" height="154">
<path d="M174.175 12H32C23.1634 12 16 19.1634 16 28V150C16 158.837 23.1634 166 32 166H174.175V12Z" fill="#D6DFFB"/>
</mask>
<g mask="url(#mask0_1_388)">
<path d="M174.175 12H16V166H174.175V12Z" fill="#D9E1FC"/>
<path d="M124.696 45.8226L104.015 119.117L60.9781 177.333L47.4883 168.44L77.3972 111.364L72.379 53.7854L114.783 36.0811L124.696 45.8226Z" fill="#25233A"/>
<path d="M160.068 171.16L144.975 180.061C144.975 180.061 129.558 128.959 118.828 113.589C93.891 77.8649 73.5175 54.134 73.5175 54.134L109.308 37.2176L109.755 37L116.839 52.633L145.361 100.793L148.968 116.261L160.068 171.16Z" fill="#3F3D56"/>
<path d="M39.17 114.253L35.416 145.047L97.0068 152.221L109.911 150.683L104.422 95.2507L101.216 91.7158L39.17 114.253Z" fill="#3F3D56"/>
<path d="M97.5976 151.006L101.128 102.794L104.196 96.8198L108.151 149.4L97.5976 151.006Z" fill="url(#paint1_linear_1_388)"/>
<path d="M61.0236 75.7976C61.0236 75.7976 55.7972 78.7996 55.5352 87.3554H59.4819C59.4819 87.3554 59.744 81.0736 62.7734 80.4357L61.0236 75.7976Z" fill="#3F3D56"/>
<path d="M125.572 53.3881L115.305 36.0815L103.48 56.0749C103.48 56.0749 83.8 55.8948 71.8133 53.5457L70.2716 53.223C65.6465 52.1723 62.4938 50.7388 62.8252 48.7725C63.1336 46.9713 64.3669 41.4926 65.238 34.1677C66.2551 26.2467 66.4565 18.2466 65.8393 10.2866C65.2842 3.98992 62.4398 -2.39687 60.2969 -8.18325C59.1918 -10.89 58.3931 -13.7061 57.9149 -16.5814C57.0978 -23.0207 56.3193 -27.9665 55.6795 -30.0905C54.7544 -33.19 54.4924 -37.5955 54.6234 -42.1811C54.8624 -51.2697 56.6122 -61.1163 57.6605 -63.1952C58.7089 -65.2741 68.0516 -69.4168 73.779 -71.7659C76.3459 -72.8391 78.1728 -73.5371 78.1728 -73.5371H101.082L120.832 -62.7674C120.832 -62.7674 124.686 -39.3066 125.225 -34.4284C125.734 -29.6702 119.398 -9.53415 118.858 -4.18306C117.532 9.16089 125.572 53.3881 125.572 53.3881Z" fill="url(#paint2_linear_1_388)"/>
<path d="M86.0902 3.26165L73.8569 53.2152H70.2185C65.5934 52.1645 62.4406 50.731 62.7721 48.7647C63.3656 45.3049 67.3971 27.9457 65.7938 10.2789C64.9381 0.694922 58.8561 -8.98657 57.8926 -16.5742L72.6466 -32.6274L86.0902 3.26165Z" fill="url(#paint3_linear_1_388)"/>
<path d="M71.7844 53.5456L72.6477 56.0748L60.214 60.7805L58.4256 61.4634C58.4256 61.4634 36.7031 18.7748 35.516 13.3937C34.3289 8.01255 43.4172 -40.0647 57.6393 -63.1577C58.9234 -62.4767 60.1664 -61.725 61.3625 -60.9062C66.3422 -57.5965 74.7753 -50.6843 76.818 -40.8152L60.2448 -8.1683L54.5713 3.0217L65.1859 34.1676L71.7844 53.5456Z" fill="url(#paint4_linear_1_388)"/>
<path d="M70.9116 56.7354C70.9116 56.7354 80.0153 64.9233 80.6782 66.717C81.3412 68.5107 80.6782 73.2539 80.6782 73.2539H78.967L78.5738 78.3799C78.5738 78.3799 77.803 81.9748 75.9375 81.8472C74.2354 81.8785 72.5451 82.1309 70.9116 82.5977C70.9116 82.5977 64.4827 82.0874 62.7714 80.4212C61.0601 78.7551 60.1351 70.9424 60.2662 68.7659C60.3972 66.5895 60.2662 60.1802 60.2662 60.1802L70.9116 56.7354Z" fill="url(#paint5_linear_1_388)"/>
<path d="M80.676 73.2539C80.676 73.2539 83.9213 72.9987 85.6788 80.1735C87.4363 87.3483 87.0817 89.93 87.0817 89.93H82.341C82.341 89.93 81.2079 78.3798 78.6641 77.1715L78.9647 73.2463L80.676 73.2539Z" fill="#3F3D56"/>
<path d="M104.419 95.2438L101.621 115.17C101.442 116.447 100.763 117.607 99.7254 118.409C98.6883 119.21 97.3733 119.59 96.0551 119.47L39.1665 114.216C38.4972 114.162 37.8456 113.979 37.249 113.679C36.6523 113.379 36.1222 112.967 35.6891 112.467C35.256 111.967 34.9283 111.389 34.7247 110.766C34.5212 110.143 34.4458 109.487 34.5029 108.835C34.5029 108.738 34.5029 108.633 34.5414 108.535L37.2239 90.343C37.4074 89.1012 38.0646 87.9722 39.0645 87.1808C40.0644 86.3895 41.3338 85.9938 42.6199 86.0726L99.6627 89.585C101.02 89.668 102.287 90.2717 103.188 91.2637C104.088 92.2556 104.547 93.5547 104.465 94.876C104.45 94.9961 104.434 95.1237 104.419 95.2438Z" fill="#3F3D56"/>
<path d="M107.936 -26.3384L115.128 -15.4861L115.305 36.0885L125.573 53.3951C125.573 53.3951 115.552 10.046 118.858 -4.16099C122.165 -18.368 120.832 -20.6721 120.832 -20.6721L107.936 -26.3384Z" fill="url(#paint6_linear_1_388)"/>
<path opacity="0.24" d="M104.42 95.2435L101.622 115.169C101.443 116.447 100.764 117.607 99.727 118.408C98.6899 119.21 97.3749 119.59 96.0566 119.47L39.1681 114.216C38.3746 114.142 37.6096 113.89 36.9329 113.48C36.2563 113.07 35.6863 112.513 35.2676 111.852H37.8037L89.2732 116.355C89.2732 116.355 96.5885 117.031 98.2998 112.145C100.011 107.259 102.27 90.4553 102.27 90.4553C103.047 90.9825 103.659 91.7089 104.039 92.554C104.419 93.3991 104.551 94.3299 104.42 95.2435Z" fill="white"/>
<path opacity="0.24" d="M96.0586 119.47L92.4125 146.533L35.416 145.047L97.0068 152.222L100.005 118.179L96.0586 119.47Z" fill="white"/>
</g>
<rect x="194.717" y="32" width="196.178" height="12" rx="6" fill="#6752E5"/>
<rect x="194.717" y="56" width="323.539" height="8" rx="4" fill="#6752E5"/>
<rect x="194.717" y="76" width="323.539" height="8" rx="4" fill="#6752E5"/>
<rect x="194.717" y="96" width="323.539" height="8" rx="4" fill="#6752E5"/>
<rect x="194.717" y="130" width="16.4337" height="16" rx="8" fill="#6752E5"/>
<rect x="248.126" y="130" width="16.4337" height="16" rx="8" fill="#6752E5"/>
<rect x="221.422" y="130" width="16.4337" height="16" rx="8" fill="#6752E5"/>
<rect x="274.831" y="130" width="16.4337" height="16" rx="8" fill="#6752E5"/>
<defs>
<filter id="filter0_d_1_388" x="0" y="0" width="571.231" height="186" filterUnits="userSpaceOnUse" color-interpolation-filters="sRGB">
<feFlood flood-opacity="0" result="BackgroundImageFix"/>
<feColorMatrix in="SourceAlpha" type="matrix" values="0 0 0 0 0 0 0 0 0 0 0 0 0 0 0 0 0 0 127 0" result="hardAlpha"/>
<feOffset dy="4"/>
<feGaussianBlur stdDeviation="8"/>
<feColorMatrix type="matrix" values="0 0 0 0 0.0941176 0 0 0 0 0.117647 0 0 0 0 0.188235 0 0 0 0.06 0"/>
<feBlend mode="normal" in2="BackgroundImageFix" result="effect1_dropShadow_1_388"/>
<feBlend mode="normal" in="SourceGraphic" in2="effect1_dropShadow_1_388" result="shape"/>
</filter>
<linearGradient id="paint0_linear_1_388" x1="285.616" y1="12" x2="285.616" y2="166" gradientUnits="userSpaceOnUse">
<stop stop-color="white"/>
<stop offset="1" stop-color="white" stop-opacity="0"/>
</linearGradient>
<linearGradient id="paint1_linear_1_388" x1="107.187" y1="118.022" x2="97.4688" y2="150.499" gradientUnits="userSpaceOnUse">
<stop stop-opacity="0"/>
<stop offset="0.91" stop-opacity="0.8"/>
<stop offset="1"/>
</linearGradient>
<linearGradient id="paint2_linear_1_388" x1="125.572" y1="-8.73109" x2="54.5918" y2="-8.73109" gradientUnits="userSpaceOnUse">
<stop stop-color="#D61F66"/>
<stop offset="1" stop-color="#6752E6"/>
</linearGradient>
<linearGradient id="paint3_linear_1_388" x1="50.4588" y1="-42.4978" x2="71.7585" y2="105.998" gradientUnits="userSpaceOnUse">
<stop stop-opacity="0"/>
<stop offset="0.87" stop-opacity="0.74"/>
<stop offset="0.91" stop-opacity="0.8"/>
<stop offset="1"/>
</linearGradient>
<linearGradient id="paint4_linear_1_388" x1="76.818" y1="-0.847123" x2="35.4121" y2="-0.847123" gradientUnits="userSpaceOnUse">
<stop stop-color="#D61F66"/>
<stop offset="1" stop-color="#6752E6"/>
</linearGradient>
<linearGradient id="paint5_linear_1_388" x1="7495.88" y1="5505.93" x2="8052.8" y2="5505.93" gradientUnits="userSpaceOnUse">
<stop stop-color="#ECC4D7"/>
<stop offset="0.42" stop-color="#EFD4D1"/>
<stop offset="1" stop-color="#F2EAC9"/>
</linearGradient>
<linearGradient id="paint6_linear_1_388" x1="103.286" y1="-35.5063" x2="131.968" y2="99.1501" gradientUnits="userSpaceOnUse">
<stop stop-opacity="0"/>
<stop offset="0.87" stop-opacity="0.74"/>
<stop offset="0.91" stop-opacity="0.8"/>
<stop offset="1"/>
</linearGradient>
</defs>
</svg>
