<svg width="572" height="186" viewBox="0 0 572 186" fill="none" xmlns="http://www.w3.org/2000/svg">
<g filter="url(#filter0_d_21_776)">
<path d="M16 28C16 19.1634 23.1634 12 32 12H539.231C548.068 12 555.231 19.1634 555.231 28V150C555.231 158.837 548.068 166 539.231 166H32C23.1635 166 16 158.837 16 150V28Z" fill="white"/>
<path d="M16 28C16 19.1634 23.1634 12 32 12H539.231C548.068 12 555.231 19.1634 555.231 28V150C555.231 158.837 548.068 166 539.231 166H32C23.1635 166 16 158.837 16 150V28Z" fill="url(#paint0_linear_21_776)"/>
</g>
<mask id="mask0_21_776" style="mask-type:alpha" maskUnits="userSpaceOnUse" x="16" y="12" width="159" height="154">
<path d="M174.175 12H32C23.1634 12 16 19.1634 16 28V150C16 158.837 23.1634 166 32 166H174.175V12Z" fill="#7694F0"/>
</mask>
<g mask="url(#mask0_21_776)">
<path d="M174.175 12H16V166H174.175V12Z" fill="#D9E1FC"/>
<path d="M50.5337 158.848C47.8866 166.219 45.5972 173.847 45.5495 181.66C45.5018 189.473 47.9343 197.564 53.5982 203.09C61.8853 211.217 74.787 212.111 86.5083 212.564L102.009 213.167C108.103 213.399 114.255 213.632 120.229 212.447C126.203 211.263 132.046 208.465 135.73 203.706C138.1 200.329 139.687 196.49 140.381 192.456C144.578 172.616 137.769 151.476 124.975 135.501C121.255 130.65 116.715 126.449 111.549 123.079C102.939 117.751 77.3149 109.764 68.8966 118.691C65.069 122.743 62.6485 130.951 60.2279 135.919C56.5806 143.389 53.3447 151.043 50.5337 158.848V158.848Z" fill="white"/>
<path d="M138.617 120.235C138.617 120.235 148.061 139.391 147.047 144.615C146.344 148.295 139.106 151.522 136.244 153.194C133.383 154.866 130.509 156.921 127.54 158.058C124.571 159.196 121.184 158.755 118.168 158.662L102.666 158.174C101.927 158.174 100.938 157.907 100.938 157.176C100.938 156.746 101.319 156.41 101.689 156.166C102.848 155.379 104.194 154.892 105.6 154.75C108.949 154.543 112.258 153.927 115.449 152.915L133.287 140.958L128.983 133.191L138.617 120.235Z" fill="#FDBAAC"/>
<path fill-rule="evenodd" clip-rule="evenodd" d="M107.268 84.665C107.268 84.665 121.815 90.7947 123.52 92.1878C123.583 92.2387 123.636 92.4306 123.68 92.7521C127.754 95.9725 134.906 105.444 138.974 110.972C140.023 112.417 140.865 113.591 141.381 114.311C141.627 114.655 141.799 114.895 141.884 115.012C142.288 115.5 142.591 116.06 142.778 116.66C142.848 117.21 142.8 117.768 142.638 118.3C142.476 118.831 142.203 119.324 141.836 119.748C140.667 121.386 139.106 122.655 137.538 123.928C136.884 124.46 136.228 124.992 135.6 125.553C133.197 127.868 131.044 130.416 129.173 133.157C127.725 132.15 126.405 130.981 125.238 129.674C124.361 129.027 123.633 128.211 123.097 127.282C122.189 151.684 120.77 180.247 120.587 182.612C120.265 186.768 96.9893 187.43 86.9255 185.561C80.2108 184.229 73.6396 182.286 67.2987 179.756C67.2987 179.756 66.3679 154.082 65.8277 130.248L65.8237 130.255C64.2038 131.367 62.4837 132.335 60.6845 133.145C57.7035 129.562 54.8338 125.897 52.0754 122.151C51.6048 121.586 51.256 120.935 51.0499 120.236C50.9292 119.311 51.0693 118.372 51.4553 117.519C52.4496 114.713 53.6449 111.978 55.0325 109.335C55.3882 108.669 55.7467 108.011 56.1031 107.356C58.0763 103.734 59.9845 100.231 60.9945 96.1698C61.6764 93.3109 63.5348 91.5483 66.2518 90.2624C68.886 88.5604 87.3309 83.0049 87.3309 83.0049L107.268 84.665Z" fill="url(#paint1_linear_21_776)"/>
<path d="M101.966 74.0084C102.082 74.5597 102.158 75.1184 102.193 75.6801C102.348 77.9323 102.109 80.2425 102.801 82.3902C103.068 83.1641 103.428 83.9044 103.874 84.596C105.532 87.15 103.481 91.3177 102.026 93.6396C100.178 96.5767 97.2563 99.4442 93.548 99.7925C88.8857 100.199 86.8587 95.1488 86.0001 91.5615C85.4993 89.4951 85.0701 88.0091 85.869 85.9659C86.6679 83.9226 87.908 81.9723 88.54 79.813C89.0704 77.3247 89.3737 74.7957 89.4461 72.2554C89.4776 71.5787 89.6608 70.917 89.9827 70.3166C90.2555 69.9239 90.6076 69.5896 91.0177 69.3341C91.4277 69.0786 91.8871 68.9073 92.3675 68.8306C93.3085 68.6699 94.2683 68.6426 95.2173 68.7494C96.6855 68.746 98.1317 69.097 99.4265 69.771C100.117 70.2784 100.697 70.9143 101.133 71.6417C101.569 72.3691 101.852 73.1735 101.966 74.0084V74.0084Z" fill="#FDBAAC"/>
<path d="M89.0273 77.8279C89.0273 77.8279 90.9233 89.3791 95.9671 87.301C101.011 85.223 102.239 78.5941 102.239 78.5941L89.0273 77.8279Z" fill="#DEA095"/>
<path d="M104.014 84.5142C104.014 84.5142 99.5546 97.8881 94.8565 99.6759C94.8565 99.6759 93.6045 100.477 97.3009 102.218C100.997 103.96 109.869 92.8496 107.77 85.4662C107.532 84.5218 107.048 83.653 106.365 82.9434C105.682 82.2338 104.823 81.7073 103.871 81.4146L104.014 84.5142Z" fill="white"/>
<path d="M86.3551 83.2137C86.3551 83.2137 85.6755 92.8262 90.2066 99.0139C90.2066 99.0139 88.7637 101.591 87.3567 101.719C85.9497 101.847 81.6928 93.9523 82.5871 87.6833C83.0045 84.0728 85.5562 82.3082 86.3551 83.2137Z" fill="white"/>
<path d="M82.4302 52.0541C82.4302 52.0541 82.6687 69.9208 84.5169 74.5761C86.3651 79.2314 90.9559 82.9695 95.1531 82.598C99.3503 82.2265 105.36 78.2562 107.602 71.8711C109.843 65.486 109.843 50.336 108.949 48.3508C108.055 46.3656 103.238 40.2824 92.1244 42.2559C84.4811 43.6142 82.1798 49.326 82.4302 52.0541Z" fill="#FDBAAC"/>
<path d="M80.1056 58.6719C79.9696 58.6315 79.8243 58.6315 79.6883 58.6719C79.5559 58.7551 79.4488 58.8714 79.3782 59.0086C78.8939 59.8475 78.7292 60.826 78.9132 61.7716C79.1141 62.5499 79.4188 63.2992 79.8194 64.0005C80.2272 65.1396 80.9541 66.1449 81.918 66.9029C82.1114 67.0381 82.3488 67.1 82.5858 67.077C82.7581 67.0477 82.9166 66.9665 83.0389 66.8448C83.6575 66.1333 83.9807 65.2224 83.9451 64.2908C84.2028 62.9894 83.9564 61.6412 83.2535 60.5062C82.9006 59.9929 82.4353 59.5623 81.891 59.2451C81.3467 58.928 80.7369 58.7322 80.1056 58.6719V58.6719Z" fill="#FDBAAC"/>
<path d="M111.385 58.3813C111.523 58.3524 111.665 58.3524 111.802 58.3813C111.932 58.4673 112.039 58.5829 112.113 58.718C112.591 59.5631 112.755 60.5432 112.578 61.4926C112.362 62.2662 112.058 63.0138 111.671 63.7215C111.262 64.8567 110.535 65.8579 109.573 66.6122C109.377 66.7524 109.135 66.8184 108.893 66.798C108.727 66.7608 108.575 66.6806 108.452 66.5658C107.835 65.8531 107.512 64.943 107.546 64.0118C107.28 62.7104 107.527 61.3594 108.237 60.2272C108.589 59.7118 109.054 59.2789 109.598 58.9597C110.142 58.6405 110.753 58.4429 111.385 58.3813V58.3813Z" fill="#FDBAAC"/>
<path d="M79.2839 50.4056C78.9024 48.0837 78.8189 45.402 80.4763 43.6954C80.8221 43.3355 81.2395 43.0453 81.5972 42.697C81.9549 42.3488 82.5034 41.6406 82.9684 41.1066C84.3552 39.645 86.0421 38.4836 87.9196 37.6976C89.7971 36.9116 91.8234 36.5186 93.8669 36.5441C97.9437 36.6239 101.976 37.3817 105.791 38.7847C107.937 39.4658 110.068 40.2049 112.182 41.0021C113.004 41.2541 113.763 41.6691 114.412 42.2211C114.871 42.716 115.18 43.3254 115.305 43.9814C115.429 44.6374 115.363 45.3141 115.115 45.936C114.758 46.9228 114.018 47.7587 113.72 48.7571C113.542 49.5456 113.47 50.3534 113.506 51.1602C113.43 53.3063 112.851 55.4071 111.812 57.3015C111.239 58.5071 110.281 59.5004 109.082 60.1341C109.176 57.2336 108.773 54.338 107.889 51.5665C105.362 53.5513 102.288 54.7632 99.0538 55.0493C95.8336 55.3189 92.5904 54.9597 89.5147 53.9928C88.764 53.6777 87.9358 53.581 87.1299 53.7142C86.3548 53.9232 85.7348 54.8751 86.176 55.502C86.0244 55.4081 85.8551 55.3444 85.6781 55.3146C85.501 55.2848 85.3196 55.2895 85.1444 55.3283C84.9692 55.3672 84.8037 55.4395 84.6573 55.5411C84.511 55.6426 84.3869 55.7714 84.292 55.92C83.9437 56.5418 83.7748 57.2438 83.8031 57.9516L83.6004 62.3863C80.8698 59.2634 79.9517 54.4572 79.2839 50.4056Z" fill="#FC682D"/>
<path d="M51.0246 120.235C49.0691 124.194 47.2686 128.246 45.6707 132.355C44.4727 135.206 43.5233 138.15 42.8328 141.155C42.5824 142.316 41.9982 143.907 42.4393 145.079C43.119 146.879 45.9211 148.283 47.4951 149.212C52.5111 152.204 57.7344 154.854 63.1274 157.141C65.2178 158.116 67.4308 158.818 69.7094 159.231C71.4973 159.444 73.3016 159.494 75.099 159.382L85.449 159.033C86.391 159.033 87.6192 158.72 87.7026 157.803C87.7026 157.164 87.1422 156.642 86.5818 156.305C84.7358 155.168 82.7266 154.303 80.6198 153.74C78.557 153.194 76.0052 153.565 74.0616 152.892C71.8676 152.138 69.4232 149.746 67.4796 148.434L56.3546 140.958L60.6591 133.191L51.0246 120.235Z" fill="#FDBAAC"/>
<path d="M122.996 155.017H64.9859L59.8944 116.962L127.11 117.868L122.996 155.017Z" fill="#6752E5"/>
<path d="M207.085 162.76V165.268C207.086 165.749 206.99 166.226 206.802 166.671C206.614 167.116 206.338 167.52 205.989 167.861C205.64 168.202 205.225 168.472 204.769 168.657C204.312 168.841 203.823 168.936 203.329 168.936H-16.7752C-17.2694 168.936 -17.7588 168.841 -18.2153 168.657C-18.6718 168.472 -19.0864 168.202 -19.4353 167.861C-19.7843 167.52 -20.0607 167.116 -20.2487 166.671C-20.4368 166.226 -20.5328 165.749 -20.5312 165.268V162.76C-20.5312 161.79 -20.1355 160.86 -19.4311 160.174C-18.7267 159.489 -17.7713 159.103 -16.7752 159.103H203.329C204.325 159.103 205.28 159.489 205.985 160.174C206.689 160.86 207.085 161.79 207.085 162.76V162.76Z" fill="url(#paint2_linear_21_776)"/>
<path d="M122.995 155.005H64.6992V159.149H122.995V155.005Z" fill="#6752E5"/>
<path d="M122.995 155.005H64.6992V159.149H122.995V155.005Z" fill="url(#paint3_linear_21_776)"/>
<path d="M123.059 155.017H65.0485L59.957 116.962L127.172 117.868L123.059 155.017Z" fill="url(#paint4_linear_21_776)"/>
<path d="M62.4968 115.081L59.957 116.962L127.172 117.868L124.859 115.662L62.4968 115.081Z" fill="url(#paint5_linear_21_776)"/>
</g>
<path d="M194.719 38C194.719 34.6863 197.405 32 200.719 32H384.896C388.21 32 390.896 34.6863 390.896 38V38C390.896 41.3137 388.21 44 384.896 44H200.719C197.405 44 194.719 41.3137 194.719 38V38Z" fill="#6752E5"/>
<path d="M194.719 60C194.719 57.7909 196.51 56 198.719 56H514.258C516.467 56 518.258 57.7909 518.258 60V60C518.258 62.2091 516.467 64 514.258 64H198.719C196.51 64 194.719 62.2091 194.719 60V60Z" fill="#6752E5"/>
<path d="M194.719 80C194.719 77.7909 196.51 76 198.719 76H514.258C516.467 76 518.258 77.7909 518.258 80V80C518.258 82.2091 516.467 84 514.258 84H198.719C196.51 84 194.719 82.2091 194.719 80V80Z" fill="#6752E5"/>
<path d="M194.719 100C194.719 97.7909 196.51 96 198.719 96H514.258C516.467 96 518.258 97.7909 518.258 100V100C518.258 102.209 516.467 104 514.258 104H198.719C196.51 104 194.719 102.209 194.719 100V100Z" fill="#6752E5"/>
<path d="M194.719 138C194.719 133.582 198.3 130 202.719 130H203.152C207.571 130 211.152 133.582 211.152 138V138C211.152 142.418 207.571 146 203.152 146H202.719C198.3 146 194.719 142.418 194.719 138V138Z" fill="#6752E5"/>
<path d="M248.128 138C248.128 133.582 251.71 130 256.128 130H256.562C260.98 130 264.562 133.582 264.562 138V138C264.562 142.418 260.98 146 256.562 146H256.128C251.71 146 248.128 142.418 248.128 138V138Z" fill="#6752E5"/>
<path d="M221.424 138C221.424 133.582 225.005 130 229.424 130H229.857C234.276 130 237.857 133.582 237.857 138V138C237.857 142.418 234.276 146 229.857 146H229.424C225.005 146 221.424 142.418 221.424 138V138Z" fill="#6752E5"/>
<path d="M274.833 138C274.833 133.582 278.415 130 282.833 130H283.267C287.685 130 291.267 133.582 291.267 138V138C291.267 142.418 287.685 146 283.267 146H282.833C278.415 146 274.833 142.418 274.833 138V138Z" fill="#6752E5"/>
<defs>
<filter id="filter0_d_21_776" x="0" y="0" width="571.231" height="186" filterUnits="userSpaceOnUse" color-interpolation-filters="sRGB">
<feFlood flood-opacity="0" result="BackgroundImageFix"/>
<feColorMatrix in="SourceAlpha" type="matrix" values="0 0 0 0 0 0 0 0 0 0 0 0 0 0 0 0 0 0 127 0" result="hardAlpha"/>
<feOffset dy="4"/>
<feGaussianBlur stdDeviation="8"/>
<feColorMatrix type="matrix" values="0 0 0 0 0.0941176 0 0 0 0 0.117647 0 0 0 0 0.188235 0 0 0 0.06 0"/>
<feBlend mode="normal" in2="BackgroundImageFix" result="effect1_dropShadow_21_776"/>
<feBlend mode="normal" in="SourceGraphic" in2="effect1_dropShadow_21_776" result="shape"/>
</filter>
<linearGradient id="paint0_linear_21_776" x1="285.616" y1="12" x2="285.616" y2="166" gradientUnits="userSpaceOnUse">
<stop stop-color="white"/>
<stop offset="1" stop-color="white" stop-opacity="0"/>
</linearGradient>
<linearGradient id="paint1_linear_21_776" x1="142.809" y1="134.779" x2="51.0078" y2="134.779" gradientUnits="userSpaceOnUse">
<stop stop-color="#D61F66"/>
<stop offset="1" stop-color="#6752E6"/>
</linearGradient>
<linearGradient id="paint2_linear_21_776" x1="207.085" y1="164.02" x2="-20.5313" y2="164.02" gradientUnits="userSpaceOnUse">
<stop stop-color="#D61F66"/>
<stop offset="1" stop-color="#6752E6"/>
</linearGradient>
<linearGradient id="paint3_linear_21_776" x1="10714.2" y1="717.329" x2="10714" y2="849.27" gradientUnits="userSpaceOnUse">
<stop offset="0.01"/>
<stop offset="0.08" stop-opacity="0.69"/>
<stop offset="0.21" stop-opacity="0.32"/>
<stop offset="1" stop-opacity="0"/>
</linearGradient>
<linearGradient id="paint4_linear_21_776" x1="11819.3" y1="3997.44" x2="12855.1" y2="9207.61" gradientUnits="userSpaceOnUse">
<stop offset="0.01"/>
<stop offset="0.08" stop-opacity="0.69"/>
<stop offset="0.21" stop-opacity="0.32"/>
<stop offset="1" stop-opacity="0"/>
</linearGradient>
<linearGradient id="paint5_linear_21_776" x1="12346.2" y1="402.703" x2="12345.9" y2="526.354" gradientUnits="userSpaceOnUse">
<stop offset="0.01"/>
<stop offset="0.08" stop-opacity="0.69"/>
<stop offset="0.21" stop-opacity="0.32"/>
<stop offset="1" stop-opacity="0"/>
</linearGradient>
</defs>
</svg>
