<svg width="36" height="36" viewBox="0 0 36 36" fill="none" xmlns="http://www.w3.org/2000/svg">
<path d="M32.1328 0.0546875H4.63281C2.52344 0.0546875 0.882812 1.77344 0.882812 3.80469V31.3047C0.882812 33.4141 2.52344 35.0547 4.63281 35.0547H15.3359V23.1797H10.4141V17.5547H15.3359V13.3359C15.3359 8.49219 18.2266 5.75781 22.6016 5.75781C24.7891 5.75781 26.9766 6.14844 26.9766 6.14844V10.9141H24.5547C22.1328 10.9141 21.3516 12.3984 21.3516 13.9609V17.5547H26.7422L25.8828 23.1797H21.3516V35.0547H32.1328C34.1641 35.0547 35.8828 33.4141 35.8828 31.3047V3.80469C35.8828 1.77344 34.1641 0.0546875 32.1328 0.0546875Z" fill="white"/>
</svg>
