<svg width="36" height="36" viewBox="0 0 36 36" fill="none" xmlns="http://www.w3.org/2000/svg">
<path d="M18.3828 8.57031C13.3828 8.57031 9.39844 12.6328 9.39844 17.5547C9.39844 22.5547 13.3828 26.5391 18.3828 26.5391C23.3047 26.5391 27.3672 22.5547 27.3672 17.5547C27.3672 12.6328 23.3047 8.57031 18.3828 8.57031ZM18.3828 23.4141C15.1797 23.4141 12.5234 20.8359 12.5234 17.5547C12.5234 14.3516 15.1016 11.7734 18.3828 11.7734C21.5859 11.7734 24.1641 14.3516 24.1641 17.5547C24.1641 20.8359 21.5859 23.4141 18.3828 23.4141ZM29.7891 8.25781C29.7891 7.08594 28.8516 6.14844 27.6797 6.14844C26.5078 6.14844 25.5703 7.08594 25.5703 8.25781C25.5703 9.42969 26.5078 10.3672 27.6797 10.3672C28.8516 10.3672 29.7891 9.42969 29.7891 8.25781ZM35.7266 10.3672C35.5703 7.55469 34.9453 5.05469 32.9141 3.02344C30.8828 0.992188 28.3828 0.367188 25.5703 0.210938C22.6797 0.0546875 14.0078 0.0546875 11.1172 0.210938C8.30469 0.367188 5.88281 0.992188 3.77344 3.02344C1.74219 5.05469 1.11719 7.55469 0.960938 10.3672C0.804688 13.2578 0.804688 21.9297 0.960938 24.8203C1.11719 27.6328 1.74219 30.0547 3.77344 32.1641C5.88281 34.1953 8.30469 34.8203 11.1172 34.9766C14.0078 35.1328 22.6797 35.1328 25.5703 34.9766C28.3828 34.8203 30.8828 34.1953 32.9141 32.1641C34.9453 30.0547 35.5703 27.6328 35.7266 24.8203C35.8828 21.9297 35.8828 13.2578 35.7266 10.3672ZM31.9766 27.8672C31.4297 29.4297 30.1797 30.6016 28.6953 31.2266C26.3516 32.1641 20.8828 31.9297 18.3828 31.9297C15.8047 31.9297 10.3359 32.1641 8.07031 31.2266C6.50781 30.6016 5.33594 29.4297 4.71094 27.8672C3.77344 25.6016 4.00781 20.1328 4.00781 17.5547C4.00781 15.0547 3.77344 9.58594 4.71094 7.24219C5.33594 5.75781 6.50781 4.58594 8.07031 3.96094C10.3359 3.02344 15.8047 3.25781 18.3828 3.25781C20.8828 3.25781 26.3516 3.02344 28.6953 3.96094C30.1797 4.50781 31.3516 5.75781 31.9766 7.24219C32.9141 9.58594 32.6797 15.0547 32.6797 17.5547C32.6797 20.1328 32.9141 25.6016 31.9766 27.8672Z" fill="white"/>
</svg>
