<svg width="36" height="36" viewBox="0 0 36 36" fill="none" xmlns="http://www.w3.org/2000/svg">
<path d="M32.1328 0.0546875H4.63281C2.52344 0.0546875 0.882812 1.77344 0.882812 3.80469V31.3047C0.882812 33.4141 2.52344 35.0547 4.63281 35.0547H32.1328C34.1641 35.0547 35.8828 33.4141 35.8828 31.3047V3.80469C35.8828 1.77344 34.1641 0.0546875 32.1328 0.0546875ZM28.3047 12.4766C28.3047 12.7109 28.3047 12.9453 28.3047 13.1797C28.3047 19.8984 23.1484 27.7109 13.6953 27.7109C10.8047 27.7109 8.14844 26.9297 5.88281 25.4453C6.27344 25.5234 6.66406 25.5234 7.05469 25.5234C9.47656 25.5234 11.6641 24.6641 13.4609 23.3359C11.1953 23.2578 9.32031 21.7734 8.61719 19.7422C9.47656 19.8984 10.1797 19.8984 10.9609 19.6641C8.61719 19.1953 6.89844 17.1641 6.89844 14.6641V14.5859C7.52344 14.9766 8.30469 15.2109 9.16406 15.2109C7.75781 14.2734 6.89844 12.7109 6.89844 10.9922C6.89844 9.97656 7.13281 9.11719 7.60156 8.33594C10.1016 11.4609 13.9297 13.4922 18.1484 13.7266C17.4453 10.2891 20.0234 7.39844 23.1484 7.39844C24.6328 7.39844 25.9609 8.02344 26.8984 9.03906C28.0703 8.80469 29.1641 8.41406 30.1797 7.78906C29.7891 9.03906 28.9297 9.97656 27.9141 10.6016C28.9297 10.5234 29.9453 10.2109 30.8828 9.82031C30.1797 10.8359 29.2422 11.7734 28.3047 12.4766Z" fill="white"/>
</svg>
